<svg width="126" height="21" viewBox="0 0 126 21" fill="none" xmlns="http://www.w3.org/2000/svg">
<path d="M10.0619 0.605713L12.299 7.49083L19.5385 7.49083L13.6816 11.7461L15.9187 18.6312L10.0619 14.376L4.20506 18.6312L6.44217 11.7461L0.58534 7.49083L7.82478 7.49083L10.0619 0.605713Z" fill="#4042E2"/>
<path d="M36.3666 0.605713L38.6037 7.49083L45.8431 7.49083L39.9863 11.7461L42.2234 18.6312L36.3666 14.376L30.5097 18.6312L32.7469 11.7461L26.89 7.49083L34.1295 7.49083L36.3666 0.605713Z" fill="#4042E2"/>
<path d="M62.6713 0.605713L64.9084 7.49083L72.1478 7.49083L66.291 11.7461L68.5281 18.6312L62.6713 14.376L56.8144 18.6312L59.0515 11.7461L53.1947 7.49083L60.4342 7.49083L62.6713 0.605713Z" fill="#4042E2"/>
<path d="M88.9799 0.605713L91.217 7.49083L98.4564 7.49083L92.5996 11.7461L94.8367 18.6312L88.9799 14.376L83.123 18.6312L85.3601 11.7461L79.5033 7.49083L86.7428 7.49083L88.9799 0.605713Z" fill="#C4C4C4"/>
<path d="M115.285 0.605713L117.522 7.49083L124.761 7.49083L118.904 11.7461L121.141 18.6312L115.285 14.376L109.428 18.6312L111.665 11.7461L105.808 7.49083L113.047 7.49083L115.285 0.605713Z" fill="#C4C4C4"/>
</svg>
