<svg width="638" height="532" viewBox="0 0 638 532" fill="none" xmlns="http://www.w3.org/2000/svg">
<path fill-rule="evenodd" clip-rule="evenodd" d="M421.028 181.432C420.79 177.364 419.979 173.958 419.303 172.065C417.976 175.385 417.319 178.572 417.097 181.479C414.19 181.7 411.001 182.357 407.68 183.685C409.573 184.362 412.98 185.173 417.049 185.41C417.276 189.729 418.387 193.084 419.303 194.802C420.419 191.68 420.928 188.467 421.06 185.442C424.085 185.309 427.295 184.8 430.417 183.685C428.698 182.769 425.345 181.659 421.028 181.432Z" fill="url(#paint0_linear_1128_5649)"/>
<path fill-rule="evenodd" clip-rule="evenodd" d="M453.11 154.668C452.951 151.961 452.412 149.694 451.962 148.434C451.078 150.644 450.641 152.765 450.493 154.7C448.558 154.848 446.437 155.285 444.227 156.169C445.486 156.619 447.753 157.159 450.461 157.317C450.612 160.191 451.352 162.425 451.962 163.568C452.704 161.49 453.043 159.352 453.131 157.338C455.145 157.25 457.283 156.911 459.361 156.169C458.217 155.559 455.984 154.819 453.11 154.668Z" fill="url(#paint1_linear_1128_5649)"/>
<path fill-rule="evenodd" clip-rule="evenodd" d="M504.809 135.601C504.572 131.534 503.761 128.129 503.085 126.236C501.757 129.555 501.1 132.742 500.879 135.649C497.971 135.87 494.782 136.527 491.461 137.855C493.354 138.531 496.761 139.343 500.831 139.58C501.058 143.899 502.168 147.254 503.085 148.973C504.2 145.85 504.709 142.637 504.842 139.612C507.866 139.479 511.076 138.97 514.198 137.855C512.48 136.939 509.126 135.829 504.809 135.601Z" fill="url(#paint2_linear_1128_5649)"/>
<path fill-rule="evenodd" clip-rule="evenodd" d="M500.376 229.09C500.026 223.105 498.833 218.096 497.838 215.311C495.885 220.195 494.919 224.884 494.593 229.16C490.316 229.487 485.627 230.452 480.742 232.406C483.527 233.401 488.537 234.594 494.522 234.944C494.856 241.297 496.49 246.234 497.838 248.762C499.479 244.168 500.228 239.442 500.423 234.991C504.874 234.796 509.599 234.047 514.193 232.406C511.665 231.058 506.729 229.424 500.376 229.09Z" fill="url(#paint3_linear_1128_5649)"/>
<circle cx="2.19743" cy="2.19743" r="2.19743" transform="matrix(-1 0 0 1 466.219 191.503)" fill="#2F235A"/>
<circle cx="2.19743" cy="2.19743" r="2.19743" transform="matrix(-1 0 0 1 415.785 128.498)" fill="#FE9076"/>
<circle cx="2.19743" cy="2.19743" r="2.19743" transform="matrix(-1 0 0 1 526.32 182.779)" fill="#FFA400"/>
<circle cx="2.19743" cy="2.19743" r="2.19743" transform="matrix(-1 0 0 1 427.828 225.395)" fill="#1A0F91"/>
<path d="M418.98 121.525C423.949 114.701 437.943 100.127 454.177 96.4165" stroke="#FE9076" stroke-width="1.60277" stroke-linecap="round"/>
<path d="M533.387 179.087C540.73 174.925 559.495 167.433 575.812 170.759" stroke="#FFA400" stroke-width="1.60277" stroke-linecap="round"/>
<path d="M433.184 233.975C436.946 237.295 445.999 246.724 452.108 257.879" stroke="#1A0F91" stroke-width="1.60277" stroke-linecap="round"/>
<path d="M335.44 318.074C333.68 318.074 332.258 316.509 332.258 314.573V264.029C332.258 262.093 333.68 260.528 335.44 260.528C337.199 260.528 338.622 262.093 338.622 264.029V314.573C338.622 316.509 337.199 318.074 335.44 318.074Z" fill="#B7C7FF"/>
<path d="M320.494 310.169C318.735 310.169 317.312 308.605 317.312 306.669V271.933C317.312 269.998 318.735 268.433 320.494 268.433C322.254 268.433 323.676 269.998 323.676 271.933V306.669C323.676 308.605 322.254 310.169 320.494 310.169Z" fill="#B7C7FF"/>
<path d="M350.377 310.169C348.618 310.169 347.195 308.605 347.195 306.669V271.933C347.195 269.998 348.618 268.433 350.377 268.433C352.137 268.433 353.559 269.998 353.559 271.933V306.669C353.559 308.605 352.137 310.169 350.377 310.169Z" fill="#B7C7FF"/>
<path d="M365.315 303.076C363.555 303.076 362.133 301.512 362.133 299.576V279.038C362.133 277.103 363.555 275.538 365.315 275.538C367.074 275.538 368.497 277.103 368.497 279.038V299.576C368.497 301.512 367.074 303.076 365.315 303.076Z" fill="#B7C7FF"/>
<path d="M604.389 318.074C602.629 318.074 601.207 316.509 601.207 314.573V264.029C601.207 262.093 602.629 260.528 604.389 260.528C606.149 260.528 607.571 262.093 607.571 264.029V314.573C607.571 316.509 606.149 318.074 604.389 318.074Z" fill="#B7C7FF"/>
<path d="M589.451 310.169C587.692 310.169 586.27 308.605 586.27 306.669V271.933C586.27 269.998 587.692 268.433 589.451 268.433C591.211 268.433 592.633 269.998 592.633 271.933V306.669C592.633 308.605 591.211 310.169 589.451 310.169Z" fill="#B7C7FF"/>
<path d="M619.334 310.169C617.575 310.169 616.152 308.605 616.152 306.669V271.933C616.152 269.998 617.575 268.433 619.334 268.433C621.094 268.433 622.516 269.998 622.516 271.933V306.669C622.516 308.605 621.094 310.169 619.334 310.169Z" fill="#B7C7FF"/>
<path d="M634.272 303.076C632.512 303.076 631.09 301.512 631.09 299.576V279.038C631.09 277.103 632.512 275.538 634.272 275.538C636.031 275.538 637.454 277.103 637.454 279.038V299.576C637.454 301.512 636.031 303.076 634.272 303.076Z" fill="#B7C7FF"/>
<path d="M380.256 309.52C378.497 309.52 377.074 307.956 377.074 306.02V272.594C377.074 270.658 378.497 269.094 380.256 269.094C382.016 269.094 383.438 270.658 383.438 272.594V306.02C383.438 307.956 382.016 309.52 380.256 309.52Z" fill="#B7C7FF"/>
<path d="M395.194 316.822C393.434 316.822 392.012 315.258 392.012 313.322V265.292C392.012 263.357 393.434 261.792 395.194 261.792C396.953 261.792 398.376 263.357 398.376 265.292V313.322C398.376 315.258 396.953 316.822 395.194 316.822Z" fill="#B7C7FF"/>
<path d="M410.147 325.572C408.387 325.572 406.965 324.008 406.965 322.072V256.53C406.965 254.594 408.387 253.029 410.147 253.029C411.906 253.029 413.329 254.594 413.329 256.53V322.072C413.329 324.008 411.906 325.572 410.147 325.572Z" fill="#B7C7FF"/>
<path d="M425.088 317.193C423.329 317.193 421.906 315.629 421.906 313.693V264.91C421.906 262.974 423.329 261.41 425.088 261.41C426.848 261.41 428.27 262.974 428.27 264.91V313.693C428.27 315.629 426.848 317.193 425.088 317.193Z" fill="#B7C7FF"/>
<path d="M440.026 309.335C438.266 309.335 436.844 307.77 436.844 305.835V272.78C436.844 270.844 438.266 269.279 440.026 269.279C441.785 269.279 443.208 270.844 443.208 272.78V305.835C443.208 307.77 441.785 309.335 440.026 309.335Z" fill="#B7C7FF"/>
<path d="M454.967 305.128C453.208 305.128 451.785 303.563 451.785 301.628V276.975C451.785 275.04 453.208 273.475 454.967 273.475C456.727 273.475 458.149 275.04 458.149 276.975V301.628C458.149 303.563 456.727 305.128 454.967 305.128Z" fill="#B7C7FF"/>
<path d="M469.912 317.738C468.153 317.738 466.73 316.173 466.73 314.238V264.377C466.73 262.441 468.153 260.876 469.912 260.876C471.672 260.876 473.094 262.441 473.094 264.377V314.238C473.094 316.173 471.672 317.738 469.912 317.738Z" fill="#B7C7FF"/>
<path d="M529.682 317.738C527.922 317.738 526.5 316.173 526.5 314.238V264.377C526.5 262.441 527.922 260.876 529.682 260.876C531.441 260.876 532.864 262.441 532.864 264.377V314.238C532.864 316.173 531.441 317.738 529.682 317.738Z" fill="#B7C7FF"/>
<path d="M484.85 325.572C483.09 325.572 481.668 324.008 481.668 322.072V256.53C481.668 254.594 483.09 253.029 484.85 253.029C486.609 253.029 488.032 254.594 488.032 256.53V322.072C488.032 324.008 486.609 325.572 484.85 325.572Z" fill="#B7C7FF"/>
<path d="M499.803 338.832C498.043 338.832 496.621 337.267 496.621 335.332V243.271C496.621 241.335 498.043 239.771 499.803 239.771C501.563 239.771 502.985 241.335 502.985 243.271V335.332C502.985 337.267 501.563 338.832 499.803 338.832Z" fill="#B7C7FF"/>
<path d="M514.737 325.572C512.977 325.572 511.555 324.008 511.555 322.072V256.53C511.555 254.594 512.977 253.029 514.737 253.029C516.496 253.029 517.919 254.594 517.919 256.53V322.072C517.919 324.008 516.496 325.572 514.737 325.572Z" fill="#B7C7FF"/>
<path d="M544.623 305.127C542.864 305.127 541.441 303.563 541.441 301.627V276.975C541.441 275.039 542.864 273.475 544.623 273.475C546.383 273.475 547.805 275.039 547.805 276.975V301.627C547.805 303.563 546.383 305.127 544.623 305.127Z" fill="#B7C7FF"/>
<path d="M574.498 305.128C572.739 305.128 571.316 303.563 571.316 301.628V276.975C571.316 275.04 572.739 273.475 574.498 273.475C576.258 273.475 577.68 275.04 577.68 276.975V301.628C577.68 303.563 576.258 305.128 574.498 305.128Z" fill="#B7C7FF"/>
<path d="M559.561 301.013C557.801 301.013 556.379 299.448 556.379 297.513V281.09C556.379 279.154 557.801 277.589 559.561 277.589C561.32 277.589 562.743 279.154 562.743 281.09V297.513C562.743 299.448 561.32 301.013 559.561 301.013Z" fill="#B7C7FF"/>
<path d="M305.545 305.127C303.786 305.127 302.363 303.563 302.363 301.627V276.975C302.363 275.039 303.786 273.475 305.545 273.475C307.305 273.475 308.727 275.039 308.727 276.975V301.627C308.727 303.563 307.305 305.127 305.545 305.127Z" fill="#B7C7FF"/>
<path d="M111.006 316.954C109.247 316.954 107.824 315.389 107.824 313.453V262.908C107.824 260.973 109.247 259.408 111.006 259.408C112.766 259.408 114.188 260.973 114.188 262.908V313.453C114.188 315.389 112.766 316.954 111.006 316.954Z" fill="#B7C7FF"/>
<path d="M96.0647 309.049C94.3052 309.049 92.8828 307.485 92.8828 305.549V270.813C92.8828 268.878 94.3052 267.313 96.0647 267.313C97.8243 267.313 99.2466 268.878 99.2466 270.813V305.549C99.2466 307.485 97.8243 309.049 96.0647 309.049Z" fill="#B7C7FF"/>
<path d="M125.948 309.049C124.188 309.049 122.766 307.485 122.766 305.549V270.813C122.766 268.878 124.188 267.313 125.948 267.313C127.707 267.313 129.129 268.878 129.129 270.813V305.549C129.129 307.485 127.707 309.049 125.948 309.049Z" fill="#B7C7FF"/>
<path d="M140.889 301.956C139.129 301.956 137.707 300.392 137.707 298.456V277.918C137.707 275.983 139.129 274.418 140.889 274.418C142.648 274.418 144.071 275.983 144.071 277.918V298.456C144.071 300.392 142.648 301.956 140.889 301.956Z" fill="#B7C7FF"/>
<path d="M379.963 316.954C378.204 316.954 376.781 315.389 376.781 313.453V262.908C376.781 260.973 378.204 259.408 379.963 259.408C381.723 259.408 383.145 260.973 383.145 262.908V313.453C383.145 315.389 381.723 316.954 379.963 316.954Z" fill="#B7C7FF"/>
<path d="M365.026 309.049C363.266 309.049 361.844 307.485 361.844 305.549V270.813C361.844 268.878 363.266 267.313 365.026 267.313C366.785 267.313 368.208 268.878 368.208 270.813V305.549C368.208 307.485 366.785 309.049 365.026 309.049Z" fill="#B7C7FF"/>
<path d="M394.901 309.049C393.141 309.049 391.719 307.485 391.719 305.549V270.813C391.719 268.878 393.141 267.313 394.901 267.313C396.66 267.313 398.083 268.878 398.083 270.813V305.549C398.083 307.485 396.66 309.049 394.901 309.049Z" fill="#B7C7FF"/>
<path d="M409.854 301.956C408.094 301.956 406.672 300.392 406.672 298.456V277.918C406.672 275.983 408.094 274.418 409.854 274.418C411.613 274.418 413.036 275.983 413.036 277.918V298.456C413.036 300.392 411.613 301.956 409.854 301.956Z" fill="#B7C7FF"/>
<path d="M155.838 308.4C154.079 308.4 152.656 306.836 152.656 304.9V271.474C152.656 269.538 154.079 267.974 155.838 267.974C157.598 267.974 159.02 269.538 159.02 271.474V304.9C159.02 306.836 157.598 308.4 155.838 308.4Z" fill="#B7C7FF"/>
<path d="M170.776 315.702C169.016 315.702 167.594 314.137 167.594 312.202V264.172C167.594 262.237 169.016 260.672 170.776 260.672C172.535 260.672 173.958 262.237 173.958 264.172V312.202C173.958 314.137 172.535 315.702 170.776 315.702Z" fill="#B7C7FF"/>
<path d="M185.721 324.464C183.961 324.464 182.539 322.899 182.539 320.964V255.421C182.539 253.486 183.961 251.921 185.721 251.921C187.481 251.921 188.903 253.486 188.903 255.421V320.964C188.903 322.899 187.481 324.464 185.721 324.464Z" fill="#B7C7FF"/>
<path d="M200.658 316.073C198.899 316.073 197.477 314.508 197.477 312.573V263.79C197.477 261.854 198.899 260.29 200.658 260.29C202.418 260.29 203.84 261.854 203.84 263.79V312.573C203.84 314.508 202.418 316.073 200.658 316.073Z" fill="#B7C7FF"/>
<path d="M215.604 308.215C213.844 308.215 212.422 306.65 212.422 304.715V271.659C212.422 269.724 213.844 268.159 215.604 268.159C217.363 268.159 218.786 269.724 218.786 271.659V304.715C218.786 306.65 217.363 308.215 215.604 308.215Z" fill="#B7C7FF"/>
<path d="M230.537 304.008C228.778 304.008 227.355 302.443 227.355 300.508V275.855C227.355 273.92 228.778 272.355 230.537 272.355C232.297 272.355 233.719 273.92 233.719 275.855V300.508C233.719 302.443 232.297 304.008 230.537 304.008Z" fill="#B7C7FF"/>
<path d="M245.494 316.618C243.735 316.618 242.312 315.053 242.312 313.118V263.257C242.312 261.321 243.735 259.756 245.494 259.756C247.254 259.756 248.676 261.321 248.676 263.257V313.118C248.676 315.053 247.254 316.618 245.494 316.618Z" fill="#B7C7FF"/>
<path d="M305.252 316.618C303.493 316.618 302.07 315.053 302.07 313.118V263.257C302.07 261.321 303.493 259.756 305.252 259.756C307.012 259.756 308.434 261.321 308.434 263.257V313.118C308.434 315.053 307.012 316.618 305.252 316.618Z" fill="#B7C7FF"/>
<path d="M260.432 324.464C258.672 324.464 257.25 322.899 257.25 320.964V255.421C257.25 253.486 258.672 251.921 260.432 251.921C262.191 251.921 263.614 253.486 263.614 255.421V320.964C263.614 322.899 262.191 324.464 260.432 324.464Z" fill="#B7C7FF"/>
<path d="M275.369 337.712C273.61 337.712 272.188 336.147 272.188 334.212V242.151C272.188 240.215 273.61 238.65 275.369 238.65C277.129 238.65 278.551 240.215 278.551 242.151V334.212C278.551 336.147 277.129 337.712 275.369 337.712Z" fill="#B7C7FF"/>
<path d="M290.315 324.464C288.555 324.464 287.133 322.899 287.133 320.964V255.421C287.133 253.486 288.555 251.921 290.315 251.921C292.074 251.921 293.497 253.486 293.497 255.421V320.964C293.497 322.899 292.074 324.464 290.315 324.464Z" fill="#B7C7FF"/>
<path d="M320.19 304.008C318.43 304.008 317.008 302.443 317.008 300.508V275.855C317.008 273.92 318.43 272.355 320.19 272.355C321.949 272.355 323.372 273.92 323.372 275.855V300.508C323.372 302.443 321.949 304.008 320.19 304.008Z" fill="#B7C7FF"/>
<path d="M350.08 304.008C348.321 304.008 346.898 302.443 346.898 300.508V275.855C346.898 273.92 348.321 272.355 350.08 272.355C351.84 272.355 353.262 273.92 353.262 275.855V300.508C353.262 302.443 351.84 304.008 350.08 304.008Z" fill="#B7C7FF"/>
<path d="M335.143 299.893C333.383 299.893 331.961 298.328 331.961 296.393V279.969C331.961 278.034 333.383 276.469 335.143 276.469C336.902 276.469 338.325 278.034 338.325 279.969V296.393C338.325 298.328 336.902 299.893 335.143 299.893Z" fill="#B7C7FF"/>
<path d="M81.1272 304.007C79.3677 304.007 77.9453 302.443 77.9453 300.507V275.855C77.9453 273.919 79.3677 272.354 81.1272 272.354C82.8868 272.354 84.3091 273.919 84.3091 275.855V300.507C84.3091 302.443 82.8868 304.007 81.1272 304.007Z" fill="#B7C7FF"/>
<path d="M358.311 517.178L227.028 516.571C211.239 516.497 198.492 503.556 198.567 487.656L199.957 156.294C200.022 140.384 212.89 127.547 228.689 127.621L359.972 128.228C375.761 128.303 388.508 141.243 388.433 157.143L387.043 488.506C386.978 504.415 374.11 517.253 358.311 517.178Z" fill="#263238"/>
<path d="M359.787 139.666L334.331 139.544L259.997 139.199L251.048 139.152L228.774 139.049C217.707 139.003 208.702 147.985 208.656 159.132L207.293 482.568C207.246 493.706 216.167 502.763 227.225 502.819L358.248 503.426C369.315 503.482 378.32 494.491 378.366 483.343L379.729 159.907C379.775 148.778 370.854 139.712 359.797 139.656L359.787 139.666Z" fill="white"/>
<path d="M363.247 164.081C363.247 164.977 362.51 165.705 361.614 165.696C360.719 165.696 359.991 164.958 360 164.062C360 163.166 360.737 162.438 361.633 162.447C362.529 162.447 363.257 163.184 363.247 164.081Z" fill="#B7C7FF"/>
<path d="M363.228 169.925C363.228 170.822 362.491 171.55 361.595 171.541C360.699 171.541 359.971 170.803 359.981 169.907C359.981 169.011 360.718 168.282 361.614 168.292C362.509 168.292 363.237 169.029 363.228 169.925Z" fill="#B7C7FF"/>
<path d="M363.208 175.77C363.208 176.666 362.471 177.394 361.575 177.385C360.68 177.385 359.952 176.647 359.961 175.751C359.961 174.855 360.698 174.126 361.594 174.136C362.49 174.136 363.218 174.873 363.208 175.77Z" fill="#B7C7FF"/>
<path d="M244.344 171.45C245.711 165.685 242.149 159.903 236.387 158.535C230.626 157.167 224.847 160.731 223.48 166.496C222.112 172.26 225.675 178.043 231.436 179.411C237.197 180.779 242.976 177.214 244.344 171.45Z" fill="#B7C7FF"/>
<path d="M326.805 167.75H270.658C269.009 167.75 267.672 169.087 267.672 170.737V172.128C267.672 173.778 269.009 175.116 270.658 175.116H326.805C328.454 175.116 329.791 173.778 329.791 172.128V170.737C329.791 169.087 328.454 167.75 326.805 167.75Z" fill="#B7C7FF"/>
<path d="M241.82 291.177H243.896V301.937H241.82V291.177ZM237.668 294.405H239.744V298.709H237.668V294.405ZM245.972 285.796H248.048V305.165H245.972V285.796ZM250.124 287.948H252.2V307.317H250.124V287.948ZM254.276 291.177H256.352V301.937H254.276V291.177ZM258.428 294.405H260.504V298.709H258.428V294.405Z" fill="#1A0F91"/>
<path d="M274.006 299.207V294.44C274.006 294.097 273.951 293.804 273.842 293.56C273.732 293.309 273.562 293.115 273.331 292.976C273.106 292.838 272.813 292.769 272.453 292.769C272.144 292.769 271.878 292.825 271.653 292.937C271.427 293.042 271.254 293.197 271.132 293.402C271.01 293.6 270.949 293.834 270.949 294.104H268.171C268.171 293.649 268.274 293.217 268.48 292.808C268.685 292.4 268.984 292.04 269.377 291.73C269.769 291.414 270.235 291.167 270.775 290.989C271.321 290.811 271.932 290.722 272.607 290.722C273.417 290.722 274.137 290.86 274.767 291.137C275.398 291.414 275.893 291.829 276.253 292.383C276.619 292.937 276.802 293.629 276.802 294.46V299.039C276.802 299.626 276.838 300.107 276.908 300.483C276.979 300.852 277.082 301.175 277.217 301.452V301.62H274.411C274.276 301.33 274.173 300.968 274.102 300.532C274.038 300.091 274.006 299.649 274.006 299.207ZM274.372 295.103L274.391 296.715H272.839C272.472 296.715 272.154 296.758 271.884 296.843C271.614 296.929 271.392 297.051 271.219 297.209C271.045 297.361 270.916 297.539 270.833 297.743C270.756 297.948 270.717 298.172 270.717 298.416C270.717 298.66 270.772 298.881 270.881 299.079C270.99 299.27 271.148 299.421 271.354 299.533C271.559 299.639 271.8 299.692 272.077 299.692C272.495 299.692 272.858 299.606 273.167 299.435C273.475 299.263 273.713 299.052 273.88 298.802C274.054 298.551 274.144 298.314 274.15 298.09L274.883 299.296C274.78 299.566 274.639 299.847 274.459 300.137C274.285 300.427 274.063 300.7 273.793 300.958C273.523 301.208 273.199 301.416 272.819 301.581C272.44 301.739 271.99 301.818 271.469 301.818C270.807 301.818 270.206 301.683 269.666 301.413C269.132 301.136 268.708 300.757 268.393 300.275C268.084 299.787 267.93 299.233 267.93 298.614C267.93 298.053 268.033 297.555 268.239 297.12C268.444 296.685 268.747 296.319 269.145 296.023C269.55 295.719 270.055 295.492 270.659 295.34C271.264 295.182 271.964 295.103 272.762 295.103H274.372Z" fill="black"/>
<path d="M283.254 299.593C283.595 299.593 283.897 299.527 284.16 299.395C284.424 299.257 284.63 299.065 284.778 298.821C284.932 298.571 285.012 298.277 285.019 297.941H287.632C287.626 298.693 287.43 299.362 287.044 299.949C286.658 300.529 286.141 300.987 285.491 301.324C284.842 301.653 284.115 301.818 283.312 301.818C282.502 301.818 281.795 301.68 281.19 301.403C280.592 301.126 280.094 300.743 279.695 300.255C279.297 299.761 278.998 299.187 278.799 298.535C278.599 297.875 278.5 297.17 278.5 296.418V296.131C278.5 295.373 278.599 294.668 278.799 294.015C278.998 293.356 279.297 292.782 279.695 292.294C280.094 291.8 280.592 291.414 281.19 291.137C281.788 290.86 282.489 290.722 283.293 290.722C284.148 290.722 284.897 290.89 285.54 291.226C286.189 291.562 286.697 292.044 287.063 292.67C287.436 293.29 287.626 294.025 287.632 294.875H285.019C285.012 294.519 284.938 294.196 284.797 293.906C284.662 293.616 284.463 293.385 284.199 293.214C283.942 293.036 283.624 292.947 283.244 292.947C282.839 292.947 282.508 293.036 282.251 293.214C281.994 293.385 281.795 293.623 281.653 293.926C281.512 294.223 281.412 294.562 281.354 294.945C281.303 295.32 281.277 295.716 281.277 296.131V296.418C281.277 296.834 281.303 297.232 281.354 297.615C281.406 297.997 281.502 298.337 281.643 298.633C281.791 298.93 281.994 299.164 282.251 299.336C282.508 299.507 282.842 299.593 283.254 299.593Z" fill="black"/>
<path d="M293.553 299.593C293.894 299.593 294.196 299.527 294.46 299.395C294.724 299.257 294.929 299.065 295.077 298.821C295.231 298.571 295.312 298.277 295.318 297.941H297.932C297.925 298.693 297.729 299.362 297.343 299.949C296.958 300.529 296.44 300.987 295.791 301.324C295.141 301.653 294.415 301.818 293.611 301.818C292.801 301.818 292.094 301.68 291.49 301.403C290.892 301.126 290.394 300.743 289.995 300.255C289.596 299.761 289.297 299.187 289.098 298.535C288.899 297.875 288.799 297.17 288.799 296.418V296.131C288.799 295.373 288.899 294.668 289.098 294.015C289.297 293.356 289.596 292.782 289.995 292.294C290.394 291.8 290.892 291.414 291.49 291.137C292.088 290.86 292.788 290.722 293.592 290.722C294.447 290.722 295.196 290.89 295.839 291.226C296.488 291.562 296.996 292.044 297.363 292.67C297.736 293.29 297.925 294.025 297.932 294.875H295.318C295.312 294.519 295.238 294.196 295.096 293.906C294.961 293.616 294.762 293.385 294.499 293.214C294.241 293.036 293.923 292.947 293.544 292.947C293.139 292.947 292.808 293.036 292.551 293.214C292.293 293.385 292.094 293.623 291.953 293.926C291.811 294.223 291.712 294.562 291.654 294.945C291.602 295.32 291.576 295.716 291.576 296.131V296.418C291.576 296.834 291.602 297.232 291.654 297.615C291.705 297.997 291.802 298.337 291.943 298.633C292.091 298.93 292.293 299.164 292.551 299.336C292.808 299.507 293.142 299.593 293.553 299.593Z" fill="black"/>
<path d="M304.345 301.818C303.535 301.818 302.808 301.686 302.165 301.422C301.522 301.152 300.976 300.78 300.526 300.305C300.082 299.83 299.742 299.28 299.504 298.653C299.266 298.02 299.147 297.348 299.147 296.636V296.24C299.147 295.429 299.259 294.687 299.484 294.015C299.709 293.342 300.031 292.759 300.449 292.264C300.873 291.77 301.387 291.391 301.992 291.127C302.596 290.857 303.278 290.722 304.036 290.722C304.776 290.722 305.431 290.847 306.004 291.097C306.576 291.348 307.055 291.704 307.44 292.165C307.833 292.627 308.128 293.181 308.328 293.827C308.527 294.467 308.627 295.179 308.627 295.963V297.15H300.333V295.251H305.897V295.034C305.897 294.638 305.827 294.285 305.685 293.975C305.55 293.659 305.345 293.408 305.068 293.224C304.792 293.039 304.438 292.947 304.007 292.947C303.641 292.947 303.326 293.029 303.062 293.194C302.799 293.359 302.583 293.59 302.416 293.886C302.255 294.183 302.133 294.532 302.05 294.935C301.972 295.33 301.934 295.765 301.934 296.24V296.636C301.934 297.064 301.992 297.46 302.107 297.823C302.23 298.185 302.4 298.498 302.619 298.762C302.844 299.026 303.114 299.23 303.429 299.375C303.75 299.52 304.113 299.593 304.518 299.593C305.02 299.593 305.486 299.494 305.917 299.296C306.354 299.092 306.73 298.785 307.045 298.376L308.395 299.88C308.177 300.203 307.878 300.513 307.498 300.809C307.125 301.106 306.675 301.35 306.148 301.541C305.621 301.726 305.02 301.818 304.345 301.818Z" fill="black"/>
<path d="M312.928 293.204V301.62H310.15V290.919H312.754L312.928 293.204ZM312.523 295.894H311.77C311.77 295.103 311.87 294.391 312.069 293.758C312.269 293.118 312.548 292.574 312.908 292.126C313.268 291.671 313.696 291.325 314.191 291.087C314.693 290.844 315.252 290.722 315.869 290.722C316.358 290.722 316.805 290.794 317.21 290.939C317.615 291.084 317.962 291.315 318.251 291.631C318.547 291.948 318.772 292.367 318.926 292.887C319.087 293.408 319.167 294.045 319.167 294.796V301.62H316.371V294.786C316.371 294.312 316.306 293.942 316.178 293.679C316.049 293.415 315.859 293.23 315.609 293.125C315.364 293.013 315.062 292.957 314.702 292.957C314.329 292.957 314.005 293.033 313.728 293.184C313.458 293.336 313.233 293.547 313.053 293.817C312.88 294.081 312.748 294.391 312.658 294.747C312.568 295.103 312.523 295.485 312.523 295.894Z" fill="black"/>
<path d="M326.39 290.919V292.937H320.315V290.919H326.39ZM321.819 288.279H324.597V298.396C324.597 298.706 324.635 298.943 324.712 299.108C324.796 299.273 324.918 299.388 325.079 299.454C325.24 299.514 325.442 299.543 325.686 299.543C325.86 299.543 326.014 299.537 326.149 299.524C326.291 299.504 326.41 299.484 326.506 299.464L326.516 301.561C326.278 301.64 326.021 301.703 325.744 301.749C325.468 301.795 325.162 301.818 324.828 301.818C324.217 301.818 323.684 301.716 323.227 301.511C322.777 301.3 322.43 300.964 322.186 300.503C321.941 300.041 321.819 299.435 321.819 298.683V288.279Z" fill="black"/>
<path d="M330.904 286.429V301.62H328.117V286.429H330.904Z" fill="black"/>
<path d="M336.295 300.414L339.062 290.919H342.042L337.847 303.232C337.757 303.503 337.635 303.793 337.481 304.103C337.333 304.413 337.13 304.706 336.873 304.983C336.622 305.266 336.304 305.497 335.918 305.675C335.539 305.853 335.073 305.942 334.52 305.942C334.256 305.942 334.041 305.926 333.874 305.893C333.707 305.86 333.507 305.814 333.276 305.754V303.667C333.347 303.667 333.421 303.667 333.498 303.667C333.575 303.674 333.649 303.677 333.72 303.677C334.086 303.677 334.385 303.635 334.617 303.549C334.848 303.463 335.034 303.331 335.176 303.153C335.317 302.982 335.43 302.758 335.513 302.481L336.295 300.414ZM335.137 290.919L337.404 298.673L337.799 301.689L335.909 301.897L332.157 290.919H335.137Z" fill="black"/>
<path d="M381.476 374.036H210.086C194.672 374.036 182.176 386.539 182.176 401.962V404.931C182.176 420.354 194.672 432.856 210.086 432.856H381.476C396.891 432.856 409.387 420.354 409.387 404.931V401.962C409.387 386.539 396.891 374.036 381.476 374.036Z" fill="white"/>
<path d="M381.477 433.323H210.096C194.447 433.323 181.719 420.588 181.719 404.931V401.971C181.719 386.314 194.447 373.579 210.096 373.579H381.477C397.125 373.579 409.854 386.314 409.854 401.971V404.931C409.854 420.588 397.125 433.323 381.477 433.323ZM210.096 374.503C194.96 374.503 182.652 386.818 182.652 401.962V404.921C182.652 420.065 194.96 432.38 210.096 432.38H381.477C396.612 432.38 408.92 420.065 408.92 404.921V401.962C408.92 386.818 396.612 374.503 381.477 374.503H210.096Z" fill="#263238"/>
<path d="M218.471 421.417C228.44 416.956 232.906 405.253 228.447 395.279C223.988 385.305 212.292 380.836 202.323 385.298C192.355 389.76 187.888 401.462 192.347 411.436C196.807 421.41 208.503 425.879 218.471 421.417Z" fill="#FE857D"/>
<path d="M205.172 403.932V398.171C205.172 396.668 206.796 395.734 208.093 396.481L213.085 399.366L218.077 402.251C219.374 402.998 219.374 404.875 218.077 405.631L213.085 408.516L208.093 411.401C206.796 412.148 205.172 411.214 205.172 409.711V403.95V403.932Z" fill="white"/>
<path d="M251.857 416.526C251.082 416.526 250.457 415.9 250.457 415.125V392.736C250.457 391.961 251.082 391.336 251.857 391.336C252.631 391.336 253.256 391.961 253.256 392.736V415.125C253.256 415.9 252.631 416.526 251.857 416.526Z" fill="#1A0F91"/>
<path d="M244.509 413.025C243.735 413.025 243.109 412.399 243.109 411.624V396.238C243.109 395.463 243.735 394.837 244.509 394.837C245.284 394.837 245.909 395.463 245.909 396.238V411.624C245.909 412.399 245.284 413.025 244.509 413.025Z" fill="#1A0F91"/>
<path d="M340.056 416.526C339.281 416.526 338.656 415.9 338.656 415.125V392.736C338.656 391.961 339.281 391.336 340.056 391.336C340.83 391.336 341.456 391.961 341.456 392.736V415.125C341.456 415.9 340.83 416.526 340.056 416.526Z" fill="#1A0F91"/>
<path d="M332.7 413.025C331.926 413.025 331.301 412.399 331.301 411.624V396.238C331.301 395.463 331.926 394.837 332.7 394.837C333.475 394.837 334.1 395.463 334.1 396.238V411.624C334.1 412.399 333.475 413.025 332.7 413.025Z" fill="#1A0F91"/>
<path d="M347.408 413.025C346.633 413.025 346.008 412.399 346.008 411.624V396.238C346.008 395.463 346.633 394.837 347.408 394.837C348.182 394.837 348.807 395.463 348.807 396.238V411.624C348.807 412.399 348.182 413.025 347.408 413.025Z" fill="#1A0F91"/>
<path d="M354.751 409.879C353.977 409.879 353.352 409.253 353.352 408.478V399.384C353.352 398.609 353.977 397.984 354.751 397.984C355.526 397.984 356.151 398.609 356.151 399.384V408.478C356.151 409.253 355.526 409.879 354.751 409.879Z" fill="#1A0F91"/>
<path d="M369.251 416.526C368.477 416.526 367.852 415.9 367.852 415.125V392.736C367.852 391.961 368.477 391.336 369.251 391.336C370.026 391.336 370.651 391.961 370.651 392.736V415.125C370.651 415.9 370.026 416.526 369.251 416.526Z" fill="#1A0F91"/>
<path d="M361.9 413.025C361.125 413.025 360.5 412.399 360.5 411.624V396.238C360.5 395.463 361.125 394.837 361.9 394.837C362.674 394.837 363.299 395.463 363.299 396.238V411.624C363.299 412.399 362.674 413.025 361.9 413.025Z" fill="#1A0F91"/>
<path d="M376.595 413.025C375.821 413.025 375.195 412.399 375.195 411.624V396.238C375.195 395.463 375.821 394.837 376.595 394.837C377.37 394.837 377.995 395.463 377.995 396.238V411.624C377.995 412.399 377.37 413.025 376.595 413.025Z" fill="#1A0F91"/>
<path d="M383.95 409.879C383.176 409.879 382.551 409.253 382.551 408.478V399.384C382.551 398.609 383.176 397.984 383.95 397.984C384.725 397.984 385.35 398.609 385.35 399.384V408.478C385.35 409.253 384.725 409.879 383.95 409.879Z" fill="#1A0F91"/>
<path d="M390.575 408.609C389.801 408.609 389.176 407.983 389.176 407.208V402.176C389.176 401.401 389.801 400.775 390.575 400.775C391.35 400.775 391.975 401.401 391.975 402.176V407.208C391.975 407.983 391.35 408.609 390.575 408.609Z" fill="#1A0F91"/>
<path d="M281.259 416.376C280.485 416.376 279.859 415.751 279.859 414.976V392.895C279.859 392.12 280.485 391.495 281.259 391.495C282.034 391.495 282.659 392.12 282.659 392.895V414.976C282.659 415.751 282.034 416.376 281.259 416.376Z" fill="#1A0F91"/>
<path d="M259.208 419.84C258.434 419.84 257.809 419.215 257.809 418.44V389.413C257.809 388.638 258.434 388.012 259.208 388.012C259.983 388.012 260.608 388.638 260.608 389.413V418.44C260.608 419.215 259.983 419.84 259.208 419.84Z" fill="#1A0F91"/>
<path d="M266.564 425.722C265.789 425.722 265.164 425.097 265.164 424.322V383.549C265.164 382.774 265.789 382.149 266.564 382.149C267.338 382.149 267.963 382.774 267.963 383.549V424.322C267.963 425.097 267.338 425.722 266.564 425.722Z" fill="#1A0F91"/>
<path d="M273.908 419.84C273.133 419.84 272.508 419.215 272.508 418.44V389.413C272.508 388.638 273.133 388.012 273.908 388.012C274.682 388.012 275.307 388.638 275.307 389.413V418.44C275.307 419.215 274.682 419.84 273.908 419.84Z" fill="#1A0F91"/>
<path d="M295.954 416.526C295.18 416.526 294.555 415.9 294.555 415.125V392.736C294.555 391.961 295.18 391.336 295.954 391.336C296.729 391.336 297.354 391.961 297.354 392.736V415.125C297.354 415.9 296.729 416.526 295.954 416.526Z" fill="#1A0F91"/>
<path d="M288.599 413.025C287.824 413.025 287.199 412.399 287.199 411.624V396.238C287.199 395.463 287.824 394.837 288.599 394.837C289.373 394.837 289.999 395.463 289.999 396.238V411.624C289.999 412.399 289.373 413.025 288.599 413.025Z" fill="#1A0F91"/>
<path d="M325.357 416.376C324.582 416.376 323.957 415.751 323.957 414.976V392.895C323.957 392.12 324.582 391.495 325.357 391.495C326.131 391.495 326.756 392.12 326.756 392.895V414.976C326.756 415.751 326.131 416.376 325.357 416.376Z" fill="#1A0F91"/>
<path d="M303.314 419.84C302.539 419.84 301.914 419.215 301.914 418.44V389.413C301.914 388.638 302.539 388.012 303.314 388.012C304.088 388.012 304.713 388.638 304.713 389.413V418.44C304.713 419.215 304.088 419.84 303.314 419.84Z" fill="#1A0F91"/>
<path d="M310.65 425.722C309.875 425.722 309.25 425.097 309.25 424.322V383.549C309.25 382.774 309.875 382.149 310.65 382.149C311.424 382.149 312.049 382.774 312.049 383.549V424.322C312.049 425.097 311.424 425.722 310.65 425.722Z" fill="#1A0F91"/>
<path d="M318.001 419.84C317.227 419.84 316.602 419.215 316.602 418.44V389.413C316.602 388.638 317.227 388.012 318.001 388.012C318.776 388.012 319.401 388.638 319.401 389.413V418.44C319.401 419.215 318.776 419.84 318.001 419.84Z" fill="#1A0F91"/>
<path d="M237.158 410.793C236.383 410.793 235.758 410.167 235.758 409.392V398.478C235.758 397.703 236.383 397.078 237.158 397.078C237.932 397.078 238.557 397.703 238.557 398.478V409.392C238.557 410.167 237.932 410.793 237.158 410.793Z" fill="#1A0F91"/>
<path d="M498.871 0.650391C451.774 0.650391 413.594 22.3944 413.594 49.2156C413.594 66.4459 429.352 81.5799 453.106 90.2016C453.526 97.3826 456.394 115.973 474.415 125.434C475.114 125.8 475.881 125.079 475.557 124.358C473.377 119.51 468.919 107.231 473.315 95.5625C481.383 97.0032 489.966 97.7809 498.869 97.7809C545.965 97.7809 584.145 76.0369 584.145 49.2156C584.145 22.3944 545.968 0.650391 498.871 0.650391Z" fill="#B7C7FF"/>
<path d="M465.89 73.0492C464.723 64.2246 465.61 54.9079 464.849 48.5646C462.641 48.1439 460.161 48.2923 458.809 48.7844C458.49 53.5442 460.816 67.7522 459.617 72.0349C458.278 73.4361 457.738 72.1156 457.074 69.6061C455.399 61.8165 454.821 41.8739 454.772 30.5229C454.723 29.1799 454.693 27.2714 454.684 24.7995C454.648 22.8047 457.379 23.7514 458.126 24.6549C457.713 28.3684 457.888 31.8171 458.173 36.1674C458.522 41.1902 458.205 42.8807 458.477 47.0281C460.127 47 463.419 46.5003 464.775 46.5473C464.745 39.2348 464.447 30.5924 464.423 23.4584C467.227 23.3118 467.801 26.0073 467.625 28.4548C467.576 34.9859 469.12 63.8057 469.031 71.3136C469.202 72.9609 467.043 74.6064 465.89 73.0492Z" fill="white"/>
<path d="M478.749 72.9005C477.502 71.905 478.141 69.8463 477.984 68.4807C477.625 61.7843 477.417 57.1974 477.712 49.2932C477.869 45.5195 477.942 42.3545 477.933 39.7961C477.837 36.9542 476.314 29.5816 480.231 29.7055C482.72 29.5365 491.99 31.5839 486.162 34.625C484.341 33.9826 482.692 33.5562 481.221 33.3439C481.347 35.3162 481.298 38.8701 481.251 40.8236C481.163 43.5397 480.878 44.7156 481.274 46.547C482.06 46.5132 482.741 46.4061 483.611 46.408C487.293 46.0248 487.82 49.7365 484.665 49.9168C483.331 49.9074 482.401 49.7346 481.223 49.8003C481.585 54.2558 481.223 62.3854 481.161 66.5178C481.171 68.9466 481.219 70.16 481.306 70.16L483.45 70.0867C484.789 70.0585 488.756 69.5007 488.587 71.5612C488.589 72.168 488.321 72.6357 487.781 72.9625C486.622 73.8622 481.692 73.3307 480.282 73.4809C479.715 73.4809 479.205 73.2875 478.749 72.9005Z" fill="white"/>
<path d="M499.959 72.8146C498.423 73.9755 495.87 73.5622 495.861 71.3345C495.846 67.6923 495.977 62.8349 496.256 56.764C496.656 47.374 496.667 42.4527 496.172 35.6905C496.155 31.5713 496.903 29.5088 498.421 29.5013C499.261 29.4712 500.073 30.2789 500.051 31.1205C499.197 39.513 500.285 46.8217 499.563 55.2537L499.454 60.393C499.483 62.6245 498.455 70.1868 501.506 70.076C502.381 70.0083 503.182 69.9539 504.234 69.9351C508.083 69.5932 509.047 72.9611 505.742 73.5716C504.181 73.0569 502.253 72.8052 499.959 72.8146Z" fill="white"/>
<path d="M517.365 72.7433C515.829 73.9042 513.276 73.4909 513.267 71.2632C513.252 67.621 513.383 62.7636 513.663 56.6927C514.062 47.3027 514.073 42.3814 513.578 35.6192C513.561 31.5 514.312 29.4375 515.827 29.43C516.667 29.4 517.48 30.2077 517.457 31.0492C516.604 39.4417 517.692 46.7505 516.969 55.1825L516.861 60.3217C516.889 62.5532 515.861 70.1155 518.913 70.0047C519.787 69.937 520.588 69.8826 521.64 69.8638C525.489 69.5219 526.453 72.8898 523.148 73.5003C521.588 72.9875 519.659 72.7339 517.365 72.7433Z" fill="white"/>
<path d="M535.029 72.5748C529.477 67.8 529.901 56.4471 529.676 49.7338C529.807 46.0372 529.117 29.2277 534.463 28.6397C544.337 28.3523 546.848 39.4873 546.621 47.5192C546.646 49.8803 546.741 52.604 546.781 54.8693C546.779 68.5701 543.237 76.4574 535.029 72.5748ZM540.02 69.9545C544.1 64.4903 543.382 53.7892 542.785 46.8205C542.455 42.7143 542.354 40.8078 542.36 38.1706C542.249 35.2028 540.052 32.0095 536.944 32.079C532.366 32.3157 533.617 40.2499 533.483 43.6704C533.455 45.5131 533.236 47.7597 533.247 49.6549C533.365 53.2745 533.322 75.6591 540.02 69.9545Z" fill="white"/>
<path d="M528.296 271.15L494.768 270.155L461.239 271.15C461.239 271.15 454.574 292.84 455.325 305.038C456.03 316.511 466.555 300.222 471.336 304.788C478.278 311.419 486.67 321.367 494.753 321.367C494.758 321.367 494.764 321.367 494.769 321.367C494.775 321.367 494.781 321.367 494.786 321.367C502.867 321.367 511.261 311.421 518.203 304.788C522.982 300.222 533.509 316.511 534.214 305.038C534.961 292.84 528.296 271.15 528.296 271.15Z" fill="#A9D5F5"/>
<path d="M496.639 306.907C496.613 306.5 496.598 306.088 496.598 305.673C496.598 295.241 505.042 286.784 515.46 286.784C525.878 286.784 534.323 295.241 534.323 305.673C534.323 306.248 534.294 306.817 534.246 307.38C533.947 313.885 532.82 337.788 531.479 358.14C529.909 381.944 529.517 396.485 529.517 396.485C529.517 396.485 529.517 397.137 529.517 397.467C529.517 404.302 523.983 409.846 517.156 409.846C510.328 409.846 504.795 404.304 504.795 397.467C504.795 397.137 504.795 396.485 504.795 396.485C504.795 396.485 498.141 350.709 496.639 306.907Z" fill="#9E5959"/>
<path d="M516.814 283.989C516.814 283.989 535.024 283.405 535.461 310.102C535.898 336.799 533.566 367.435 533.422 379.25C533.276 391.067 533.174 398.365 532.839 403.322C532.255 411.928 524.535 420.828 511.57 414.263C505.742 410.908 502.682 404.488 501.371 395.006C500.06 385.524 495.785 325.274 494.864 311.706C493.943 298.139 499.625 283.842 516.814 283.989Z" fill="#A9D5F5"/>
<path d="M495.143 303.598C494.761 306.249 494.68 308.993 494.864 311.705C495.044 314.361 495.353 318.806 495.744 324.307C500.906 323.492 513.167 317.461 514.484 313.238C515.881 308.753 521.625 302.513 521.625 302.513L495.143 303.598Z" fill="#99CBF0"/>
<path d="M521.629 302.513L522.417 300.514C522.417 300.514 532.705 312.085 535.506 313.627L533.671 315.753L523.083 312.836L521.629 302.513Z" fill="#81C1F0"/>
<path d="M504.873 396.926C504.879 396.464 504.922 396.226 504.922 396.226C505.552 389.86 510.979 384.952 517.473 385.083C523.968 385.215 529.19 390.343 529.56 396.727C529.56 396.727 532.486 418.796 530.678 440.181C528.87 461.565 523.15 496.773 523.15 496.773C523.089 499.865 520.534 502.32 517.446 502.258C514.359 502.194 511.907 499.637 511.969 496.546C511.969 496.546 508.173 466.056 506.342 440.275C504.817 418.811 504.819 402.556 504.864 397.711C504.86 397.544 504.86 397.375 504.864 397.206C504.868 397.112 504.869 397.018 504.873 396.926Z" fill="#9E5959"/>
<path d="M510.68 504.66C511.367 500.379 511.913 496.688 511.913 496.688C511.877 493.597 514.351 491.059 517.438 491.023C520.526 490.988 523.06 493.465 523.096 496.557C523.096 496.557 523.895 502 525.416 506.257C526.937 510.513 532.831 518.384 532.568 521.04C532.306 523.696 527.616 525.552 516.244 524.779C511.984 524.49 505.981 524.079 505.953 521.573C505.923 519.067 509.996 508.943 510.68 504.66Z" fill="#9E5959"/>
<path d="M534.946 523.64C534.946 523.64 535.406 523.968 535.454 524.697C535.503 525.426 535.454 528.538 535.454 528.538C535.454 528.538 535.357 529.463 534.385 529.998C533.414 530.533 528.255 531.651 519.933 531.651C511.61 531.651 505.156 529.831 504.424 529.256C503.586 528.6 504.096 524.624 504.278 524.211C504.456 523.809 504.848 523.858 504.848 523.858L534.946 523.64Z" fill="#E5D4CF"/>
<path d="M526.352 484.047C526.352 484.047 525.2 495.084 526.352 501.649C527.627 508.92 535.897 518.28 534.948 523.641C534.948 523.641 531.596 528.018 520.67 528.018C509.744 528.018 504.85 523.861 504.85 523.861C504.85 523.861 504.717 520.688 506.465 515.327C508.213 509.966 510.179 503.511 510.398 501.213C510.618 498.916 509.853 484.049 509.853 484.049H526.352V484.047Z" fill="#386DF5"/>
<path d="M514.556 484.046C514.556 484.046 514.556 498.126 514.192 502.257C513.828 506.387 513.027 508.722 512.153 511.13C511.279 513.536 510.868 516.055 510.746 516.985L527.748 516.213C527.39 513.418 523.081 507.702 522.788 501.355C522.498 495.01 522.205 484.044 522.205 484.044H514.556V484.046Z" fill="#1A0F91"/>
<path d="M513.025 512.082C512.65 513.35 512.395 515.529 512.262 516.915L526.294 516.279C525.923 514.958 525.227 512.708 524.317 510.839C522.933 507.995 521.899 503.686 521.616 500.515C521.385 497.951 521.247 487.827 521.201 484.046H515.434C515.447 486.435 515.495 496.62 515.43 500.919C515.355 505.807 513.607 510.116 513.025 512.082Z" fill="#386DF5"/>
<path d="M511.558 513.266C511.451 513.266 511.352 513.195 511.322 513.086C511.284 512.955 511.361 512.819 511.493 512.782C518.992 510.682 526.587 512.761 526.662 512.782C526.793 512.817 526.868 512.955 526.832 513.084C526.797 513.216 526.658 513.291 526.531 513.255C526.455 513.234 518.988 511.193 511.626 513.255C511.601 513.263 511.579 513.266 511.558 513.266Z" fill="white"/>
<path d="M512.789 509.562C512.677 509.562 512.575 509.483 512.549 509.369C512.519 509.235 512.603 509.104 512.737 509.076C517.7 507.973 522.49 508.555 524.905 509C525.038 509.025 525.126 509.153 525.101 509.288C525.077 509.421 524.948 509.509 524.814 509.485C522.436 509.047 517.72 508.473 512.843 509.556C512.825 509.56 512.808 509.562 512.789 509.562Z" fill="white"/>
<path d="M513.711 505.979C513.595 505.979 513.491 505.897 513.469 505.777C513.445 505.643 513.533 505.516 513.666 505.491C517.519 504.789 521.178 505.048 523.57 505.388C523.705 505.407 523.797 505.532 523.778 505.666C523.759 505.799 523.634 505.893 523.5 505.874C521.144 505.54 517.541 505.284 513.752 505.974C513.741 505.978 513.726 505.979 513.711 505.979Z" fill="white"/>
<path d="M514.191 502.501C514.073 502.501 513.967 502.415 513.949 502.294C513.926 502.161 514.018 502.033 514.151 502.013C517.571 501.457 520.795 501.646 522.898 501.904C523.033 501.921 523.129 502.043 523.112 502.178C523.095 502.313 522.973 502.409 522.838 502.392C520.767 502.138 517.591 501.951 514.23 502.497C514.217 502.501 514.204 502.501 514.191 502.501Z" fill="white"/>
<path d="M514.362 499.129C514.237 499.129 514.132 499.035 514.118 498.907C514.105 498.772 514.203 498.652 514.338 498.639C516.968 498.376 519.781 498.353 522.706 498.571C522.841 498.58 522.942 498.699 522.932 498.834C522.923 498.969 522.805 499.071 522.67 499.061C519.776 498.845 516.988 498.868 514.389 499.127C514.379 499.129 514.37 499.129 514.362 499.129Z" fill="white"/>
<path d="M514.578 495.744C514.449 495.744 514.342 495.645 514.333 495.513C514.323 495.378 514.426 495.26 514.561 495.252C517.082 495.087 519.774 495.076 522.561 495.215C522.697 495.222 522.802 495.337 522.794 495.472C522.787 495.607 522.672 495.72 522.537 495.705C519.769 495.566 517.097 495.579 514.595 495.743C514.59 495.744 514.584 495.744 514.578 495.744Z" fill="white"/>
<path d="M514.555 492.348C514.427 492.348 514.319 492.249 514.309 492.119C514.3 491.984 514.403 491.866 514.538 491.858C517.01 491.697 519.674 491.682 522.456 491.819C522.591 491.826 522.696 491.941 522.69 492.076C522.682 492.211 522.574 492.322 522.433 492.311C519.668 492.176 517.023 492.189 514.572 492.35C514.566 492.348 514.561 492.348 514.555 492.348Z" fill="white"/>
<path d="M504.855 523.859C504.855 523.859 505.441 515.361 519.94 515.361C533.11 515.361 534.785 520.912 534.839 521.109C535.034 522.022 535.087 522.873 534.952 523.639C534.952 523.639 531.6 528.016 520.674 528.016C509.749 528.016 504.855 523.859 504.855 523.859Z" fill="white"/>
<path d="M516.957 378.521C516.957 378.521 531.269 377.937 533.195 393.985C534.943 408.548 535.511 426.37 534.317 438.625C533.353 448.503 528.027 479.181 527.59 487.35C527.59 487.35 514.625 489.1 508.651 487.35C508.651 487.35 501.949 403.028 501.804 396.318C501.66 389.607 505.74 379.25 516.957 378.521Z" fill="#A9D5F5"/>
<path d="M492.996 306.907C493.022 306.5 493.037 306.088 493.037 305.673C493.037 295.241 484.593 286.784 474.175 286.784C463.757 286.784 455.312 295.241 455.312 305.673C455.312 306.248 455.341 306.817 455.389 307.38C455.688 313.885 456.815 337.788 458.156 358.14C459.726 381.944 460.118 396.485 460.118 396.485C460.118 396.485 460.118 397.137 460.118 397.467C460.118 404.302 465.652 409.846 472.479 409.846C479.305 409.846 484.84 404.304 484.84 397.467C484.84 397.137 484.84 396.485 484.84 396.485C484.84 396.485 491.494 350.709 492.996 306.907Z" fill="#9E5959"/>
<path d="M472.822 283.989C472.822 283.989 454.613 283.405 454.176 310.102C453.739 336.799 456.07 367.435 456.214 379.25C456.361 391.067 456.462 398.365 456.798 403.322C457.381 411.928 465.102 420.828 478.067 414.263C483.895 410.908 486.954 404.488 488.265 395.006C489.576 385.524 493.851 325.274 494.772 311.706C495.695 298.139 490.013 283.842 472.822 283.989Z" fill="#A9D5F5"/>
<path d="M454.176 310.102C454.035 318.69 454.181 327.685 454.448 336.331C457.642 336.309 463.145 335.599 470.491 332.131C477.906 328.63 488.826 325.055 493.879 324.477C494.275 318.898 494.588 314.39 494.77 311.708C494.954 309.003 494.875 306.27 494.495 303.627L454.47 305.267C454.307 306.768 454.204 308.377 454.176 310.102Z" fill="#99CBF0"/>
<path d="M484.758 396.924C484.752 396.462 484.709 396.224 484.709 396.224C484.079 389.858 478.652 384.95 472.158 385.081C465.663 385.213 460.441 390.341 460.071 396.725C460.071 396.725 457.145 418.794 458.953 440.179C460.761 461.563 466.48 496.771 466.48 496.771C466.542 499.863 469.097 502.318 472.185 502.256C475.272 502.192 477.724 499.635 477.662 496.544C477.662 496.544 481.458 466.054 483.289 440.273C484.814 418.809 484.812 402.554 484.767 397.709C484.771 397.542 484.771 397.373 484.767 397.204C484.765 397.11 484.761 397.016 484.758 396.924Z" fill="#9E5959"/>
<path d="M478.951 504.658C478.265 500.378 477.719 496.687 477.719 496.687C477.754 493.595 475.28 491.057 472.193 491.021C469.105 490.986 466.571 493.463 466.536 496.555C466.536 496.555 465.737 501.999 464.215 506.255C462.694 510.511 456.801 518.382 457.063 521.038C457.326 523.694 462.015 525.55 473.388 524.778C477.648 524.488 483.65 524.077 483.678 521.571C483.708 519.065 479.638 508.941 478.951 504.658Z" fill="#9E5959"/>
<path d="M454.678 523.638C454.678 523.638 454.219 523.966 454.17 524.695C454.121 525.424 454.17 528.536 454.17 528.536C454.17 528.536 454.268 529.461 455.239 529.996C456.211 530.531 461.369 531.649 469.692 531.649C478.015 531.649 484.469 529.829 485.2 529.254C486.039 528.598 485.529 524.622 485.347 524.209C485.169 523.807 484.778 523.856 484.778 523.856L454.678 523.638Z" fill="#E5D4CF"/>
<path d="M463.27 484.043C463.27 484.043 464.422 495.081 463.27 501.646C461.994 508.917 453.724 518.277 454.673 523.638C454.673 523.638 458.025 528.014 468.951 528.014C479.878 528.014 484.771 523.857 484.771 523.857C484.771 523.857 484.903 520.685 483.156 515.324C481.408 509.963 479.442 503.507 479.223 501.21C479.004 498.913 479.769 484.045 479.769 484.045H463.27V484.043Z" fill="#386DF5"/>
<path d="M467.426 484.044C467.426 484.044 467.135 495.008 466.842 501.355C466.552 507.7 462.241 513.418 461.883 516.213L478.885 516.985C478.763 516.055 478.352 513.538 477.478 511.13C476.604 508.724 475.803 506.389 475.439 502.257C475.075 498.124 475.075 484.046 475.075 484.046H467.426V484.044Z" fill="#1A0F91"/>
<path d="M477.158 516.906C477.082 515.616 476.819 512.77 475.922 509.964C474.713 506.171 474.347 502.961 474.129 499.751C473.947 497.072 474.069 487.226 474.114 484.046H468.673C468.564 485.755 468.354 489.328 468.301 492.102C468.228 495.885 468.228 502.086 467.864 504.421C467.53 506.56 464.231 513.32 463.246 516.277L477.158 516.906Z" fill="#386DF5"/>
<path d="M478.072 513.263C478.05 513.263 478.027 513.26 478.006 513.254C470.644 511.191 463.177 513.233 463.102 513.254C462.97 513.292 462.835 513.215 462.798 513.083C462.762 512.952 462.837 512.816 462.969 512.781C463.044 512.76 470.64 510.679 478.138 512.781C478.269 512.816 478.344 512.953 478.308 513.085C478.278 513.192 478.179 513.263 478.072 513.263Z" fill="white"/>
<path d="M476.84 509.559C476.823 509.559 476.804 509.557 476.785 509.553C471.909 508.47 467.191 509.044 464.814 509.482C464.679 509.507 464.552 509.418 464.527 509.285C464.503 509.152 464.591 509.022 464.724 508.998C467.138 508.552 471.929 507.97 476.892 509.073C477.026 509.103 477.108 509.234 477.08 509.366C477.056 509.48 476.952 509.559 476.84 509.559Z" fill="white"/>
<path d="M475.921 505.977C475.906 505.977 475.891 505.975 475.876 505.973C472.089 505.284 468.486 505.538 466.128 505.874C465.993 505.893 465.869 505.799 465.85 505.665C465.831 505.532 465.925 505.406 466.058 505.387C468.45 505.047 472.111 504.788 475.964 505.491C476.097 505.515 476.185 505.643 476.161 505.776C476.142 505.894 476.037 505.977 475.921 505.977Z" fill="white"/>
<path d="M475.435 502.498C475.422 502.498 475.408 502.498 475.395 502.494C472.034 501.948 468.858 502.135 466.788 502.389C466.652 502.406 466.531 502.31 466.514 502.175C466.497 502.04 466.592 501.918 466.728 501.901C468.83 501.643 472.055 501.454 475.474 502.01C475.607 502.032 475.699 502.158 475.677 502.291C475.656 502.413 475.553 502.498 475.435 502.498Z" fill="white"/>
<path d="M475.276 499.126C475.269 499.126 475.259 499.126 475.252 499.124C472.65 498.865 469.865 498.842 466.97 499.058C466.837 499.07 466.717 498.966 466.708 498.831C466.698 498.696 466.8 498.577 466.935 498.568C469.857 498.35 472.673 498.373 475.302 498.636C475.437 498.649 475.537 498.769 475.522 498.904C475.507 499.032 475.4 499.126 475.276 499.126Z" fill="white"/>
<path d="M475.04 495.741C475.035 495.741 475.029 495.741 475.023 495.741C472.521 495.577 469.848 495.566 467.082 495.703C466.948 495.714 466.83 495.605 466.825 495.47C466.817 495.335 466.922 495.218 467.057 495.213C469.845 495.074 472.536 495.085 475.057 495.25C475.192 495.26 475.295 495.376 475.286 495.511C475.277 495.641 475.17 495.741 475.04 495.741Z" fill="white"/>
<path d="M475.081 492.346C475.075 492.346 475.07 492.346 475.064 492.346C472.61 492.184 469.966 492.171 467.203 492.306C467.066 492.317 466.951 492.208 466.946 492.073C466.938 491.938 467.043 491.822 467.18 491.816C469.964 491.679 472.627 491.694 475.098 491.855C475.233 491.865 475.336 491.981 475.326 492.116C475.317 492.246 475.208 492.346 475.081 492.346Z" fill="white"/>
<path d="M484.769 523.857C484.769 523.857 484.184 515.359 469.684 515.359C456.515 515.359 454.84 520.909 454.785 521.107C454.59 522.02 454.538 522.87 454.673 523.637C454.673 523.637 458.025 528.013 468.951 528.013C479.875 528.013 484.769 523.857 484.769 523.857Z" fill="white"/>
<path d="M472.676 378.521C472.676 378.521 458.364 377.937 456.437 393.985C454.689 408.548 454.121 426.37 455.316 438.625C456.28 448.503 461.605 479.181 462.042 487.35C462.042 487.35 475.007 489.1 480.981 487.35C480.981 487.35 487.684 403.028 487.828 396.318C487.972 389.609 483.893 379.25 472.676 378.521Z" fill="#A9D5F5"/>
<path d="M440.042 254.744C438.956 256.177 437.424 257.289 435.57 257.839C430.951 259.211 426.094 256.57 424.725 251.943C424.038 249.622 424.359 247.242 425.434 245.273L446.159 200.983C448.108 195.953 450.629 192.267 455.551 190.808C462.712 188.683 470.24 192.775 472.361 199.948C473.734 204.59 472.508 209.381 469.531 212.762L440.449 254.156C440.324 254.353 440.19 254.547 440.05 254.734L440.042 254.744Z" fill="#914D4D"/>
<path d="M466.629 190.985C466.629 190.985 458.496 188.096 452.693 191.4C446.889 194.704 442.301 204.917 440.333 209.22C438.368 213.524 434.579 222.13 432.176 225.341C429.773 228.551 420.012 246.654 423.581 254.087C427.151 261.52 433.039 259.946 436.212 258.873C439.386 257.801 445.968 252.693 449.669 248.099C453.37 243.504 461.66 232.007 465.436 226.984C470.028 220.876 486.152 199.374 466.629 190.985Z" fill="#1A0F91"/>
<path d="M459.654 234.817L449.904 208.093C449.904 208.093 449.131 218.522 449.433 225.014C449.655 229.788 449.805 241.821 449.87 247.855C452.189 244.951 456.109 239.635 459.654 234.817Z" fill="#09005D"/>
<path d="M439.072 211.991C437.009 216.525 434.132 222.726 432.173 225.34C431.646 226.045 430.767 227.463 429.75 229.328L442.987 246.566C444.159 240.931 443.473 232.121 442.589 225.414C441.548 217.524 439.853 213.503 439.072 211.991Z" fill="#09005D"/>
<path d="M441.212 245.117C441.212 245.117 442.189 239.256 438.48 228.837C431.974 210.549 430.364 203.682 430.364 203.682L429.106 193.381C429.106 190.31 426.457 187.74 423.392 187.74C420.327 187.74 417.84 190.229 417.84 193.3C417.84 193.55 417.859 193.796 417.89 194.038C418.324 200.387 420.74 233.666 422.715 249.852C423.195 254.744 427.312 258.564 432.322 258.564C437.655 258.564 441.977 254.234 441.977 248.896C441.977 247.555 441.703 246.278 441.212 245.117Z" fill="#9E5959"/>
<path d="M427.91 165.308C428.272 172.142 428.191 182.007 428.908 182.244C429.624 182.481 430.181 180.955 430.81 179.466C431.438 177.976 433.377 174.27 434.212 174.135C435.082 173.994 436.197 174.377 435.291 178.147C434.387 181.917 433.766 185.796 432.706 189.622C431.646 193.448 428.893 201.076 428.893 201.076C428.566 203.757 426.133 205.665 423.457 205.338C420.78 205.012 418.874 202.575 419.201 199.895C418.614 198.907 417.541 197.609 416.447 195.761C415.353 193.912 413.436 188.767 412.163 186.374C410.889 183.981 408.181 180.518 405.813 177.916C403.446 175.315 402.925 172.863 403.758 172.144C404.59 171.424 407.344 174.52 408.616 176.318C409.888 178.113 413.239 181.806 413.823 180.683C414.406 179.56 410.175 170.837 409.464 169.332C408.753 167.827 406.931 163.8 408.361 163.079C409.79 162.358 411.773 165.658 412.634 167.779C413.495 169.897 416.661 178.79 418.19 177.856C419.718 176.922 417.811 171.766 416.946 167.856C416.079 163.945 414.77 159.382 416.034 158.791C417.299 158.199 418.874 163.017 420.08 167.192C421.286 171.368 423.095 176.736 424.055 176.182C425.017 175.628 424.633 165.284 424.82 163.74C425.008 162.196 424.95 158.383 425.829 158.49C426.713 158.595 427.548 158.473 427.91 165.308Z" fill="#9E5959"/>
<path d="M428.483 180.237C428.483 180.237 427.009 183.203 424.882 186.28C422.755 189.356 423.559 193.059 423.559 193.059C423.323 189.758 425.071 186.61 426.726 185.143C428.38 183.676 428.911 182.245 428.911 182.245C428.72 182.181 428.585 181.431 428.483 180.237Z" fill="#914D4D"/>
<path d="M417.826 213.814C417.826 213.814 417.609 218.118 417.172 219.431C416.735 220.744 416.44 224.536 417.826 237.084C419.213 249.631 421.835 261.957 432.832 259.915C443.832 257.873 443.322 247.077 442.738 241.898C442.155 236.719 440.189 228.55 439.606 225.013C439.022 221.474 437.661 216.647 434.774 214.466C434.774 214.464 421.902 212.794 417.826 213.814Z" fill="#1A0F91"/>
<path d="M418.765 206.09C418.765 206.09 427.95 205.576 430.507 204.261C431.387 203.821 432.552 205.354 433.645 207.542C434.739 209.731 436.085 213.67 435.63 214.107C435.174 214.545 424.758 217.682 416.309 216.514C415.606 216.638 416.15 214.089 416.529 211.481C416.932 208.688 417.247 205.829 418.765 206.09Z" fill="#1A0F91"/>
<path d="M418.934 215.375C418.81 215.375 418.705 215.283 418.69 215.158C418.03 209.504 419.69 207.334 419.761 207.244C419.845 207.137 419.999 207.12 420.106 207.205C420.213 207.289 420.23 207.443 420.147 207.55C420.127 207.578 418.547 209.688 419.18 215.101C419.195 215.236 419.099 215.359 418.964 215.374C418.953 215.374 418.943 215.375 418.934 215.375Z" fill="#1A0F91"/>
<path d="M423.41 215.376C423.282 215.376 423.175 215.278 423.164 215.148L422.571 207.417C422.56 207.282 422.661 207.163 422.798 207.152C422.933 207.139 423.051 207.242 423.063 207.379L423.655 215.111C423.667 215.246 423.565 215.364 423.428 215.376C423.423 215.374 423.415 215.376 423.41 215.376Z" fill="#1A0F91"/>
<path d="M427.964 214.428C427.855 214.428 427.754 214.355 427.726 214.244C427.15 212.007 425.932 207.071 425.921 207.02C425.889 206.889 425.97 206.755 426.101 206.721C426.232 206.689 426.366 206.77 426.399 206.902C426.411 206.951 427.628 211.887 428.202 214.12C428.236 214.252 428.157 214.387 428.026 214.421C428.005 214.425 427.984 214.428 427.964 214.428Z" fill="#1A0F91"/>
<path d="M432.772 213.507C432.659 213.507 432.558 213.43 432.532 213.315C431.395 208.366 429.731 206.258 429.714 206.237C429.63 206.132 429.645 205.976 429.752 205.892C429.857 205.805 430.013 205.822 430.097 205.927C430.168 206.016 431.845 208.129 433.01 213.204C433.04 213.336 432.958 213.469 432.826 213.499C432.809 213.505 432.791 213.507 432.772 213.507Z" fill="#1A0F91"/>
<path d="M543.412 256.784C544.318 258.336 545.708 259.624 547.482 260.393C551.905 262.307 557.043 260.269 558.954 255.84C559.913 253.617 559.879 251.215 559.048 249.132L543.768 202.674C543.337 197.89 540.373 193.485 535.661 191.445C528.805 188.477 520.843 191.637 517.879 198.504C515.962 202.947 516.605 207.853 519.156 211.566L543.08 256.151C543.181 256.362 543.29 256.57 543.406 256.773L543.412 256.784Z" fill="#914D4D"/>
<path d="M532.06 188.689C532.06 188.689 539.544 188.87 544.206 199.374C548.867 209.877 551.926 225.34 555.278 232.78C558.628 240.221 563.873 254.87 560.523 261.112C557.173 267.354 543.639 262.956 539.552 256.621C535.465 250.285 529.537 237.882 522.815 229.277C516.09 220.671 513.093 201.243 516.274 195.1C519.684 188.517 524.283 187.925 532.06 188.689Z" fill="#1A0F91"/>
<path d="M537.652 246.046C537.652 246.046 539.102 241.971 539.025 235.991C538.946 230.01 538.294 209.673 538.294 209.673L518.707 221.708C519.846 224.623 521.224 227.253 522.807 229.281C529.532 237.888 535.459 250.289 539.545 256.625C540.385 257.926 541.625 259.147 543.092 260.21L544.367 260.141L543.879 243.542C540.505 243.502 537.652 246.046 537.652 246.046Z" fill="#09005D"/>
<path d="M527.098 254.087C529.636 246.24 531.337 228.949 531.337 228.949C531.337 228.949 524.168 225.012 494.811 225.012C494.794 225.012 494.777 225.012 494.761 225.012C494.744 225.012 494.727 225.012 494.71 225.012C465.353 225.012 458.184 228.949 458.184 228.949C458.184 228.949 459.885 246.24 462.423 254.087C464.961 261.935 461.659 267.691 460.887 272.995C460.114 278.3 474.369 283.478 494.676 283.148C494.676 283.148 494.704 283.148 494.759 283.148C494.813 283.148 494.841 283.148 494.841 283.148C515.148 283.48 529.404 278.302 528.631 272.995C527.862 267.691 524.559 261.935 527.098 254.087Z" fill="#9E5959"/>
<path d="M477.374 185.557C470.542 188.677 457.397 189.979 455.411 190.862C453.424 191.746 446.25 200.145 459.273 231.643C465.444 247.226 483.093 244.763 490.78 243.653C493.614 243.244 496.489 243.247 499.324 243.659C518.46 246.437 524.479 243.139 530.116 231.641C543.139 200.143 535.964 191.743 533.978 190.86C531.992 189.975 518.734 188.91 512.015 185.555C503.458 181.282 494.687 181.969 494.687 181.969C494.687 181.969 485.314 181.932 477.374 185.557Z" fill="#9E5959"/>
<path d="M484.922 181.057C485.072 179.119 485.288 175.813 485.331 172.497C485.396 167.343 486.964 165.208 486.964 165.208C488.332 162.095 491.438 159.92 495.051 159.92C498.664 159.92 501.77 162.095 503.135 165.208C503.137 165.208 504.705 167.345 504.771 172.497C504.812 175.813 505.03 179.119 505.18 181.057C505.275 181.619 505.324 182.197 505.324 182.785C505.324 188.467 500.725 193.073 495.051 193.073C489.377 193.073 484.777 188.467 484.777 182.785C484.776 182.196 484.826 181.619 484.922 181.057Z" fill="#9E5959"/>
<path d="M495.05 183.426C495.05 183.426 490.013 183.392 485.078 178.799C485.193 176.985 485.301 174.742 485.329 172.497C485.395 167.343 486.963 165.208 486.963 165.208C488.331 162.095 491.437 159.92 495.05 159.92C498.662 159.92 501.768 162.095 503.134 165.208C503.136 165.208 504.704 167.345 504.77 172.497C504.8 174.84 504.916 177.177 505.036 179.03C500.088 184.006 495.05 183.426 495.05 183.426Z" fill="#914D4D"/>
<path d="M480.971 183.133C480.971 183.133 478.909 184.234 474.317 186.196C469.728 188.159 462.615 188.98 462.615 188.98C462.615 188.98 453.874 188.546 452.272 193.378C450.67 198.209 450.861 207.505 453.656 219.434C456.451 231.364 457.88 238.691 459.265 248.1C460.649 257.509 458.186 276.693 458.186 276.693C458.186 276.693 481.481 283.162 530.284 276.693C530.284 276.693 526.861 262.541 527.735 256.416C528.609 250.288 530.43 240.295 531.886 233.293C533.343 226.29 538.631 209.879 538.209 200.906C537.787 191.935 535.574 191.131 533.27 189.818C530.967 188.505 517.626 187.609 513.957 185.761C510.289 183.912 510.289 183.911 510.289 183.911L505.457 183.131C505.457 183.131 504.063 188.467 495.193 188.467C486.322 188.467 484.773 182.631 484.773 182.631L480.971 183.133Z" fill="#09005D"/>
<path d="M495.588 188.888C500.347 188.834 501.476 201.49 501.476 201.49C501.476 201.49 510.875 195.876 510.29 183.912L505.458 183.133C505.458 183.133 504.064 188.469 495.194 188.469C486.324 188.469 484.774 182.633 484.774 182.633L480.97 183.131C480.97 183.131 480.689 183.281 480.105 183.569C480.216 184.84 481.39 195.757 489.237 201.488C489.238 201.49 490.829 188.943 495.588 188.888Z" fill="#09005D"/>
<path d="M498.152 188.247C497.272 188.39 496.291 188.472 495.194 188.472C494.415 188.472 493.693 188.427 493.023 188.345C493.517 189.342 493.973 190.698 495.685 190.698C497.36 190.695 497.713 189.316 498.152 188.247Z" fill="#09005D"/>
<path d="M495.687 204.253C495.552 204.253 495.441 204.143 495.441 204.007V190.695C495.441 190.56 495.552 190.449 495.687 190.449C495.822 190.449 495.933 190.56 495.933 190.695V204.007C495.933 204.143 495.822 204.253 495.687 204.253Z" fill="#09005D"/>
<path d="M453.734 318.635C453.734 318.635 453.37 325.856 452.059 330.452C452.059 330.452 462.621 330.526 470.561 327.9C478.501 325.274 489.301 322.648 494.1 322.283C498.896 321.919 509.169 320.313 513.429 311.415L453.734 318.635Z" fill="#09005D"/>
<path d="M469.394 321.367C474.929 321.626 500.665 321.512 507.32 316.177C508.869 314.936 509.653 313.424 509.948 311.834L453.734 318.636C453.734 318.636 453.37 325.856 452.059 330.453C452.059 330.453 454.499 326.514 455.172 324.69C455.846 322.866 463.859 321.11 469.394 321.367Z" fill="#09005D"/>
<path d="M452.862 314.479C452.862 314.479 452.425 319.512 452.862 320.607C453.299 321.7 456.723 320.753 460.219 320.242C463.715 319.731 469.543 319.294 479.085 319.878C488.627 320.462 503.196 318.856 508.585 315.501C513.976 312.147 518.671 304.674 522.81 301.515C526.952 298.354 532.885 293.036 534.32 292.379C535.753 291.723 535.899 290.19 534.843 285.34C534.843 285.34 525.849 286.751 512.882 299.454C499.915 312.158 472.019 310.409 468.851 310.567C465.683 310.723 457.523 311.452 452.862 314.479Z" fill="#09005D"/>
<path d="M535.362 288.016C535.248 287.259 535.077 286.374 534.85 285.337C534.85 285.337 525.856 286.748 512.889 299.451C499.922 312.155 472.026 310.406 468.858 310.564C465.69 310.722 457.532 311.45 452.869 314.477C452.869 314.477 452.82 315.046 452.77 315.844C453.938 315.917 456.257 315.983 457.286 315.45C457.286 315.45 459.472 315.75 460.151 314.871C460.151 314.871 463.064 314.818 463.938 314.283C463.938 314.283 476.758 314.972 480.108 314.871C483.459 314.77 485.134 313.943 485.134 313.943C485.134 313.943 488.364 314.283 489.382 313.676C489.382 313.676 491.736 314.12 492.865 313.412C492.865 313.412 500.066 314.493 505.262 311.836C510.458 309.178 513.204 306.552 513.433 304.899C513.433 304.899 515.751 304.371 515.944 303.225C515.944 303.225 517.06 302.03 517.207 301.009C517.207 301.009 520.343 297.167 522.611 295.368C524.276 294.049 531.575 290.058 535.362 288.016Z" fill="#09005D"/>
<path d="M523.512 290.691C522.934 293.071 521.793 298.542 522.626 301.657C522.688 301.608 522.75 301.559 522.812 301.512C526.954 298.351 532.887 293.033 534.322 292.376C535.755 291.72 535.901 290.187 534.845 285.337C534.845 285.337 530.506 286.019 523.512 290.691Z" fill="#09005D"/>
<path d="M474.164 186.77C474.164 186.77 470.865 186.76 469.603 186.77C468.34 186.779 461.347 188.141 458.142 188.774C454.936 189.407 451.537 191.109 450.275 195.485C449.013 199.862 449.853 212.505 451.642 222.572C453.432 232.638 456.202 249.122 455.253 259.626C454.306 270.13 451.828 284.573 450.663 293.764C449.498 302.954 448.478 315.209 452.848 314.478C452.848 314.478 455.726 315.342 456.6 314.51C456.6 314.51 458.785 314.662 459.44 313.676C459.44 313.676 462.717 313.896 463.591 313.239C463.591 313.239 481.838 314.223 485.115 313.019C485.115 313.019 488.065 313.456 489.157 312.581C489.157 312.581 491.873 313.156 492.755 312.705C492.755 312.705 501.066 312.91 505.217 310.393C509.368 307.876 512.538 305.579 512.865 304.157C512.865 304.157 514.873 303.39 515.125 302.188C515.125 302.188 516.363 301.095 516.744 300C516.744 300 521.604 294.857 523.243 293.764C524.882 292.67 528.274 289.887 529.746 288.653C531.219 287.418 533.623 285.339 534.824 285.339C534.824 285.339 535.512 283.48 535.495 281.62C535.479 279.76 533.402 278.556 533.402 278.556C533.402 278.556 534.207 274.631 531.326 273.304C531.326 273.304 532.091 271.824 531.763 270.158C531.434 268.49 529.686 267.177 529.577 266.193C529.577 266.193 530.996 265.427 531.326 264.333C531.654 263.24 530.889 259.19 530.671 258.206C530.671 258.206 532.091 256.784 532.31 253.612C532.53 250.439 533.293 243.656 534.824 236.817C536.354 229.978 539.343 207.439 538.975 200.326C538.607 193.213 536.681 190.151 534.496 189.276C532.31 188.4 519.651 186.997 514.947 186.768C514.947 186.768 510.295 197.809 495.081 197.809C479.867 197.809 474.164 186.77 474.164 186.77Z" fill="#1A0F91"/>
<path d="M533.413 278.555C533.413 278.555 534.218 274.629 531.337 273.303C531.337 273.303 532.102 271.823 531.774 270.156C531.575 269.146 530.855 268.267 530.294 267.51C528.904 269.294 526.421 272.578 524.701 275.382C522.195 279.467 522.778 287.783 523.798 289.534C523.798 289.534 523.226 291.568 522.793 294.106C522.964 293.968 523.119 293.852 523.253 293.764C524.892 292.671 528.283 289.887 529.756 288.653C531.228 287.419 533.633 285.339 534.833 285.339C534.833 285.339 535.522 283.48 535.505 281.62C535.49 279.757 533.413 278.555 533.413 278.555Z" fill="#09005D"/>
<path d="M533.414 278.553C532.943 278.81 531.907 279.524 531.455 279.762C530.562 280.142 530.461 279.924 531.215 279.332C531.862 279.015 532.796 278.579 533.414 278.553Z" fill="#D6A396"/>
<path d="M527.738 257.558C528.678 257.581 530.104 257.389 530.687 258.203C529.7 258.317 528.56 257.801 527.738 257.558Z" fill="#09005D"/>
<path d="M529.581 266.214C528.812 265.981 527.542 265.975 527.234 265.149C527.72 265.113 528.088 265.28 528.467 265.538C528.75 265.692 529.318 266.007 529.598 266.169C529.62 266.18 529.607 266.22 529.581 266.214Z" fill="#09005D"/>
<path d="M531.335 273.303C530.251 273.16 529.414 273.919 528.418 274.161C528.645 273.115 530.626 272.85 531.335 273.303Z" fill="#09005D"/>
<path d="M494.51 202.584C513.391 202.584 519.842 191.753 521.69 187.33C519.011 187.052 516.531 186.843 514.95 186.766C514.95 186.766 510.298 197.807 495.084 197.807C479.87 197.807 474.16 186.77 474.16 186.77C474.16 186.77 470.861 186.76 469.599 186.77C469.193 186.774 468.196 186.916 466.922 187.129C468.068 190.297 473.843 202.584 494.51 202.584Z" fill="#09005D"/>
<path d="M453.754 310.094C454.339 311.797 455.431 313.172 456.607 314.508C454.906 314.179 453.943 311.566 453.754 310.094Z" fill="#09005D"/>
<path d="M457.034 303.901C457.092 307.31 457.961 310.642 459.45 313.674C457.045 311.23 456.824 307.011 457.034 303.901Z" fill="#09005D"/>
<path d="M461.422 307.748C461.769 309.733 462.75 311.469 463.6 313.239C461.913 312.134 461.469 309.493 461.422 307.748Z" fill="#09005D"/>
<path d="M483.312 308.773C484.13 309.981 485.406 311.553 485.113 313.019C484.382 311.698 483.892 310.034 483.312 308.773Z" fill="#09005D"/>
<path d="M493.044 308.429C492.731 309.847 493.061 311.293 492.751 312.702C492.029 311.594 492.547 309.496 493.044 308.429Z" fill="#09005D"/>
<path d="M488.781 304.481C489.006 307.109 489.832 310.088 489.158 312.581C488.798 309.989 488.783 306.967 488.781 304.481Z" fill="#09005D"/>
<path d="M509.168 298.858C510.149 300.804 511.513 302.493 512.859 304.157C510.843 303.321 509.808 300.662 509.168 298.858Z" fill="#09005D"/>
<path d="M516.748 299.998C516.658 298.575 516.174 297.166 515.906 295.774C517.065 296.531 516.934 298.854 516.748 299.998Z" fill="#09005D"/>
<path d="M511.715 295.353C513.071 297.399 515.101 299.726 515.121 302.187C514.08 299.946 512.816 297.41 511.715 295.353Z" fill="#09005D"/>
<path d="M476.017 186.175C476.017 186.175 475.578 185.519 474.704 185.482C473.83 185.446 469.824 185.993 469.278 186.43C468.732 186.868 470.662 189.896 472.446 192.193C474.23 194.49 479.585 201.275 496.155 201.275C512.725 201.275 520.375 187.927 520.448 186.979C520.521 186.03 515.096 185.003 513.965 185.763C512.485 186.757 508.464 195.732 495.463 195.732C482.46 195.73 477.255 187.925 476.017 186.175Z" fill="#1A0F91"/>
<path d="M471.949 189.555C471.874 189.555 471.801 189.522 471.754 189.458C471.671 189.349 471.692 189.195 471.801 189.112C471.898 189.037 474.211 187.288 475.841 187.499C475.976 187.515 476.07 187.639 476.053 187.775C476.036 187.91 475.912 188.004 475.777 187.987C474.344 187.801 472.119 189.486 472.097 189.503C472.054 189.538 472.001 189.555 471.949 189.555Z" fill="#1A0F91"/>
<path d="M474.565 193.321C474.488 193.321 474.413 193.285 474.367 193.219C474.288 193.108 474.312 192.954 474.421 192.875C474.533 192.793 477.197 190.866 478.187 190.467C478.313 190.417 478.458 190.479 478.508 190.605C478.559 190.73 478.497 190.873 478.371 190.926C477.435 191.301 474.736 193.257 474.71 193.276C474.667 193.306 474.616 193.321 474.565 193.321Z" fill="#1A0F91"/>
<path d="M478.284 196.264C478.224 196.264 478.165 196.244 478.119 196.201C478.019 196.108 478.012 195.953 478.104 195.853L480.799 192.908C480.891 192.808 481.047 192.801 481.146 192.893C481.245 192.985 481.253 193.141 481.161 193.24L478.466 196.185C478.415 196.238 478.349 196.264 478.284 196.264Z" fill="#1A0F91"/>
<path d="M482.585 198.235C482.547 198.235 482.51 198.226 482.474 198.209C482.352 198.147 482.305 197.999 482.367 197.878L484.115 194.437C484.177 194.317 484.325 194.268 484.445 194.33C484.567 194.392 484.614 194.541 484.552 194.661L482.804 198.102C482.759 198.186 482.673 198.235 482.585 198.235Z" fill="#1A0F91"/>
<path d="M487.023 199.622C487.003 199.622 486.982 199.62 486.961 199.614C486.83 199.58 486.751 199.447 486.785 199.314L487.738 195.595C487.772 195.463 487.905 195.384 488.038 195.418C488.169 195.452 488.248 195.585 488.214 195.719L487.262 199.438C487.233 199.547 487.132 199.622 487.023 199.622Z" fill="#1A0F91"/>
<path d="M491.543 200.131C491.533 200.131 491.522 200.131 491.513 200.129C491.378 200.112 491.282 199.99 491.299 199.855L491.736 196.237C491.753 196.102 491.875 196.006 492.01 196.023C492.145 196.04 492.24 196.162 492.224 196.297L491.786 199.915C491.771 200.041 491.666 200.131 491.543 200.131Z" fill="#1A0F91"/>
<path d="M495.699 200.496C495.564 200.496 495.453 200.386 495.453 200.25V196.602C495.453 196.467 495.564 196.356 495.699 196.356C495.834 196.356 495.945 196.467 495.945 196.602V200.25C495.945 200.386 495.834 200.496 495.699 200.496Z" fill="#1A0F91"/>
<path d="M500.212 200.132C500.109 200.132 500.011 200.066 499.977 199.961L498.813 196.343C498.771 196.214 498.842 196.075 498.97 196.033C499.099 195.99 499.238 196.063 499.28 196.191L500.444 199.809C500.486 199.939 500.414 200.078 500.287 200.119C500.262 200.126 500.238 200.132 500.212 200.132Z" fill="#1A0F91"/>
<path d="M504.141 199.036C504.056 199.036 503.974 198.993 503.929 198.914L502.107 195.777C502.04 195.659 502.079 195.509 502.195 195.441C502.314 195.374 502.464 195.413 502.531 195.53L504.352 198.666C504.42 198.785 504.381 198.935 504.264 199.003C504.225 199.025 504.184 199.036 504.141 199.036Z" fill="#1A0F91"/>
<path d="M507.936 197.76C507.842 197.76 507.754 197.707 507.712 197.617C507.084 196.253 505.527 194.737 505.512 194.722C505.415 194.629 505.413 194.473 505.506 194.375C505.6 194.277 505.756 194.275 505.853 194.369C505.921 194.433 507.493 195.964 508.159 197.41C508.215 197.534 508.163 197.681 508.039 197.737C508.005 197.754 507.969 197.76 507.936 197.76Z" fill="#1A0F91"/>
<path d="M510.774 195.9C510.688 195.9 510.605 195.855 510.56 195.775C509.937 194.668 508.21 192.852 508.193 192.833C508.099 192.735 508.103 192.58 508.201 192.486C508.298 192.392 508.454 192.395 508.548 192.493C508.621 192.57 510.335 194.373 510.988 195.532C511.055 195.651 511.012 195.801 510.894 195.869C510.857 195.891 510.815 195.9 510.774 195.9Z" fill="#1A0F91"/>
<path d="M514.049 193.319C513.963 193.319 513.88 193.274 513.835 193.193C513.203 192.072 510.973 190.924 510.95 190.911C510.83 190.849 510.781 190.701 510.843 190.581C510.905 190.459 511.053 190.412 511.173 190.474C511.271 190.522 513.557 191.7 514.263 192.951C514.33 193.069 514.287 193.22 514.169 193.287C514.131 193.31 514.088 193.319 514.049 193.319Z" fill="#1A0F91"/>
<path d="M516.769 190.067C516.693 190.067 516.62 190.033 516.572 189.969C515.641 188.737 513.1 188.391 513.073 188.387C512.938 188.37 512.844 188.246 512.861 188.111C512.878 187.976 513.002 187.882 513.137 187.899C513.25 187.914 515.909 188.278 516.962 189.672C517.044 189.781 517.022 189.935 516.915 190.018C516.872 190.05 516.819 190.067 516.769 190.067Z" fill="#1A0F91"/>
<path d="M510.262 183.447C508.367 180.92 505.128 180.251 505.128 180.251L505.223 181.933C505.223 181.933 501.159 188.142 495.102 188.142C489.047 188.142 484.819 181.933 484.819 181.933L484.988 180.27C484.988 180.27 481.782 180.796 480.105 183.448C480.105 183.448 480.434 190.941 488.993 197.991C488.993 197.991 489.702 188.873 495.102 188.873C501.716 188.873 502.922 197.991 502.922 197.991C502.922 197.991 506.805 194.161 509.024 189.131C510.644 185.453 510.262 183.447 510.262 183.447Z" fill="#09005D"/>
<path d="M542.632 250.183C542.63 250.183 539.414 255.391 536.485 265.471C532.64 278.704 523.222 311.211 523.222 311.211C522.969 311.782 522.823 312.411 522.809 313.074C522.759 315.728 524.865 317.92 527.516 317.971C529.69 318.012 531.552 316.602 532.181 314.628C532.181 314.628 544.418 290.66 549.593 279.001C553.877 269.349 558.323 257.523 558.323 257.523C559.146 256.22 559.636 254.681 559.668 253.025C559.76 248.199 555.929 244.213 551.111 244.119C547.162 244.046 543.78 246.604 542.632 250.183Z" fill="#9E5959"/>
<path d="M527.545 290.47C527.545 290.47 531.846 304.716 536.929 305.217C536.929 305.217 540.958 300.382 543.727 299.237C546.495 298.091 547.694 297.843 549.005 292.591C550.316 287.339 553.375 276.398 555.707 272.314C558.038 268.229 561.03 263.707 561.501 257.58C561.972 251.453 559.203 243.284 552.066 242.553C544.927 241.824 538.173 244.856 536.67 251.8C535.168 258.746 534.232 267.047 531.859 270.847C529.486 274.647 528.936 275.376 527.738 278.548C526.438 281.988 525.159 287.63 527.545 290.47Z" fill="#1A0F91"/>
<path d="M536.211 306.784C536.211 306.784 528.421 301.88 525.577 301.472C524.606 301.32 524.54 299.396 524.915 296.977C525.288 294.56 526.465 290.566 527.089 290.472C527.714 290.378 537.82 293.534 544.038 299.381C544.622 300.3 542.967 301.776 541.152 303.683C539.206 305.727 537.297 307.875 536.211 306.784Z" fill="#1A0F91"/>
<path d="M535.996 305.278C535.889 305.278 535.792 305.208 535.76 305.101C535.722 304.971 535.797 304.834 535.927 304.797C535.962 304.786 538.468 303.978 541.079 299.199C541.145 299.081 541.295 299.036 541.413 299.102C541.533 299.167 541.576 299.316 541.511 299.436C538.782 304.429 536.174 305.236 536.064 305.268C536.043 305.274 536.019 305.278 535.996 305.278Z" fill="#1A0F91"/>
<path d="M533.655 303.617C533.612 303.617 533.569 303.605 533.529 303.581C533.413 303.512 533.376 303.359 533.445 303.243L537.429 296.594C537.498 296.477 537.65 296.439 537.767 296.509C537.883 296.578 537.92 296.731 537.851 296.847L533.867 303.497C533.82 303.574 533.739 303.617 533.655 303.617Z" fill="#1A0F91"/>
<path d="M530.671 302.039C530.641 302.039 530.611 302.033 530.581 302.022C530.456 301.971 530.394 301.828 530.442 301.702C530.461 301.655 532.322 296.926 533.143 294.769C533.192 294.641 533.335 294.58 533.46 294.626C533.588 294.675 533.65 294.818 533.603 294.944C532.781 297.102 530.919 301.834 530.9 301.881C530.863 301.978 530.769 302.039 530.671 302.039Z" fill="#1A0F91"/>
<path d="M527.118 300.58C526.989 300.58 526.882 300.481 526.872 300.349C526.865 300.236 526.718 297.541 528.701 292.727C528.754 292.601 528.896 292.541 529.022 292.593C529.148 292.646 529.208 292.789 529.155 292.914C527.221 297.609 527.362 300.293 527.362 300.319C527.369 300.454 527.268 300.571 527.131 300.58C527.129 300.58 527.124 300.58 527.118 300.58Z" fill="#1A0F91"/>
<path d="M535.506 313.625C527.997 311.379 521.629 302.511 521.629 302.511V321.366H535.5C535.521 318.772 535.524 316.185 535.506 313.625Z" fill="#A9D5F5"/>
<path d="M495.05 124.77C495.05 124.77 516.812 124.749 513.455 153.284C510.033 182.35 495.05 180.582 495.05 180.582C495.05 180.582 478.632 180.471 476.315 152.731C473.999 124.992 490.524 124.77 495.05 124.77Z" fill="#9E5959"/>
<path d="M494.648 170.298C491.538 170.298 489.528 169.738 489.402 169.703C489.216 169.65 489.109 169.457 489.162 169.271C489.214 169.085 489.408 168.976 489.593 169.03C489.638 169.043 494.138 170.287 500.052 169.025C500.24 168.983 500.427 169.105 500.467 169.295C500.506 169.485 500.386 169.671 500.197 169.71C498.13 170.152 496.245 170.298 494.648 170.298Z" fill="#723333"/>
<path d="M513.61 151.925C513.61 151.925 515.831 150.322 516.223 152.689C516.615 155.054 514.449 162.098 511.496 162.053L512.627 152.689L513.61 151.925Z" fill="#9E5959"/>
<path d="M515.182 155.758C515.161 155.594 515.013 155.478 514.85 155.497C514.505 155.538 514.227 155.647 514.006 155.788C514.163 155.234 514.383 154.702 514.694 154.291C514.794 154.159 514.767 153.971 514.636 153.872C514.505 153.772 514.317 153.799 514.218 153.93C512.963 155.589 513.021 158.773 513.025 158.906C513.029 159.067 513.162 159.197 513.323 159.197C513.494 159.193 513.625 159.056 513.621 158.891C513.621 158.876 513.606 158.048 513.747 157.046C513.784 156.922 514.038 156.195 514.921 156.088C515.084 156.07 515.201 155.921 515.182 155.758Z" fill="#723333"/>
<path d="M476.491 152.024C476.491 152.024 474.132 150.322 473.74 152.687C473.347 155.052 475.041 162.095 478.061 162.05L476.491 152.024Z" fill="#9E5959"/>
<path d="M475.756 153.929C475.656 153.798 475.469 153.771 475.337 153.871C475.206 153.971 475.18 154.158 475.279 154.29C475.59 154.701 475.81 155.233 475.968 155.787C475.744 155.648 475.469 155.539 475.123 155.496C474.96 155.477 474.812 155.592 474.791 155.757C474.771 155.92 474.887 156.069 475.052 156.089C475.934 156.196 476.189 156.921 476.226 157.047C476.367 158.048 476.352 158.877 476.352 158.892C476.348 159.057 476.478 159.192 476.643 159.196C476.812 159.196 476.943 159.067 476.947 158.905C476.952 158.772 477.012 155.588 475.756 153.929Z" fill="#723333"/>
<path d="M474.638 151.464C474.638 151.464 476.215 152.015 476.958 153.81C477.701 155.608 478.575 156.087 478.721 155.796C478.868 155.505 477.119 145.468 480.252 138.83C480.252 138.83 484.403 133.141 494.455 133.141C504.507 133.141 509.679 140.047 510.335 144.217C510.992 148.385 510.992 155.354 511.209 155.518C511.427 155.681 512.46 152.74 513.599 152.011C514.546 151.406 515.178 151.464 515.178 151.464C515.178 151.464 515.506 139.05 512.23 134.018C508.953 128.986 502.033 123.952 494.821 123.952C487.609 123.952 479.517 128.912 475.878 135.111C474.638 137.591 473.801 142.829 474.638 151.464Z" fill="#142347"/>
<path d="M478.355 129.494C478.355 129.494 475.66 131.974 475.442 133.798C475.223 135.621 477.264 136.57 477.264 136.57C477.264 136.57 478.211 138.832 480.25 138.832C480.25 138.832 482.176 140.571 484.782 139.737C484.782 139.737 487.766 142.04 490.782 140.582C490.782 140.582 492.48 141.675 494.956 140.656C494.956 140.656 498.593 141.311 499.945 140C499.945 140 502.32 140.791 503.631 139.739C503.631 139.739 506.88 140.845 508.168 139.512C508.168 139.512 510.958 139.765 511.496 138.323C511.496 138.323 513.942 136.788 513.812 135.295C513.683 133.801 512.831 131.001 511.061 130.736C511.061 130.736 510.113 128.256 508.512 127.892C508.512 127.892 507.127 126.141 505.816 125.923C505.816 125.923 504.678 124.393 503.171 124.246C503.171 124.246 502.102 122.642 499.626 122.787C499.626 122.787 498.902 122.422 497.976 122.569C497.976 122.569 495.5 121.085 494.076 122.569C494.076 122.569 490.377 121.985 489.137 123.371C489.137 123.371 486.132 123.153 485.085 124.537C485.085 124.537 481.921 125.121 481.16 126.506C481.158 126.504 478.23 127.345 478.355 129.494Z" fill="#192B4F"/>
<path d="M490.785 140.58C489.919 134.909 488.471 129.088 489.14 123.365C489.846 129.009 490.223 135.088 490.785 140.58Z" fill="#142347"/>
<path d="M494.084 122.564C494.304 128.532 495.054 134.693 494.966 140.655C493.692 135.048 494.013 128.258 494.084 122.564Z" fill="#142347"/>
<path d="M499.952 139.998C499.393 134.173 498.429 128.397 497.98 122.564C499.755 127.841 499.702 134.507 499.952 139.998Z" fill="#142347"/>
<path d="M503.639 139.736C502.505 134.043 501.077 128.406 499.633 122.784C502.302 127.63 502.865 134.359 503.639 139.736Z" fill="#142347"/>
<path d="M508.175 139.507C506.914 134.289 505.168 129.221 503.176 124.242C506.301 128.29 507.306 134.614 508.175 139.507Z" fill="#142347"/>
<path d="M511.496 138.32C509.947 134.03 507.94 129.95 505.816 125.919C508.953 128.887 510.374 134.312 511.496 138.32Z" fill="#142347"/>
<path d="M511.066 130.734C511.963 132.763 513.586 135.71 512.308 137.723C512.207 135.377 511.616 132.826 511.066 130.734Z" fill="#142347"/>
<path d="M484.785 139.736C484.494 134.727 483.475 129.36 485.086 124.535C484.835 129.525 484.788 134.903 484.785 139.736Z" fill="#142347"/>
<path d="M480.253 138.83C480.205 134.75 479.623 130.34 481.161 126.502C480.975 130.554 480.484 134.949 480.253 138.83Z" fill="#142347"/>
<path d="M477.268 136.57C477.326 134.288 476.908 131.286 478.359 129.494C478.183 131.816 477.62 134.436 477.268 136.57Z" fill="#142347"/>
<path fill-rule="evenodd" clip-rule="evenodd" d="M155.737 184.66C155.975 180.592 156.786 177.186 157.462 175.293C158.79 178.613 159.446 181.8 159.668 184.707C162.576 184.928 165.765 185.585 169.086 186.913C167.193 187.59 163.786 188.401 159.716 188.638C159.489 192.957 158.379 196.312 157.462 198.03C156.347 194.908 155.838 191.695 155.705 188.67C152.681 188.537 149.47 188.028 146.349 186.913C148.067 185.997 151.421 184.887 155.737 184.66Z" fill="url(#paint4_linear_1128_5649)"/>
<path fill-rule="evenodd" clip-rule="evenodd" d="M123.656 157.896C123.814 155.189 124.354 152.922 124.804 151.662C125.688 153.872 126.125 155.993 126.273 157.928C128.207 158.076 130.329 158.513 132.539 159.397C131.279 159.847 129.012 160.387 126.304 160.545C126.153 163.419 125.414 165.653 124.804 166.796C124.062 164.718 123.723 162.58 123.635 160.566C121.621 160.478 119.483 160.139 117.405 159.397C118.549 158.787 120.782 158.048 123.656 157.896Z" fill="url(#paint5_linear_1128_5649)"/>
<path fill-rule="evenodd" clip-rule="evenodd" d="M71.9522 138.829C72.1901 134.762 73.0011 131.357 73.677 129.464C75.0048 132.783 75.6612 135.97 75.8832 138.877C78.7908 139.098 81.9795 139.755 85.3008 141.083C83.4075 141.759 80.0006 142.571 75.931 142.808C75.7042 147.127 74.5936 150.482 73.677 152.201C72.5617 149.078 72.0528 145.866 71.9201 142.84C68.8959 142.707 65.6853 142.198 62.5639 141.083C64.282 140.167 67.6357 139.057 71.9522 138.829Z" fill="url(#paint6_linear_1128_5649)"/>
<path fill-rule="evenodd" clip-rule="evenodd" d="M76.3858 232.318C76.7357 226.333 77.9289 221.324 78.9234 218.539C80.877 223.423 81.8427 228.112 82.1692 232.388C86.4456 232.715 91.1351 233.68 96.0195 235.634C93.2348 236.629 88.2246 237.822 82.2395 238.172C81.9058 244.525 80.2719 249.462 78.9234 251.99C77.2825 247.396 76.5338 242.67 76.3385 238.219C71.8878 238.024 67.1623 237.275 62.5683 235.634C65.0966 234.286 70.0327 232.652 76.3858 232.318Z" fill="url(#paint7_linear_1128_5649)"/>
<circle cx="112.74" cy="196.929" r="2.19743" fill="#2F235A"/>
<circle cx="163.166" cy="133.924" r="2.19743" fill="#FE9076"/>
<circle cx="52.6388" cy="188.205" r="2.19743" fill="#FFA400"/>
<circle cx="151.131" cy="230.82" r="2.19743" fill="#1A0F91"/>
<path d="M157.785 124.753C152.817 117.929 138.822 103.355 122.589 99.6445" stroke="#FE9076" stroke-width="1.60277" stroke-linecap="round"/>
<path d="M43.371 182.315C36.0282 178.153 17.2632 170.661 0.946281 173.987" stroke="#FFA400" stroke-width="1.60277" stroke-linecap="round"/>
<path d="M143.582 237.203C139.819 240.523 130.767 249.952 124.658 261.107" stroke="#1A0F91" stroke-width="1.60277" stroke-linecap="round"/>
<defs>
<linearGradient id="paint0_linear_1128_5649" x1="419.048" y1="174.485" x2="419.048" y2="195.834" gradientUnits="userSpaceOnUse">
<stop stop-color="#FFE89E"/>
<stop offset="1" stop-color="#FFBF1A"/>
</linearGradient>
<linearGradient id="paint1_linear_1128_5649" x1="451.794" y1="150.045" x2="451.794" y2="164.255" gradientUnits="userSpaceOnUse">
<stop stop-color="#FFE89E"/>
<stop offset="1" stop-color="#FFBF1A"/>
</linearGradient>
<linearGradient id="paint2_linear_1128_5649" x1="502.829" y1="128.656" x2="502.829" y2="150.004" gradientUnits="userSpaceOnUse">
<stop stop-color="#FFE89E"/>
<stop offset="1" stop-color="#FFBF1A"/>
</linearGradient>
<linearGradient id="paint3_linear_1128_5649" x1="497.468" y1="218.871" x2="497.468" y2="250.28" gradientUnits="userSpaceOnUse">
<stop stop-color="#FFE89E"/>
<stop offset="1" stop-color="#FFBF1A"/>
</linearGradient>
<linearGradient id="paint4_linear_1128_5649" x1="157.718" y1="177.713" x2="157.718" y2="199.062" gradientUnits="userSpaceOnUse">
<stop stop-color="#FFE89E"/>
<stop offset="1" stop-color="#FFBF1A"/>
</linearGradient>
<linearGradient id="paint5_linear_1128_5649" x1="124.972" y1="153.273" x2="124.972" y2="167.483" gradientUnits="userSpaceOnUse">
<stop stop-color="#FFE89E"/>
<stop offset="1" stop-color="#FFBF1A"/>
</linearGradient>
<linearGradient id="paint6_linear_1128_5649" x1="73.9324" y1="131.884" x2="73.9324" y2="153.232" gradientUnits="userSpaceOnUse">
<stop stop-color="#FFE89E"/>
<stop offset="1" stop-color="#FFBF1A"/>
</linearGradient>
<linearGradient id="paint7_linear_1128_5649" x1="79.2939" y1="222.1" x2="79.2939" y2="253.508" gradientUnits="userSpaceOnUse">
<stop stop-color="#FFE89E"/>
<stop offset="1" stop-color="#FFBF1A"/>
</linearGradient>
</defs>
</svg>
