<svg width="126" height="21" viewBox="0 0 126 21" fill="none" xmlns="http://www.w3.org/2000/svg">
<path d="M10.39 0.605713L12.6271 7.49083L19.8666 7.49083L14.0097 11.7461L16.2469 18.6312L10.39 14.376L4.53319 18.6312L6.7703 11.7461L0.913465 7.49083L8.15291 7.49083L10.39 0.605713Z" fill="#4042E2"/>
<path d="M36.6947 0.605713L38.9318 7.49083L46.1713 7.49083L40.3144 11.7461L42.5515 18.6312L36.6947 14.376L30.8379 18.6312L33.075 11.7461L27.2182 7.49083L34.4576 7.49083L36.6947 0.605713Z" fill="#4042E2"/>
<path d="M62.9994 0.605713L65.2365 7.49083L72.476 7.49083L66.6191 11.7461L68.8562 18.6312L62.9994 14.376L57.1426 18.6312L59.3797 11.7461L53.5228 7.49083L60.7623 7.49083L62.9994 0.605713Z" fill="#4042E2"/>
<path d="M89.308 0.605713L91.5451 7.49083L98.7845 7.49083L92.9277 11.7461L95.1648 18.6312L89.308 14.376L83.4512 18.6312L85.6883 11.7461L79.8314 7.49083L87.0709 7.49083L89.308 0.605713Z" fill="#4042E2"/>
<path d="M115.613 0.605713L117.85 7.49083L125.089 7.49083L119.232 11.7461L121.47 18.6312L115.613 14.376L109.756 18.6312L111.993 11.7461L106.136 7.49083L113.376 7.49083L115.613 0.605713Z" fill="#4042E2"/>
</svg>
