<svg width="126" height="21" viewBox="0 0 126 21" fill="none" xmlns="http://www.w3.org/2000/svg">
<path d="M10.7181 0.605469L12.9553 7.49059L20.1947 7.49059L14.3379 11.7458L16.575 18.6309L10.7181 14.3757L4.86131 18.6309L7.09842 11.7458L1.24159 7.49059L8.48103 7.49059L10.7181 0.605469Z" fill="#4042E2"/>
<path d="M37.0228 0.605469L39.2599 7.49059L46.4994 7.49059L40.6426 11.7458L42.8797 18.6309L37.0228 14.3757L31.166 18.6309L33.4031 11.7458L27.5463 7.49059L34.7857 7.49059L37.0228 0.605469Z" fill="#4042E2"/>
<path d="M63.3275 0.605469L65.5646 7.49059L72.8041 7.49059L66.9472 11.7458L69.1844 18.6309L63.3275 14.3757L57.4707 18.6309L59.7078 11.7458L53.851 7.49059L61.0904 7.49059L63.3275 0.605469Z" fill="#4042E2"/>
<path d="M89.6361 0.605469L91.8732 7.49059L99.1127 7.49059L93.2558 11.7458L95.4929 18.6309L89.6361 14.3757L83.7793 18.6309L86.0164 11.7458L80.1596 7.49059L87.399 7.49059L89.6361 0.605469Z" fill="#4042E2"/>
<path d="M115.941 0.605469L118.178 7.49059L125.417 7.49059L119.561 11.7458L121.798 18.6309L115.941 14.3757L110.084 18.6309L112.321 11.7458L106.464 7.49059L113.704 7.49059L115.941 0.605469Z" fill="#C4C4C4"/>
</svg>
