<svg width="159" height="18" viewBox="0 0 159 18" fill="none" xmlns="http://www.w3.org/2000/svg">
<path d="M34.4819 11.2021C34.4819 10.7871 34.3354 10.4697 34.0425 10.25C33.7495 10.0254 33.2222 9.79102 32.4604 9.54688C31.6987 9.29785 31.0957 9.05371 30.6514 8.81445C29.4404 8.16016 28.835 7.27881 28.835 6.17041C28.835 5.59424 28.9961 5.08154 29.3184 4.63232C29.6455 4.17822 30.1118 3.82422 30.7173 3.57031C31.3276 3.31641 32.0112 3.18945 32.7681 3.18945C33.5298 3.18945 34.2085 3.32861 34.8042 3.60693C35.3999 3.88037 35.8613 4.26855 36.1885 4.77148C36.5205 5.27441 36.6865 5.8457 36.6865 6.48535H34.4893C34.4893 5.99707 34.3354 5.61865 34.0278 5.3501C33.7202 5.07666 33.2881 4.93994 32.7314 4.93994C32.1943 4.93994 31.7769 5.05469 31.479 5.28418C31.1812 5.50879 31.0322 5.80664 31.0322 6.17773C31.0322 6.52441 31.2056 6.81494 31.5522 7.04932C31.9038 7.28369 32.4189 7.50342 33.0977 7.7085C34.3477 8.08447 35.2583 8.55078 35.8296 9.10742C36.4009 9.66406 36.6865 10.3574 36.6865 11.1875C36.6865 12.1104 36.3374 12.8354 35.6392 13.3628C34.9409 13.8853 34.001 14.1465 32.8193 14.1465C31.999 14.1465 31.252 13.9976 30.5781 13.6997C29.9043 13.397 29.3892 12.9844 29.0327 12.4619C28.6812 11.9395 28.5054 11.334 28.5054 10.6455H30.71C30.71 11.8223 31.4131 12.4106 32.8193 12.4106C33.3418 12.4106 33.7495 12.3057 34.0425 12.0957C34.3354 11.8809 34.4819 11.583 34.4819 11.2021ZM40.2754 14H38.1514V6.0752H40.2754V14ZM38.0269 4.02441C38.0269 3.70703 38.1318 3.4458 38.3418 3.24072C38.5566 3.03564 38.8472 2.93311 39.2134 2.93311C39.5747 2.93311 39.8628 3.03564 40.0776 3.24072C40.2925 3.4458 40.3999 3.70703 40.3999 4.02441C40.3999 4.34668 40.29 4.61035 40.0703 4.81543C39.8555 5.02051 39.5698 5.12305 39.2134 5.12305C38.8569 5.12305 38.5688 5.02051 38.3491 4.81543C38.1343 4.61035 38.0269 4.34668 38.0269 4.02441ZM41.7183 9.979C41.7183 8.76318 42.0063 7.78418 42.5825 7.04199C43.1636 6.2998 43.9448 5.92871 44.9263 5.92871C45.7954 5.92871 46.4717 6.22656 46.9551 6.82227L47.043 6.0752H48.9619V13.7363C48.9619 14.4297 48.8032 15.0327 48.4858 15.5454C48.1733 16.0581 47.7314 16.4487 47.1602 16.7173C46.5889 16.9858 45.9199 17.1201 45.1533 17.1201C44.5723 17.1201 44.0059 17.0029 43.4541 16.7686C42.9023 16.5391 42.4849 16.2412 42.2017 15.875L43.1392 14.5859C43.6665 15.1768 44.3062 15.4722 45.0581 15.4722C45.6196 15.4722 46.0566 15.3208 46.3691 15.0181C46.6816 14.7202 46.8379 14.2954 46.8379 13.7437V13.3188C46.3496 13.8706 45.7075 14.1465 44.9116 14.1465C43.9595 14.1465 43.188 13.7754 42.5972 13.0332C42.0112 12.2861 41.7183 11.2974 41.7183 10.0669V9.979ZM43.835 10.1328C43.835 10.8506 43.979 11.4146 44.2671 11.8247C44.5552 12.23 44.9507 12.4326 45.4536 12.4326C46.0981 12.4326 46.5596 12.1909 46.8379 11.7075V8.375C46.5547 7.8916 46.0981 7.6499 45.4683 7.6499C44.9604 7.6499 44.5601 7.85742 44.2671 8.27246C43.979 8.6875 43.835 9.30762 43.835 10.1328ZM52.5435 6.0752L52.6094 6.99072C53.1758 6.28271 53.9351 5.92871 54.8872 5.92871C55.7271 5.92871 56.3521 6.17529 56.7622 6.66846C57.1724 7.16162 57.3823 7.89893 57.3921 8.88037V14H55.2754V8.93164C55.2754 8.48242 55.1777 8.15771 54.9824 7.95752C54.7871 7.75244 54.4624 7.6499 54.0083 7.6499C53.4126 7.6499 52.9658 7.90381 52.668 8.41162V14H50.5513V6.0752H52.5435ZM64.9727 14H62.8486V6.0752H64.9727V14ZM62.7241 4.02441C62.7241 3.70703 62.8291 3.4458 63.0391 3.24072C63.2539 3.03564 63.5444 2.93311 63.9106 2.93311C64.272 2.93311 64.5601 3.03564 64.7749 3.24072C64.9897 3.4458 65.0972 3.70703 65.0972 4.02441C65.0972 4.34668 64.9873 4.61035 64.7676 4.81543C64.5527 5.02051 64.2671 5.12305 63.9106 5.12305C63.5542 5.12305 63.2661 5.02051 63.0464 4.81543C62.8315 4.61035 62.7241 4.34668 62.7241 4.02441ZM68.6714 6.0752L68.7373 6.99072C69.3037 6.28271 70.063 5.92871 71.0151 5.92871C71.855 5.92871 72.48 6.17529 72.8901 6.66846C73.3003 7.16162 73.5103 7.89893 73.52 8.88037V14H71.4033V8.93164C71.4033 8.48242 71.3057 8.15771 71.1104 7.95752C70.915 7.75244 70.5903 7.6499 70.1362 7.6499C69.5405 7.6499 69.0938 7.90381 68.7959 8.41162V14H66.6792V6.0752H68.6714ZM85.7588 11.1216L86.7988 6.0752H88.8423L86.8208 14H85.0483L83.5469 9.01221L82.0454 14H80.2803L78.2588 6.0752H80.3022L81.335 11.1143L82.7852 6.0752H84.3159L85.7588 11.1216ZM92.1309 14H90.0068V6.0752H92.1309V14ZM89.8823 4.02441C89.8823 3.70703 89.9873 3.4458 90.1973 3.24072C90.4121 3.03564 90.7026 2.93311 91.0688 2.93311C91.4302 2.93311 91.7183 3.03564 91.9331 3.24072C92.1479 3.4458 92.2554 3.70703 92.2554 4.02441C92.2554 4.34668 92.1455 4.61035 91.9258 4.81543C91.7109 5.02051 91.4253 5.12305 91.0688 5.12305C90.7124 5.12305 90.4243 5.02051 90.2046 4.81543C89.9897 4.61035 89.8823 4.34668 89.8823 4.02441ZM96.4155 4.12695V6.0752H97.7705V7.62793H96.4155V11.583C96.4155 11.876 96.4717 12.0859 96.584 12.2129C96.6963 12.3398 96.9111 12.4033 97.2285 12.4033C97.4629 12.4033 97.6704 12.3862 97.8511 12.3521V13.9561C97.436 14.083 97.0088 14.1465 96.5693 14.1465C95.085 14.1465 94.3281 13.397 94.2988 11.8979V7.62793H93.1416V6.0752H94.2988V4.12695H96.4155ZM101.015 6.93945C101.577 6.26562 102.282 5.92871 103.132 5.92871C104.851 5.92871 105.722 6.92725 105.747 8.92432V14H103.63V8.98291C103.63 8.52881 103.532 8.19434 103.337 7.97949C103.142 7.75977 102.817 7.6499 102.363 7.6499C101.743 7.6499 101.293 7.88916 101.015 8.36768V14H98.8984V2.75H101.015V6.93945ZM119.655 12.6523C119.26 13.126 118.701 13.4946 117.978 13.7583C117.255 14.0171 116.455 14.1465 115.576 14.1465C114.653 14.1465 113.842 13.9463 113.144 13.5459C112.451 13.1406 111.914 12.5547 111.533 11.7881C111.157 11.0215 110.964 10.1206 110.954 9.08545V8.36035C110.954 7.2959 111.132 6.37549 111.489 5.59912C111.85 4.81787 112.368 4.22217 113.042 3.81201C113.72 3.39697 114.514 3.18945 115.422 3.18945C116.687 3.18945 117.675 3.49219 118.388 4.09766C119.101 4.69824 119.523 5.57471 119.655 6.72705H117.517C117.419 6.1167 117.202 5.66992 116.865 5.38672C116.533 5.10352 116.074 4.96191 115.488 4.96191C114.741 4.96191 114.172 5.24268 113.781 5.8042C113.391 6.36572 113.193 7.20068 113.188 8.30908V8.99023C113.188 10.1084 113.4 10.9531 113.825 11.5244C114.25 12.0957 114.873 12.3813 115.693 12.3813C116.518 12.3813 117.106 12.2056 117.458 11.854V10.0156H115.458V8.39697H119.655V12.6523ZM120.974 9.96436C120.974 9.17822 121.125 8.47754 121.428 7.8623C121.73 7.24707 122.165 6.771 122.731 6.43408C123.303 6.09717 123.964 5.92871 124.716 5.92871C125.786 5.92871 126.657 6.25586 127.331 6.91016C128.01 7.56445 128.388 8.45312 128.466 9.57617L128.481 10.1182C128.481 11.334 128.142 12.3105 127.463 13.0479C126.784 13.7803 125.874 14.1465 124.731 14.1465C123.588 14.1465 122.675 13.7803 121.992 13.0479C121.313 12.3154 120.974 11.3193 120.974 10.0596V9.96436ZM123.09 10.1182C123.09 10.8701 123.232 11.4463 123.515 11.8467C123.798 12.2422 124.204 12.4399 124.731 12.4399C125.244 12.4399 125.644 12.2446 125.932 11.854C126.22 11.4585 126.364 10.8286 126.364 9.96436C126.364 9.22705 126.22 8.65576 125.932 8.25049C125.644 7.84521 125.239 7.64258 124.716 7.64258C124.199 7.64258 123.798 7.84521 123.515 8.25049C123.232 8.65088 123.09 9.27344 123.09 10.1182ZM129.455 9.96436C129.455 9.17822 129.606 8.47754 129.909 7.8623C130.212 7.24707 130.646 6.771 131.213 6.43408C131.784 6.09717 132.446 5.92871 133.198 5.92871C134.267 5.92871 135.139 6.25586 135.812 6.91016C136.491 7.56445 136.87 8.45312 136.948 9.57617L136.962 10.1182C136.962 11.334 136.623 12.3105 135.944 13.0479C135.266 13.7803 134.355 14.1465 133.212 14.1465C132.07 14.1465 131.157 13.7803 130.473 13.0479C129.794 12.3154 129.455 11.3193 129.455 10.0596V9.96436ZM131.572 10.1182C131.572 10.8701 131.713 11.4463 131.997 11.8467C132.28 12.2422 132.685 12.4399 133.212 12.4399C133.725 12.4399 134.125 12.2446 134.414 11.854C134.702 11.4585 134.846 10.8286 134.846 9.96436C134.846 9.22705 134.702 8.65576 134.414 8.25049C134.125 7.84521 133.72 7.64258 133.198 7.64258C132.68 7.64258 132.28 7.84521 131.997 8.25049C131.713 8.65088 131.572 9.27344 131.572 10.1182ZM137.958 9.979C137.958 8.76318 138.247 7.78418 138.823 7.04199C139.404 6.2998 140.185 5.92871 141.167 5.92871C142.036 5.92871 142.712 6.22656 143.195 6.82227L143.283 6.0752H145.202V13.7363C145.202 14.4297 145.043 15.0327 144.726 15.5454C144.414 16.0581 143.972 16.4487 143.4 16.7173C142.829 16.9858 142.16 17.1201 141.394 17.1201C140.812 17.1201 140.246 17.0029 139.694 16.7686C139.143 16.5391 138.725 16.2412 138.442 15.875L139.379 14.5859C139.907 15.1768 140.546 15.4722 141.298 15.4722C141.86 15.4722 142.297 15.3208 142.609 15.0181C142.922 14.7202 143.078 14.2954 143.078 13.7437V13.3188C142.59 13.8706 141.948 14.1465 141.152 14.1465C140.2 14.1465 139.428 13.7754 138.837 13.0332C138.251 12.2861 137.958 11.2974 137.958 10.0669V9.979ZM140.075 10.1328C140.075 10.8506 140.219 11.4146 140.507 11.8247C140.795 12.23 141.191 12.4326 141.694 12.4326C142.338 12.4326 142.8 12.1909 143.078 11.7075V8.375C142.795 7.8916 142.338 7.6499 141.708 7.6499C141.201 7.6499 140.8 7.85742 140.507 8.27246C140.219 8.6875 140.075 9.30762 140.075 10.1328ZM149.069 14H146.945V2.75H149.069V14ZM154.467 14.1465C153.305 14.1465 152.358 13.79 151.625 13.0771C150.898 12.3643 150.534 11.4146 150.534 10.228V10.0229C150.534 9.22705 150.688 8.5166 150.996 7.8916C151.303 7.26172 151.738 6.77832 152.299 6.44141C152.866 6.09961 153.51 5.92871 154.233 5.92871C155.317 5.92871 156.169 6.27051 156.789 6.9541C157.414 7.6377 157.727 8.60693 157.727 9.86182V10.7261H152.68C152.749 11.2437 152.954 11.6587 153.295 11.9712C153.642 12.2837 154.079 12.4399 154.606 12.4399C155.422 12.4399 156.059 12.1445 156.518 11.5537L157.558 12.7183C157.241 13.1675 156.811 13.519 156.269 13.7729C155.727 14.022 155.126 14.1465 154.467 14.1465ZM154.226 7.64258C153.806 7.64258 153.464 7.78418 153.2 8.06738C152.941 8.35059 152.775 8.75586 152.702 9.2832H155.646V9.11475C155.637 8.646 155.51 8.28467 155.266 8.03076C155.021 7.77197 154.675 7.64258 154.226 7.64258Z" fill="#131313"/>
<path d="M15.9914 10.1495C15.9914 9.49394 15.937 9.01559 15.8192 8.51953H8.15918V11.4782H12.6554C12.5648 12.2135 12.0753 13.3208 10.9875 14.0648L10.9722 14.1639L13.3941 15.9973L13.5619 16.0137C15.103 14.6229 15.9914 12.5766 15.9914 10.1495Z" fill="#4285F4"/>
<path d="M8.15941 17.945C10.3622 17.945 12.2114 17.2363 13.5622 16.0139L10.9877 14.065C10.2987 14.5345 9.37409 14.8623 8.15941 14.8623C6.00194 14.8623 4.17082 13.4716 3.51807 11.5493L3.42239 11.5573L0.904028 13.4618L0.871094 13.5513C2.21271 16.1556 4.96848 17.945 8.15941 17.945Z" fill="#34A853"/>
<path d="M3.51818 11.5494C3.34594 11.0533 3.24627 10.5218 3.24627 9.97256C3.24627 9.42331 3.34594 8.89183 3.50912 8.39577L3.50455 8.29012L0.954628 6.35498L0.871199 6.39376C0.318256 7.47449 0.000976562 8.68811 0.000976562 9.97256C0.000976562 11.257 0.318256 12.4706 0.871199 13.5513L3.51818 11.5494Z" fill="#FBBC05"/>
<path d="M8.15941 5.08269C9.69137 5.08269 10.7248 5.72934 11.314 6.26974L13.6165 4.07285C12.2024 2.7884 10.3622 2 8.15941 2C4.96848 2 2.21271 3.78937 0.871094 6.39371L3.50901 8.39573C4.17082 6.47347 6.00194 5.08269 8.15941 5.08269Z" fill="#EB4335"/>
</svg>
