<svg width="423" height="332" viewBox="0 0 423 332" fill="none" xmlns="http://www.w3.org/2000/svg">
<path d="M11.5852 20.7393C11.5852 21.4461 10.9962 22.3886 10.6427 22.9776C10.1715 23.6845 9.34682 24.3914 8.87558 25.0982C8.75777 25.3338 10.9962 27.9256 11.3496 27.8078C12.4099 27.69 13.1167 26.9832 13.4702 26.0407C13.9414 24.9804 13.8236 24.1557 13.7058 22.9776C13.7058 22.5064 12.9989 22.0352 12.7633 21.6817C12.5277 21.6817 11.5852 20.8571 11.5852 20.7393Z" fill="#407BFF" fill-opacity="0.45"/>
<path d="M11.1157 63.6221C10.4088 62.0905 8.64167 61.3837 7.11015 60.7946C5.57862 60.2056 3.69367 59.6165 2.16215 60.4412C1.69091 60.6768 -0.311853 63.9755 0.0415751 64.4467C0.866242 65.3892 3.34024 65.3892 4.51834 65.7426C5.93205 66.2139 7.58138 67.392 9.11291 67.2742C9.58415 67.2742 11.3513 63.9755 11.1157 63.6221Z" fill="#407BFF" fill-opacity="0.45"/>
<path d="M34.4414 0.00389274C33.1455 0.357321 32.0852 1.65323 31.2606 2.71351C30.3181 3.7738 29.3756 5.0697 29.2578 6.48342C29.2578 6.95465 31.614 9.66427 31.9674 9.42865C33.0277 8.7218 33.7346 7.19027 34.4414 6.2478C35.2661 5.18751 36.562 4.12723 37.0332 2.94913C37.1511 2.47789 34.7949 -0.113917 34.4414 0.00389274Z" fill="#407BFF" fill-opacity="0.45"/>
<path d="M163.09 55.9639C161.794 56.3173 160.734 57.6132 159.909 58.6735C158.967 59.7338 158.024 61.0297 157.906 62.4434C157.906 62.9146 160.262 65.6242 160.616 65.3886C161.676 64.6818 162.383 63.1502 163.09 62.2078C163.915 61.1475 165.21 60.0872 165.682 58.9091C165.799 58.4379 163.561 55.846 163.09 55.9639Z" fill="#407BFF" fill-opacity="0.45"/>
<path d="M60.9492 100.85C59.6533 101.203 58.5931 102.499 57.7684 103.559C56.8259 104.62 55.8834 105.915 55.7656 107.329C55.7656 107.8 58.1218 110.51 58.4752 110.274C59.5355 109.568 60.2424 108.036 60.9492 107.094C61.7739 106.033 63.0698 104.973 63.5411 103.795C63.6589 103.324 61.3027 100.732 60.9492 100.85Z" fill="#407BFF" fill-opacity="0.45"/>
<path d="M156.962 88.8326C156.491 89.3039 156.373 89.8929 156.137 90.4819C155.902 91.1888 155.784 91.7778 155.902 92.4847C156.019 93.0738 156.844 93.7806 157.315 94.2518C157.433 94.3697 158.376 95.5478 158.611 95.4299C159.083 95.1943 159.083 94.0162 159.2 93.4272C159.318 92.6025 159.318 91.8957 159.2 91.1888C159.2 90.9532 157.198 88.7148 156.962 88.8326Z" fill="#407BFF" fill-opacity="0.45"/>
<g opacity="0.2">
<path d="M156.962 88.8326C156.491 89.3039 156.373 89.8929 156.137 90.4819C155.902 91.1888 155.784 91.7778 155.902 92.4847C156.019 93.0738 156.844 93.7806 157.315 94.2518C157.433 94.3697 158.376 95.5478 158.611 95.4299C159.083 95.1943 159.083 94.0162 159.2 93.4272C159.318 92.6025 159.318 91.8957 159.2 91.1888C159.2 90.9532 157.198 88.7148 156.962 88.8326Z" fill="black"/>
</g>
<path d="M408.015 23.213C406.012 21.9171 403.303 20.739 400.947 20.8568C400.358 20.8568 398.59 23.5664 398.473 23.4486C399.651 23.9198 400.947 23.9198 402.125 24.2733C403.303 24.6267 404.481 25.0979 405.659 25.687C406.012 26.0404 408.015 23.213 408.015 23.213Z" fill="#407BFF" fill-opacity="0.45"/>
<path d="M198.314 151.508C196.901 153.393 195.369 155.985 195.487 158.341C195.487 158.93 197.961 160.933 197.961 161.05C198.432 159.99 198.668 158.694 199.021 157.516C199.492 156.338 200.081 155.16 200.788 154.1C200.906 153.746 198.314 151.508 198.314 151.508Z" fill="#407BFF" fill-opacity="0.45"/>
<path d="M99.3559 76.5798C97.1175 75.9908 94.1723 75.6373 91.9339 76.5798C91.3448 76.8154 90.5202 79.8785 90.4023 79.8785C91.5804 79.9963 92.8764 79.5251 94.0544 79.5251C95.3504 79.5251 96.6463 79.6429 97.8243 79.8785C98.2956 79.8785 99.3559 76.5798 99.3559 76.5798Z" fill="#407BFF" fill-opacity="0.45"/>
<path d="M184.413 84.4735C182.764 82.8242 180.525 80.9392 178.051 80.5858C177.462 80.468 175.106 82.5885 174.988 82.5885C175.931 83.2954 177.227 83.6488 178.287 84.2379C179.347 84.8269 180.408 85.6516 181.35 86.4763C181.821 86.8297 184.413 84.4735 184.413 84.4735Z" fill="#407BFF" fill-opacity="0.45"/>
<path d="M38.802 59.8516C38.5663 59.8516 37.9773 60.4406 38.5663 60.0872C38.6841 59.8516 38.802 59.8516 38.802 59.8516Z" fill="#407BFF" fill-opacity="0.45"/>
<path d="M34.2058 69.748C34.677 69.2768 35.6195 68.4521 35.7373 67.8631C36.2086 66.3315 36.4442 64.6822 37.0332 63.1507C37.151 62.7972 37.3867 62.326 37.5045 61.9726C37.8579 60.9123 38.3291 59.9698 38.8004 59.0273C37.151 60.6767 35.6195 62.5616 34.4414 64.5644C33.4989 66.2137 32.0852 69.0412 32.6743 71.0439C32.6743 71.1617 34.088 69.748 34.2058 69.748Z" fill="#407BFF" fill-opacity="0.45"/>
<path opacity="0.2" d="M34.2058 69.748C34.677 69.2768 35.6195 68.4521 35.7373 67.8631C36.2086 66.3315 36.4442 64.6822 37.0332 63.1507C37.151 62.7972 37.3867 62.326 37.5045 61.9726C37.8579 60.9123 38.3291 59.9698 38.8004 59.0273C37.151 60.6767 35.6195 62.5616 34.4414 64.5644C33.4989 66.2137 32.0852 69.0412 32.6743 71.0439C32.6743 71.1617 34.088 69.748 34.2058 69.748Z" fill="black"/>
<path d="M38.0923 60.7938C38.0923 60.7938 38.328 60.3225 38.5636 59.9691C37.9745 60.4403 38.5636 59.7335 38.7992 59.7335C38.7992 59.7335 38.6814 59.8513 38.5636 59.9691C38.6814 59.9691 38.7992 59.8513 38.917 59.7335C41.5088 57.7307 44.6897 56.6704 47.8705 56.317C48.4596 56.1992 49.1664 55.1389 49.6377 54.7855C49.7555 54.5499 50.9336 52.9005 51.0514 52.9005C46.4568 52.7827 42.4513 55.2567 39.2704 58.5554C39.1526 58.6732 39.0348 58.791 38.917 58.9088C38.328 59.8513 37.9745 60.7938 37.6211 61.854C37.7389 61.6184 37.8567 61.1472 38.0923 60.7938Z" fill="#407BFF" fill-opacity="0.45"/>
<path d="M407.544 39.824C408.369 40.7664 409.193 41.7089 410.018 42.6514C410.843 43.5939 411.55 44.6542 412.257 45.7144C412.963 46.7747 413.67 47.835 414.259 48.8953C414.848 49.9556 415.555 51.1337 416.144 52.194C415.32 51.4871 414.613 50.7803 413.788 50.0734C413.435 49.72 412.963 49.3665 412.61 49.1309C412.257 48.7775 411.785 48.5419 411.314 48.1884C410.607 47.1282 409.9 46.1857 409.193 45.2432C408.487 44.3007 407.662 43.3583 406.955 42.4158C406.13 41.4733 405.306 40.6486 404.481 39.824C403.656 38.9993 402.714 38.1746 401.771 37.4678C402.714 37.7034 403.774 38.0568 404.717 38.5281L405.424 38.8815L406.13 39.2349C406.602 39.3527 407.073 39.5883 407.544 39.824Z" fill="#407BFF" fill-opacity="0.45"/>
<g opacity="0.2">
<path d="M407.544 39.824C408.369 40.7664 409.193 41.7089 410.018 42.6514C410.843 43.5939 411.55 44.6542 412.257 45.7144C412.963 46.7747 413.67 47.835 414.259 48.8953C414.848 49.9556 415.555 51.1337 416.144 52.194C415.32 51.4871 414.613 50.7803 413.788 50.0734C413.435 49.72 412.963 49.3665 412.61 49.1309C412.257 48.7775 411.785 48.5419 411.314 48.1884C410.607 47.1282 409.9 46.1857 409.193 45.2432C408.487 44.3007 407.662 43.3583 406.955 42.4158C406.13 41.4733 405.306 40.6486 404.481 39.824C403.656 38.9993 402.714 38.1746 401.771 37.4678C402.714 37.7034 403.774 38.0568 404.717 38.5281L405.424 38.8815L406.13 39.2349C406.602 39.3527 407.073 39.5883 407.544 39.824Z" fill="black"/>
</g>
<path d="M244.379 67.3916C244.497 68.0985 244.261 69.1587 244.025 69.8656C243.672 70.6903 243.201 71.5149 242.847 72.3396C242.729 72.693 245.675 74.4602 245.91 74.3424C246.853 73.9889 247.324 73.0465 247.442 72.104C247.677 70.9259 247.324 70.1012 246.853 69.0409C246.735 68.6875 245.91 68.3341 245.557 68.0985C245.557 68.0985 244.379 67.5094 244.379 67.3916Z" fill="#407BFF" fill-opacity="0.45"/>
<path d="M258.518 112.631C257.458 111.335 255.573 111.099 253.923 110.981C252.274 110.863 250.271 110.863 248.975 111.924C248.622 112.277 247.562 116.047 248.033 116.283C249.093 116.99 251.449 116.283 252.745 116.4C254.277 116.4 256.162 117.107 257.575 116.636C258.047 116.636 258.871 112.984 258.518 112.631Z" fill="#407BFF" fill-opacity="0.45"/>
<path d="M281.018 55.1401C279.84 55.8469 279.133 57.3784 278.662 58.5565C278.073 59.8524 277.484 61.2662 277.719 62.6799C277.837 63.1511 280.9 65.0361 281.136 64.8004C281.96 63.858 282.196 62.2086 282.667 61.0305C283.138 59.8524 284.199 58.4387 284.317 57.1428C284.199 56.9072 281.254 55.0223 281.018 55.1401Z" fill="#407BFF" fill-opacity="0.45"/>
<path d="M400.594 72.6928C399.416 73.3997 398.709 74.9312 398.238 76.1093C397.649 77.4052 397.06 78.8189 397.295 80.2326C397.413 80.7038 400.476 82.5888 400.712 82.3532C401.537 81.4107 401.772 79.7614 402.243 78.5833C402.715 77.4052 403.775 75.9915 403.893 74.6956C403.893 74.4599 400.83 72.575 400.594 72.6928Z" fill="#407BFF" fill-opacity="0.45"/>
<path d="M297.157 114.634C295.978 115.34 295.272 116.872 294.8 118.05C294.211 119.346 293.622 120.76 293.858 122.173C293.976 122.645 297.039 124.53 297.274 124.294C298.099 123.351 298.335 121.702 298.806 120.524C299.277 119.346 300.337 117.932 300.455 116.636C300.455 116.283 297.51 114.398 297.157 114.634Z" fill="#407BFF" fill-opacity="0.45"/>
<path d="M369.963 91.6606C369.609 92.2497 369.609 92.8387 369.609 93.5456C369.609 94.2524 369.609 94.8415 369.963 95.5483C370.198 96.0196 371.259 96.6086 371.73 96.8442C371.966 96.9621 373.144 97.7867 373.261 97.6689C373.733 97.3155 373.379 96.1374 373.261 95.6661C373.144 94.8415 373.026 94.2524 372.672 93.4278C372.555 93.0743 370.081 91.425 369.963 91.6606Z" fill="#407BFF" fill-opacity="0.45"/>
<g opacity="0.2">
<path d="M369.963 91.6606C369.609 92.2497 369.609 92.8387 369.609 93.5456C369.609 94.2524 369.609 94.8415 369.963 95.5483C370.198 96.0196 371.259 96.6086 371.73 96.8442C371.966 96.9621 373.144 97.7867 373.261 97.6689C373.733 97.3155 373.379 96.1374 373.261 95.6661C373.144 94.8415 373.026 94.2524 372.672 93.4278C372.555 93.0743 370.081 91.425 369.963 91.6606Z" fill="black"/>
</g>
<path d="M348.17 58.7916C347.816 59.3807 347.816 59.9697 347.816 60.6766C347.816 61.3834 347.816 61.9725 348.17 62.6793C348.405 63.1506 349.466 63.7396 349.937 63.9752C350.173 64.093 351.351 64.9177 351.468 64.7999C351.94 64.4465 351.586 63.2684 351.468 62.7971C351.351 61.9725 351.233 61.3834 350.879 60.5587C350.762 60.2053 348.288 58.6738 348.17 58.7916Z" fill="#407BFF" fill-opacity="0.45"/>
<g opacity="0.2">
<path d="M348.17 58.7916C347.816 59.3807 347.816 59.9697 347.816 60.6766C347.816 61.3834 347.816 61.9725 348.17 62.6793C348.405 63.1506 349.466 63.7396 349.937 63.9752C350.173 64.093 351.351 64.9177 351.468 64.7999C351.94 64.4465 351.586 63.2684 351.468 62.7971C351.351 61.9725 351.233 61.3834 350.879 60.5587C350.762 60.2053 348.288 58.6738 348.17 58.7916Z" fill="black"/>
</g>
<path d="M384.808 40.1777C383.983 42.4161 383.159 45.2435 383.865 47.5997C383.983 48.1888 386.929 49.4847 386.929 49.6025C387.164 48.4244 386.929 47.1285 387.046 45.8326C387.164 44.5367 387.4 43.3586 387.871 42.0627C387.871 41.7093 384.808 40.2955 384.808 40.1777Z" fill="#407BFF" fill-opacity="0.45"/>
<path d="M351.232 75.9922C350.407 78.2306 349.582 81.058 350.289 83.4142C350.407 84.0032 353.352 85.2991 353.352 85.4169C353.588 84.2389 353.352 82.943 353.47 81.647C353.588 80.3511 353.824 79.173 354.295 77.8771C354.413 77.4059 351.232 75.9922 351.232 75.9922Z" fill="#407BFF" fill-opacity="0.45"/>
<path d="M321.308 61.6191C320.483 63.8575 319.659 66.6849 320.365 69.0411C320.483 69.6302 323.429 70.9261 323.429 71.0439C323.664 69.8658 323.429 68.5699 323.546 67.274C323.664 65.9781 323.9 64.8 324.371 63.5041C324.371 63.0329 321.19 61.6191 321.308 61.6191Z" fill="#407BFF" fill-opacity="0.45"/>
<path d="M408.958 101.085C406.602 101.203 403.656 101.556 401.771 103.088C401.3 103.441 401.3 106.622 401.064 106.622C402.243 106.386 403.421 105.68 404.481 105.326C405.659 104.973 406.955 104.737 408.251 104.619C408.84 104.501 408.958 101.085 408.958 101.085Z" fill="#407BFF" fill-opacity="0.45"/>
<path d="M371.848 124.176C369.845 122.998 367.136 121.82 364.662 122.056C364.072 122.174 362.305 124.765 362.188 124.765C363.366 125.119 364.662 125.119 365.84 125.472C367.136 125.826 368.196 126.297 369.374 126.768C369.963 127.122 371.848 124.176 371.848 124.176Z" fill="#407BFF" fill-opacity="0.45"/>
<path d="M291.031 83.7672C291.267 83.885 291.856 83.1781 291.267 83.5316C291.149 83.7672 291.031 83.7672 291.031 83.7672Z" fill="#407BFF" fill-opacity="0.45"/>
<path d="M296.568 74.3422C295.979 74.8134 295.036 75.4024 294.8 76.1093C294.211 77.6408 293.858 79.1724 293.033 80.5861C292.798 80.9395 292.68 81.2929 292.444 81.6464C291.973 82.5888 291.502 83.5313 290.795 84.4738C292.562 82.9423 294.329 81.2929 295.743 79.408C296.803 77.8764 298.57 75.1668 298.217 73.1641C298.099 73.1641 296.568 74.3422 296.568 74.3422Z" fill="#407BFF" fill-opacity="0.45"/>
<path opacity="0.2" d="M296.568 74.3422C295.979 74.8134 295.036 75.4024 294.8 76.1093C294.211 77.6408 293.858 79.1724 293.033 80.5861C292.798 80.9395 292.68 81.2929 292.444 81.6464C291.973 82.5888 291.502 83.5313 290.795 84.4738C292.562 82.9423 294.329 81.2929 295.743 79.408C296.803 77.8764 298.57 75.1668 298.217 73.1641C298.099 73.1641 296.568 74.3422 296.568 74.3422Z" fill="black"/>
<path d="M291.738 82.824C291.738 82.824 291.385 83.2952 291.149 83.5308C291.856 83.1774 291.149 83.7664 290.913 83.7664C290.913 83.7664 291.031 83.6486 291.149 83.5308C291.031 83.5308 290.914 83.6486 290.796 83.7664C287.968 85.5336 284.787 86.2404 281.489 86.2404C280.9 86.2404 280.075 87.3007 279.604 87.6541C279.368 87.772 278.072 89.3035 278.072 89.3035C282.667 89.7747 286.908 87.772 290.324 84.9445C290.442 84.8267 290.56 84.7089 290.796 84.5911C291.385 83.6486 291.974 82.7061 292.445 81.7637C292.209 82.1171 291.974 82.4705 291.738 82.824Z" fill="#407BFF" fill-opacity="0.45"/>
<path d="M30.2015 199.103C28.9056 198.868 27.7275 198.632 26.4316 198.396C25.2535 198.043 23.9576 197.69 22.7795 197.336C21.6014 196.983 20.4233 196.512 19.2452 196.04C18.0671 195.569 16.889 195.098 15.7109 194.509C16.7712 194.627 17.8315 194.627 18.8918 194.744C19.363 194.744 19.9521 194.744 20.4233 194.744C20.8946 194.744 21.4836 194.744 21.9548 194.744C23.1329 195.098 24.311 195.451 25.4891 195.805C26.6672 196.158 27.8453 196.394 29.0234 196.629C30.2015 196.865 31.3796 197.101 32.5577 197.218C33.7358 197.336 34.9139 197.454 36.092 197.336C35.1495 197.69 34.207 198.043 33.1467 198.279L32.3221 198.514L31.4974 198.75C31.2618 198.986 30.7906 198.986 30.2015 199.103Z" fill="#407BFF" fill-opacity="0.45"/>
<g opacity="0.2">
<path d="M30.2015 199.103C28.9056 198.868 27.7275 198.632 26.4316 198.396C25.2535 198.043 23.9576 197.69 22.7795 197.336C21.6014 196.983 20.4233 196.512 19.2452 196.04C18.0671 195.569 16.889 195.098 15.7109 194.509C16.7712 194.627 17.8315 194.627 18.8918 194.744C19.363 194.744 19.9521 194.744 20.4233 194.744C20.8946 194.744 21.4836 194.744 21.9548 194.744C23.1329 195.098 24.311 195.451 25.4891 195.805C26.6672 196.158 27.8453 196.394 29.0234 196.629C30.2015 196.865 31.3796 197.101 32.5577 197.218C33.7358 197.336 34.9139 197.454 36.092 197.336C35.1495 197.69 34.207 198.043 33.1467 198.279L32.3221 198.514L31.4974 198.75C31.2618 198.986 30.7906 198.986 30.2015 199.103Z" fill="black"/>
</g>
<path d="M220.111 171.536C219.993 170.829 220.111 169.768 220.347 169.062C220.582 168.119 221.054 167.412 221.289 166.47C221.407 166.116 218.344 164.467 218.108 164.703C217.166 165.174 216.695 165.999 216.695 167.059C216.577 168.237 216.93 169.062 217.402 170.004C217.637 170.357 218.344 170.711 218.697 170.947C218.933 170.947 220.111 171.536 220.111 171.536Z" fill="#407BFF" fill-opacity="0.45"/>
<path d="M212.219 128.064C212.101 129.713 213.279 131.245 214.34 132.423C215.4 133.601 216.814 135.015 218.581 135.133C219.17 135.133 222.469 133.13 222.351 132.659C222.115 131.481 219.877 130.302 219.052 129.36C217.992 128.3 217.167 126.415 215.753 125.826C215.282 125.472 212.219 127.593 212.219 128.064Z" fill="#407BFF" fill-opacity="0.45"/>
<path d="M220.464 101.439C221.643 102.735 223.527 102.735 225.059 102.735C226.708 102.735 228.711 102.735 229.889 101.439C230.243 101.085 231.067 97.3153 230.596 96.9619C229.536 96.255 227.18 97.0797 225.884 97.1975C224.352 97.1975 222.467 96.6085 221.053 97.1975C220.7 97.4331 220.111 101.085 220.464 101.439Z" fill="#407BFF" fill-opacity="0.45"/>
<path d="M194.781 69.5119C195.959 70.8078 197.844 70.8078 199.375 70.8078C201.025 70.8078 203.028 70.8078 204.206 69.5119C204.559 69.1585 205.384 65.3886 204.912 65.0351C203.852 64.3283 201.496 65.153 200.2 65.2708C198.669 65.2708 196.784 64.6817 195.37 65.2708C195.016 65.5064 194.427 69.1585 194.781 69.5119Z" fill="#407BFF" fill-opacity="0.45"/>
<path d="M144.359 180.607C145.537 181.314 147.186 181.196 148.482 180.96C149.896 180.843 151.427 180.725 152.606 179.782C152.959 179.547 153.195 175.895 152.841 175.777C151.545 175.541 150.014 176.13 148.718 176.248C147.422 176.366 145.773 176.13 144.477 176.719C144.241 176.955 144.123 180.371 144.359 180.607Z" fill="#407BFF" fill-opacity="0.45"/>
<path d="M162.268 216.067C163.446 215.36 164.035 213.711 164.389 212.533C164.86 211.237 165.449 209.706 165.095 208.292C164.978 207.821 161.797 206.053 161.561 206.289C160.737 207.349 160.619 208.881 160.265 210.177C159.794 211.473 158.969 212.769 158.852 214.182C158.852 214.654 161.915 216.303 162.268 216.067Z" fill="#407BFF" fill-opacity="0.45"/>
<path d="M43.7524 173.773C44.9305 173.066 45.5196 171.417 45.873 170.239C46.3442 168.943 46.9333 167.412 46.5798 165.998C46.462 165.527 43.2812 163.76 43.0456 163.995C42.2209 165.055 42.1031 166.587 41.7497 167.883C41.2784 169.179 40.4537 170.475 40.3359 171.888C40.3359 172.36 43.399 174.009 43.7524 173.773Z" fill="#407BFF" fill-opacity="0.45"/>
<path d="M28.3188 107.919C29.4969 107.212 30.086 105.563 30.4394 104.385C30.9106 103.089 31.4997 101.557 31.1462 100.143C31.0284 99.6722 27.8476 97.905 27.612 98.1407C26.7873 99.2009 26.6695 100.732 26.3161 102.028C25.8448 103.324 25.0202 104.62 24.9023 106.034C25.0202 106.387 28.0832 108.037 28.3188 107.919Z" fill="#407BFF" fill-opacity="0.45"/>
<path d="M228.948 68.452C230.126 67.7452 230.715 66.0959 231.068 64.9178C231.54 63.6219 232.129 62.0903 231.775 60.6766C231.657 60.2054 228.476 58.4382 228.241 58.6739C227.416 59.7341 227.298 61.2657 226.945 62.5616C226.474 63.8575 225.649 65.1534 225.531 66.5671C225.531 66.9205 228.594 68.6877 228.948 68.452Z" fill="#407BFF" fill-opacity="0.45"/>
<path d="M87.2213 156.927C87.5747 156.338 87.4569 155.749 87.4569 155.042C87.4569 154.335 87.3391 153.746 86.9857 153.039C86.6323 152.568 85.572 152.097 85.1007 151.861C84.8651 151.743 83.687 150.919 83.4514 151.154C82.9802 151.508 83.4514 152.686 83.5692 153.157C83.687 153.982 83.9227 154.571 84.2761 155.278C84.6295 155.631 87.1035 157.163 87.2213 156.927Z" fill="#407BFF" fill-opacity="0.45"/>
<g opacity="0.2">
<path d="M87.2213 156.927C87.5747 156.338 87.4569 155.749 87.4569 155.042C87.4569 154.335 87.3391 153.746 86.9857 153.039C86.6323 152.568 85.572 152.097 85.1007 151.861C84.8651 151.743 83.687 150.919 83.4514 151.154C82.9802 151.508 83.4514 152.686 83.5692 153.157C83.687 153.982 83.9227 154.571 84.2761 155.278C84.6295 155.631 87.1035 157.163 87.2213 156.927Z" fill="black"/>
</g>
<path d="M167.569 155.985C167.922 155.396 167.805 154.807 167.805 154.1C167.805 153.393 167.687 152.804 167.333 152.097C166.98 151.626 165.92 151.155 165.448 150.919C165.213 150.801 164.035 149.976 163.799 150.212C163.328 150.565 163.799 151.744 163.917 152.215C164.035 153.039 164.27 153.629 164.624 154.335C164.859 154.689 167.451 156.22 167.569 155.985Z" fill="#407BFF" fill-opacity="0.45"/>
<g opacity="0.2">
<path d="M167.569 155.985C167.922 155.396 167.805 154.807 167.805 154.1C167.805 153.393 167.687 152.804 167.333 152.097C166.98 151.626 165.92 151.155 165.448 150.919C165.213 150.801 164.035 149.976 163.799 150.212C163.328 150.565 163.799 151.744 163.917 152.215C164.035 153.039 164.27 153.629 164.624 154.335C164.859 154.689 167.451 156.22 167.569 155.985Z" fill="black"/>
</g>
<path d="M112.078 189.443C112.785 187.205 113.374 184.259 112.55 182.021C112.314 181.432 109.369 180.372 109.369 180.254C109.251 181.432 109.487 182.728 109.487 184.024C109.487 185.32 109.251 186.498 108.898 187.794C108.78 188.147 112.078 189.443 112.078 189.443Z" fill="#407BFF" fill-opacity="0.45"/>
<path d="M117.969 155.749C118.676 153.51 119.265 150.565 118.44 148.327C118.205 147.738 115.259 146.677 115.259 146.56C115.142 147.738 115.377 149.034 115.377 150.329C115.377 151.625 115.142 152.803 114.788 154.099C114.67 154.453 117.969 155.749 117.969 155.749Z" fill="#407BFF" fill-opacity="0.45"/>
<path d="M72.0234 245.52C74.3796 245.284 77.3249 244.813 79.092 243.164C79.5632 242.81 79.4454 239.63 79.5632 239.512C78.3852 239.865 77.3249 240.572 76.1468 241.043C74.9687 241.514 73.6728 241.75 72.4947 241.986C72.0234 242.104 72.0234 245.52 72.0234 245.52Z" fill="#407BFF" fill-opacity="0.45"/>
<path d="M120.445 219.602C122.566 220.662 125.276 221.723 127.75 221.251C128.339 221.134 129.87 218.424 129.988 218.424C128.81 218.071 127.514 218.188 126.336 217.953C125.04 217.717 123.862 217.364 122.684 216.775C122.212 216.539 120.445 219.602 120.445 219.602Z" fill="#407BFF" fill-opacity="0.45"/>
<path d="M14.1797 156.338C14.1797 156.574 14.8865 157.045 14.4153 156.456C14.2975 156.338 14.1797 156.338 14.1797 156.338Z" fill="#407BFF" fill-opacity="0.45"/>
<path d="M24.5474 159.637C23.9583 159.165 23.1337 158.458 22.4268 158.341C20.7775 158.105 19.2459 158.105 17.5966 157.634C17.2432 157.516 16.7719 157.398 16.4185 157.28C15.3582 157.045 14.2979 156.691 13.3555 156.338C15.2404 157.752 17.2432 159.048 19.4816 159.99C21.2487 160.697 24.1939 161.757 26.0789 160.932C26.0789 160.932 24.6652 159.637 24.5474 159.637Z" fill="#407BFF" fill-opacity="0.45"/>
<path opacity="0.2" d="M24.5474 159.637C23.9583 159.165 23.1337 158.458 22.4268 158.341C20.7775 158.105 19.2459 158.105 17.5966 157.634C17.2432 157.516 16.7719 157.398 16.4185 157.28C15.3582 157.045 14.2979 156.691 13.3555 156.338C15.2404 157.752 17.2432 159.048 19.4816 159.99C21.2487 160.697 24.1939 161.757 26.0789 160.932C26.0789 160.932 24.6652 159.637 24.5474 159.637Z" fill="black"/>
<path d="M15.2405 156.809C15.1227 156.809 14.6515 156.574 14.4159 156.456C14.8871 157.045 14.1803 156.574 14.1803 156.338C14.1803 156.338 14.2981 156.456 14.4159 156.456C14.2981 156.338 14.2981 156.338 14.1803 156.22C11.8241 153.864 10.4104 150.919 9.7035 147.738C9.58569 147.149 8.40759 146.56 7.93636 146.206C7.70074 146.089 5.93359 145.146 5.93359 145.028C6.40483 149.623 9.35007 153.275 13.0022 155.985C13.12 156.102 13.3556 156.22 13.4734 156.338C14.5337 156.809 15.4762 157.045 16.5365 157.281C16.0652 157.163 15.594 156.927 15.2405 156.809Z" fill="#407BFF" fill-opacity="0.45"/>
<path d="M145.186 120.76C144.951 120.643 144.244 121.114 144.951 120.878C145.068 120.76 145.186 120.76 145.186 120.76Z" fill="#407BFF" fill-opacity="0.45"/>
<path d="M137.646 128.653C138.235 128.299 139.295 127.946 139.767 127.357C140.709 126.061 141.416 124.529 142.476 123.351C142.712 122.998 143.065 122.762 143.301 122.409C144.008 121.584 144.715 120.76 145.539 120.053C143.419 121.113 141.416 122.409 139.649 123.94C138.235 125.236 135.997 127.475 135.879 129.477L137.646 128.653Z" fill="#407BFF" fill-opacity="0.45"/>
<path opacity="0.2" d="M137.646 128.653C138.235 128.299 139.295 127.946 139.767 127.357C140.709 126.061 141.416 124.529 142.476 123.351C142.712 122.998 143.065 122.762 143.301 122.409C144.008 121.584 144.715 120.76 145.539 120.053C143.419 121.113 141.416 122.409 139.649 123.94C138.235 125.236 135.997 127.475 135.879 129.477L137.646 128.653Z" fill="black"/>
<path d="M144.243 121.467C144.243 121.467 144.714 121.113 144.95 120.878C144.243 121.113 144.95 120.642 145.186 120.76C145.186 120.76 145.068 120.76 144.95 120.878C145.068 120.878 145.186 120.76 145.304 120.76C148.367 119.699 151.783 119.699 154.964 120.406C155.553 120.524 156.613 119.699 157.085 119.464C157.32 119.346 158.852 118.168 158.969 118.168C154.61 116.636 150.016 117.697 146.01 119.817C145.893 119.935 145.657 119.935 145.539 120.053C144.714 120.76 144.008 121.584 143.301 122.409C143.654 122.056 143.89 121.82 144.243 121.467Z" fill="#407BFF" fill-opacity="0.45"/>
<path d="M389.991 123.941C390.934 124.883 391.759 125.825 392.583 126.768C393.408 127.71 394.233 128.771 394.939 129.713C395.646 130.773 396.353 131.716 397.06 132.776C397.767 133.837 398.356 134.897 398.945 136.075C398.12 135.368 397.296 134.661 396.471 134.072C396 133.719 395.646 133.483 395.175 133.13C394.704 132.776 394.35 132.541 393.879 132.187C393.172 131.245 392.465 130.184 391.641 129.242C390.934 128.299 390.109 127.357 389.284 126.532C388.46 125.59 387.635 124.765 386.693 123.941C385.75 123.116 384.808 122.409 383.865 121.702C384.808 121.938 385.868 122.291 386.81 122.645L387.517 122.88L388.224 123.234C389.049 123.469 389.52 123.705 389.991 123.941Z" fill="#407BFF" fill-opacity="0.45"/>
<g opacity="0.2">
<path d="M389.991 123.941C390.934 124.883 391.759 125.825 392.583 126.768C393.408 127.71 394.233 128.771 394.939 129.713C395.646 130.773 396.353 131.716 397.06 132.776C397.767 133.837 398.356 134.897 398.945 136.075C398.12 135.368 397.296 134.661 396.471 134.072C396 133.719 395.646 133.483 395.175 133.13C394.704 132.776 394.35 132.541 393.879 132.187C393.172 131.245 392.465 130.184 391.641 129.242C390.934 128.299 390.109 127.357 389.284 126.532C388.46 125.59 387.635 124.765 386.693 123.941C385.75 123.116 384.808 122.409 383.865 121.702C384.808 121.938 385.868 122.291 386.81 122.645L387.517 122.88L388.224 123.234C389.049 123.469 389.52 123.705 389.991 123.941Z" fill="black"/>
</g>
<path d="M268.764 142.437C268.529 143.143 267.704 143.85 267.115 144.321C266.408 144.911 265.466 145.264 264.759 145.853C264.523 146.089 265.937 149.152 266.29 149.269C267.351 149.387 268.175 149.034 268.882 148.209C269.707 147.267 269.825 146.442 270.06 145.382C270.178 144.911 269.707 144.321 269.471 143.85C269.471 143.615 268.764 142.437 268.764 142.437Z" fill="#407BFF" fill-opacity="0.45"/>
<path d="M339.686 150.8C339.451 149.151 337.919 147.973 336.741 147.031C335.445 146.088 333.796 144.91 332.029 145.263C331.44 145.381 328.612 147.973 328.848 148.444C329.319 149.622 331.675 150.329 332.736 151.036C334.032 151.861 335.21 153.51 336.623 153.864C337.212 153.864 339.686 151.272 339.686 150.8Z" fill="#407BFF" fill-opacity="0.45"/>
<path d="M360.891 111.334C359.595 111.216 358.181 112.277 357.121 112.984C355.943 113.808 354.647 114.633 354.058 115.929C353.823 116.282 355.472 119.581 355.707 119.581C357.003 119.227 357.946 117.932 359.006 117.225C360.066 116.518 361.598 115.811 362.423 114.869C362.776 114.633 361.244 111.452 360.891 111.334Z" fill="#407BFF" fill-opacity="0.45"/>
<path d="M412.257 170.239C411.079 170.946 410.49 172.595 410.019 173.774C409.548 175.069 408.959 176.601 409.194 178.015C409.312 178.486 412.493 180.253 412.611 180.017C413.435 178.957 413.553 177.426 414.024 176.13C414.496 174.834 415.438 173.538 415.556 172.242C415.556 171.771 412.611 170.004 412.257 170.239Z" fill="#407BFF" fill-opacity="0.45"/>
<path d="M217.046 233.032C216.928 231.736 215.868 230.44 214.925 229.38C213.983 228.32 212.923 227.142 211.627 226.67C211.156 226.553 208.093 228.437 208.21 228.791C208.682 229.969 210.095 230.911 210.92 231.854C211.745 232.914 212.569 234.328 213.747 235.035C214.101 235.27 217.046 233.503 217.046 233.032Z" fill="#407BFF" fill-opacity="0.45"/>
<path d="M375.265 223.961C374.676 224.197 374.323 224.786 373.969 225.375C373.616 225.964 373.262 226.553 373.145 227.26C373.145 227.849 373.734 228.791 373.969 229.262C374.087 229.498 374.558 230.794 374.912 230.794C375.501 230.676 375.736 229.616 375.972 229.027C376.325 228.32 376.561 227.613 376.561 226.906C376.679 226.671 375.501 223.961 375.265 223.961Z" fill="#407BFF" fill-opacity="0.45"/>
<g opacity="0.2">
<path d="M375.265 223.961C374.676 224.197 374.323 224.786 373.969 225.375C373.616 225.964 373.262 226.553 373.145 227.26C373.145 227.849 373.734 228.791 373.969 229.262C374.087 229.498 374.558 230.794 374.912 230.794C375.501 230.676 375.736 229.616 375.972 229.027C376.325 228.32 376.561 227.613 376.561 226.906C376.679 226.671 375.501 223.961 375.265 223.961Z" fill="black"/>
</g>
<path d="M292.798 206.761C292.209 206.996 291.856 207.585 291.502 208.174C291.149 208.763 290.796 209.352 290.678 210.059C290.678 210.648 291.267 211.591 291.502 212.062C291.62 212.298 292.091 213.594 292.445 213.594C293.034 213.476 293.27 212.415 293.505 211.826C293.859 211.12 294.094 210.413 294.094 209.706C294.212 209.352 292.916 206.643 292.798 206.761Z" fill="#407BFF" fill-opacity="0.45"/>
<g opacity="0.2">
<path d="M292.798 206.761C292.209 206.996 291.856 207.585 291.502 208.174C291.149 208.763 290.796 209.352 290.678 210.059C290.678 210.648 291.267 211.591 291.502 212.062C291.62 212.298 292.091 213.594 292.445 213.594C293.034 213.476 293.27 212.415 293.505 211.826C293.859 211.12 294.094 210.413 294.094 209.706C294.212 209.352 292.916 206.643 292.798 206.761Z" fill="black"/>
</g>
<path d="M302.458 164.703C301.869 164.939 301.516 165.528 301.163 166.117C300.809 166.706 300.456 167.295 300.338 168.002C300.338 168.591 300.927 169.533 301.163 170.004C301.28 170.24 301.752 171.536 302.105 171.536C302.694 171.418 302.93 170.358 303.165 169.769C303.519 169.062 303.754 168.355 303.754 167.648C303.872 167.295 302.694 164.585 302.458 164.703Z" fill="#407BFF" fill-opacity="0.45"/>
<g opacity="0.2">
<path d="M302.458 164.703C301.869 164.939 301.516 165.528 301.163 166.117C300.809 166.706 300.456 167.295 300.338 168.002C300.338 168.591 300.927 169.533 301.163 170.004C301.28 170.24 301.752 171.536 302.105 171.536C302.694 171.418 302.93 170.358 303.165 169.769C303.519 169.062 303.754 168.355 303.754 167.648C303.872 167.295 302.694 164.585 302.458 164.703Z" fill="black"/>
</g>
<path d="M387.281 151.272C385.396 152.686 383.157 154.689 382.568 157.045C382.45 157.634 384.217 160.226 384.1 160.344C384.924 159.401 385.396 158.223 386.22 157.281C387.045 156.22 387.87 155.396 388.812 154.571C389.165 154.218 387.281 151.272 387.281 151.272Z" fill="#407BFF" fill-opacity="0.45"/>
<path d="M390.344 196.865C388.106 196.04 385.278 195.333 382.922 196.04C382.333 196.158 381.155 199.103 381.037 199.103C382.215 199.339 383.511 199.103 384.807 199.103C386.103 199.221 387.281 199.456 388.577 199.81C388.813 200.045 390.226 196.865 390.344 196.865Z" fill="#407BFF" fill-opacity="0.45"/>
<path d="M422.035 120.053C420.033 118.874 417.323 117.579 414.849 117.814C414.26 117.932 412.493 120.524 412.375 120.524C413.553 120.995 414.849 120.995 416.027 121.231C417.205 121.584 418.383 122.055 419.561 122.644C420.033 122.88 422.035 120.053 422.035 120.053Z" fill="#407BFF" fill-opacity="0.45"/>
<path d="M361.244 159.401C360.184 157.281 358.534 154.807 356.296 153.746C355.707 153.511 352.88 154.807 352.762 154.689C353.469 155.631 354.647 156.338 355.471 157.281C356.296 158.223 357.121 159.284 357.71 160.344C358.063 160.815 361.244 159.401 361.244 159.401Z" fill="#407BFF" fill-opacity="0.45"/>
<path d="M320.836 196.157C321.072 196.04 321.189 195.215 320.836 195.922C320.836 196.04 320.836 196.157 320.836 196.157Z" fill="#407BFF" fill-opacity="0.45"/>
<path d="M319.892 185.201C319.775 185.908 319.303 186.968 319.421 187.675C319.775 189.207 320.364 190.738 320.599 192.388C320.717 192.741 320.717 193.212 320.717 193.684C320.953 194.744 321.07 195.804 321.07 196.865C321.659 194.626 322.131 192.27 322.131 189.796C322.131 187.911 321.895 184.73 320.481 183.316C320.481 183.316 319.892 185.201 319.892 185.201Z" fill="#407BFF" fill-opacity="0.45"/>
<path opacity="0.2" d="M319.892 185.201C319.775 185.908 319.303 186.968 319.421 187.675C319.775 189.207 320.364 190.738 320.599 192.388C320.717 192.741 320.717 193.212 320.717 193.684C320.953 194.744 321.07 195.804 321.07 196.865C321.659 194.626 322.131 192.27 322.131 189.796C322.131 187.911 321.895 184.73 320.481 183.316C320.481 183.316 319.892 185.201 319.892 185.201Z" fill="black"/>
<path d="M320.835 194.862C320.835 194.98 320.835 195.451 320.835 195.805C321.189 195.098 320.953 196.04 320.835 196.04C320.835 196.04 320.835 195.923 320.835 195.805C320.835 195.923 320.718 196.04 320.718 196.158C319.422 199.221 317.183 201.695 314.592 203.58C314.12 203.934 314.002 205.23 313.885 205.819C313.885 206.054 313.649 208.057 313.531 208.057C317.537 205.819 319.893 201.695 320.953 197.336C320.953 197.101 321.071 196.983 321.071 196.747C321.071 195.687 320.953 194.627 320.718 193.566C320.835 194.038 320.835 194.509 320.835 194.862Z" fill="#407BFF" fill-opacity="0.45"/>
<path d="M257.338 206.054C257.338 206.289 258.163 206.643 257.574 206.172C257.456 206.172 257.338 206.054 257.338 206.054Z" fill="#407BFF" fill-opacity="0.45"/>
<path d="M268.293 206.997C267.704 206.761 266.643 206.172 265.936 206.172C264.287 206.29 262.756 206.643 261.106 206.525C260.635 206.525 260.282 206.525 259.81 206.407C258.75 206.407 257.69 206.29 256.512 206.172C258.632 207.114 260.871 207.939 263.227 208.41C265.112 208.764 268.293 209.117 269.942 207.939C270.06 207.939 268.293 207.114 268.293 206.997Z" fill="#407BFF" fill-opacity="0.45"/>
<path opacity="0.2" d="M268.293 206.997C267.704 206.761 266.643 206.172 265.936 206.172C264.287 206.29 262.756 206.643 261.106 206.525C260.635 206.525 260.282 206.525 259.81 206.407C258.75 206.407 257.69 206.29 256.512 206.172C258.632 207.114 260.871 207.939 263.227 208.41C265.112 208.764 268.293 209.117 269.942 207.939C270.06 207.939 268.293 207.114 268.293 206.997Z" fill="black"/>
<path d="M258.515 206.407C258.398 206.407 257.926 206.289 257.573 206.289C258.162 206.761 257.337 206.407 257.337 206.172C257.337 206.172 257.455 206.289 257.573 206.289C257.455 206.289 257.337 206.172 257.219 206.054C254.392 204.287 252.389 201.695 250.976 198.75C250.74 198.278 249.444 197.925 248.973 197.689C248.737 197.571 246.852 197.1 246.734 196.982C248.266 201.341 251.918 204.287 256.041 206.172C256.159 206.289 256.395 206.289 256.513 206.407C257.573 206.643 258.633 206.643 259.811 206.643C259.34 206.525 258.987 206.407 258.515 206.407Z" fill="#407BFF" fill-opacity="0.45"/>
<path d="M159.568 82.6082C159.068 82.6082 156.067 86.4082 155.867 85.8082C155.767 85.4082 153.168 82.5082 151.268 80.4082C149.968 79.0082 149.667 77.0082 150.367 75.3082L151.568 72.3082C152.068 71.1082 153.068 70.2082 154.268 69.9082L157.768 71.3082L158.168 75.5082L159.568 82.6082Z" fill="#DD8C6A"/>
<path d="M160.569 85.2084L160.469 79.8084C160.469 79.8084 156.769 78.5084 154.969 80.8084C153.169 83.0084 153.669 84.4084 153.669 84.4084C153.669 84.4084 154.669 86.7084 158.069 88.6084C161.569 90.5084 160.569 85.2084 160.569 85.2084Z" fill="#407BFF"/>
<path opacity="0.2" d="M160.569 85.2084L160.469 79.8084C160.469 79.8084 156.769 78.5084 154.969 80.8084C153.169 83.0084 153.669 84.4084 153.669 84.4084C153.669 84.4084 154.669 86.7084 158.069 88.6084C161.569 90.5084 160.569 85.2084 160.569 85.2084Z" fill="black"/>
<path d="M195.067 121.908C190.467 117.908 181.667 111.108 175.767 106.508C173.067 104.408 166.967 92.808 163.767 88.108C162.867 86.808 160.467 85.208 160.467 85.208L157.167 88.108C157.167 88.108 155.867 89.808 156.467 91.508C158.767 97.908 166.167 112.708 168.767 115.208C176.267 122.708 190.467 135.008 193.367 134.708C197.767 134.408 198.567 125.008 195.067 121.908Z" fill="#407BFF"/>
<path opacity="0.2" d="M195.067 121.908C190.467 117.908 181.667 111.108 175.767 106.508C173.067 104.408 166.967 92.808 163.767 88.108C162.867 86.808 160.467 85.208 160.467 85.208L157.167 88.108C157.167 88.108 155.867 89.808 156.467 91.508C158.767 97.908 166.167 112.708 168.767 115.208C176.267 122.708 190.467 135.008 193.367 134.708C197.767 134.408 198.567 125.008 195.067 121.908Z" fill="white"/>
<path d="M241.069 330.409C241.569 329.209 242.269 328.209 243.169 327.309C243.169 327.309 246.769 321.409 244.269 311.109L249.069 307.008C250.269 306.908 251.569 307.708 252.469 308.508C253.069 309.408 253.569 309.709 254.069 310.709C255.769 313.709 259.469 320.609 259.469 320.609L258.769 321.008C257.569 318.908 256.269 317.009 254.769 315.109C253.269 313.309 253.169 316.409 253.769 319.109C254.269 321.809 252.469 325.908 247.969 328.508C242.669 331.608 240.269 332.609 241.069 330.409Z" fill="#263238"/>
<path d="M250.07 316.509C250.07 318.309 251.17 321.409 249.57 323.609C248.17 325.709 245.77 327.109 243.27 327.309C243.27 327.309 246.07 322.709 244.97 314.609C244.87 313.509 244.57 312.409 244.37 311.109C244.37 311.109 248.57 308.109 250.47 307.709L251.37 310.409C251.17 312.309 250.67 314.309 250.27 315.709C250.07 315.909 250.07 316.209 250.07 316.509Z" fill="#DD8C6A"/>
<path d="M251.268 310.509C251.068 312.409 250.568 314.409 250.168 315.809C250.068 316.009 250.068 316.209 250.068 316.509L246.168 318.109L244.968 314.609L240.668 302.109L247.468 299.309L250.368 307.709L251.268 310.509Z" fill="#DD8C6A"/>
<path opacity="0.2" d="M247.07 298.408L240.27 301.208L242.17 306.608C242.17 306.608 247.17 307.608 249.17 304.208L249.47 305.008L247.07 298.408Z" fill="black"/>
<path d="M189.368 325.609C190.468 324.909 191.568 324.409 192.868 324.109C192.868 324.109 198.968 321.109 202.468 311.009L208.868 309.809C209.968 310.409 210.768 311.409 211.168 312.609C211.168 313.709 211.168 314.809 211.068 315.909C210.868 319.409 210.168 328.309 210.168 328.309L209.368 328.209C209.468 325.809 209.468 322.309 209.268 319.909C208.968 317.609 207.268 320.209 206.268 322.709C205.268 325.209 201.568 327.709 196.268 327.509C190.068 327.409 187.568 327.009 189.368 325.609Z" fill="#263238"/>
<path d="M207.767 314.909C207.067 316.109 206.067 317.209 204.967 318.109C203.667 319.009 203.167 323.209 200.167 324.409C197.767 325.409 195.067 325.309 192.867 324.109C192.867 324.109 197.467 321.809 200.967 314.609C201.767 312.909 202.067 311.109 201.667 309.209L199.567 297.409L207.267 296.509L208.967 310.609C209.067 312.709 208.567 314.009 207.767 314.909Z" fill="#DD8C6A"/>
<path opacity="0.2" d="M198.867 291.908L200.567 302.408H201.167C203.467 303.008 206.067 302.508 207.967 301.108H207.867L206.767 291.108L198.867 291.908Z" fill="black"/>
<path d="M227.469 126.908C227.569 126.508 227.569 125.808 227.469 125.408C226.969 119.908 227.669 113.708 222.169 114.208C219.869 115.608 217.269 116.508 214.569 116.708C214.469 116.708 214.369 116.708 214.369 116.708C209.669 117.208 205.069 118.108 200.569 119.208C199.769 119.408 198.969 119.608 198.269 119.908C197.169 120.208 196.169 120.608 195.169 120.908C190.469 122.508 190.969 127.708 189.969 132.508C188.769 138.308 187.069 139.908 196.469 157.008C197.869 159.508 196.569 166.108 199.269 168.008C205.569 172.508 229.069 165.108 229.069 165.108C229.069 165.108 224.469 144.908 227.469 126.908Z" fill="#407BFF"/>
<g opacity="0.2">
<path d="M227.469 126.908C227.569 126.508 227.569 125.808 227.469 125.408C226.969 119.908 227.669 113.708 222.169 114.208C219.869 115.608 217.269 116.508 214.569 116.708C214.469 116.708 214.369 116.708 214.369 116.708C209.669 117.208 205.069 118.108 200.569 119.208C199.769 119.408 198.969 119.608 198.269 119.908C197.169 120.208 196.169 120.608 195.169 120.908C190.469 122.508 190.969 127.708 189.969 132.508C188.769 138.308 187.069 139.908 196.469 157.008C197.869 159.508 196.569 166.108 199.269 168.008C205.569 172.508 229.069 165.108 229.069 165.108C229.069 165.108 224.469 144.908 227.469 126.908Z" fill="white"/>
</g>
<path d="M199.266 168.108C199.266 168.108 196.866 206.708 194.866 236.408C193.266 260.008 197.166 300.308 197.166 300.308C197.166 300.308 203.066 302.308 209.566 298.808C209.566 298.808 212.066 261.708 210.666 239.208C219.766 206.508 232.766 175.708 223.766 163.408L199.266 168.108Z" fill="#263238"/>
<path opacity="0.3" d="M213.266 191.108L225.866 184.208C223.966 195.908 219.166 210.508 214.366 226.208C211.166 213.608 209.766 200.508 213.266 191.108Z" fill="black"/>
<path d="M205.27 167.009C205.27 167.009 212.47 199.309 217.27 228.009C219.17 248.709 240.37 305.409 240.37 305.409L244.17 304.709C245.97 304.409 247.67 303.609 249.07 302.309L250.37 301.109C250.37 301.109 244.57 260.109 238.47 244.109C239.27 210.909 240.87 173.709 228.57 162.309L205.27 167.009Z" fill="#263238"/>
<path d="M199.77 120.408C199.17 122.208 198.17 125.508 198.97 126.808C199.07 126.108 200.57 123.708 201.67 124.808C201.97 125.208 202.37 125.508 202.57 125.908C203.27 127.008 203.87 128.008 204.57 129.108C204.87 129.608 205.27 130.108 205.77 130.108C206.37 130.208 206.87 129.508 207.27 129.008C207.97 127.808 208.67 126.708 209.37 125.508C209.87 124.708 210.37 123.908 211.17 123.408C211.97 122.908 214.87 124.008 215.37 124.808C215.47 122.708 216.07 118.108 215.87 116.908C215.67 115.708 213.27 113.908 211.97 113.708C211.17 113.508 210.27 113.808 209.57 114.108C206.07 115.508 201.07 116.508 199.77 120.408Z" fill="white"/>
<path d="M210.169 107.908C210.569 111.408 211.469 115.008 213.569 116.408C213.569 116.408 215.769 119.208 208.369 124.508C207.169 125.508 205.269 126.508 204.269 125.308C201.969 122.908 201.969 120.708 202.369 119.408C202.569 118.708 203.069 118.008 203.669 117.508C205.269 116.008 204.269 114.208 202.869 108.808L206.269 106.708C207.069 105.708 208.569 105.608 209.469 106.408C209.769 106.808 210.069 107.308 210.169 107.908Z" fill="#DD8C6A"/>
<path opacity="0.2" d="M206.068 106.708C206.868 105.708 208.368 105.608 209.268 106.408C209.568 106.708 209.868 107.108 209.968 107.508C208.668 110.308 206.668 112.608 203.968 114.108C203.868 112.708 202.768 111.208 202.268 109.908C202.068 109.508 202.668 109.108 202.468 108.708L206.068 106.708Z" fill="black"/>
<path d="M206.469 83.0083C204.869 81.5083 202.369 81.2083 200.269 81.8083C198.169 82.4083 196.369 83.8083 194.769 85.4083C192.069 88.1083 189.869 91.5083 188.769 95.2083C187.669 98.9083 187.769 103.008 189.269 106.608C189.969 108.308 191.069 109.908 192.669 110.908C195.069 112.508 198.369 112.308 200.969 111.008C203.569 109.708 205.569 107.308 206.969 104.808C208.869 101.508 212.069 93.4083 209.169 87.1083C207.769 84.1083 206.469 83.0083 206.469 83.0083Z" fill="#263238"/>
<path d="M211.269 107.308C208.169 108.508 206.469 109.608 205.769 109.008C204.869 108.208 207.569 104.508 207.769 103.308C208.269 100.808 209.769 98.5084 211.969 97.2084C214.169 95.9084 217.069 95.9084 219.269 97.2084C220.569 98.0084 221.569 99.2084 221.769 100.708C221.969 102.208 220.669 103.208 219.569 104.008C217.369 105.908 214.169 106.108 211.269 107.308Z" fill="#263238"/>
<path d="M212.771 95.0084C212.571 102.108 212.571 105.108 209.171 108.908C204.071 114.608 195.571 113.008 193.671 106.008C191.971 99.7084 192.571 89.2084 199.371 86.0084C206.071 82.9084 212.971 87.9084 212.771 95.0084Z" fill="#DD8C6A"/>
<path d="M210.168 95.2087C208.768 95.9087 208.868 102.609 212.268 102.309C215.668 102.109 214.868 92.9087 210.168 95.2087Z" fill="#263238"/>
<path d="M214.469 101.509C214.169 102.809 213.369 104.009 212.269 104.809C210.769 105.809 209.469 104.609 209.469 102.909C209.469 101.309 210.269 99.0088 211.969 98.6088C213.669 98.3088 214.869 99.9088 214.469 101.509Z" fill="#DD8C6A"/>
<path d="M205.67 82.2085C195.97 83.9085 196.67 90.3085 204.97 94.4085C209.57 96.7085 215.77 101.908 211.77 110.208C210.47 112.808 226.27 103.008 221.87 97.2085C213.47 86.1085 213.07 79.8085 205.67 82.2085Z" fill="#263238"/>
<path d="M201.171 97.8086C201.171 98.4086 200.871 98.9086 200.571 98.9086C200.171 98.9086 199.871 98.5086 199.871 97.9086C199.871 97.3086 200.171 96.8086 200.471 96.8086C200.771 96.8086 201.071 97.2086 201.171 97.8086Z" fill="#263238"/>
<path d="M194.769 98.1084C194.769 98.7084 194.469 99.2084 194.169 99.2084C193.769 99.2084 193.469 98.8084 193.469 98.2084C193.469 97.6084 193.769 97.1084 194.069 97.1084C194.369 97.1084 194.669 97.6084 194.769 98.1084Z" fill="#263238"/>
<path d="M194.17 97.2088L192.77 96.9088C192.77 96.8088 193.57 97.9088 194.17 97.2088Z" fill="#263238"/>
<path d="M196.87 98.9082C196.47 100.408 195.87 101.908 195.07 103.208C195.77 103.608 196.57 103.608 197.37 103.308L196.87 98.9082Z" fill="#C13B37"/>
<path d="M203.069 95.3087C202.969 95.3087 202.969 95.3087 202.969 95.2087C202.469 94.5087 201.669 94.2087 200.869 94.2087C200.669 94.2087 200.569 94.1087 200.469 93.9087C200.469 93.7087 200.569 93.5087 200.769 93.5087C201.869 93.4087 202.869 93.9087 203.469 94.8087C203.569 94.9087 203.569 95.2087 203.369 95.3087C203.369 95.4087 203.269 95.4087 203.069 95.3087Z" fill="#263238"/>
<path d="M192.171 95.2086C192.071 95.0086 192.071 94.8086 192.271 94.7086C193.171 94.1086 194.271 94.0086 195.271 94.5086C195.471 94.6086 195.471 94.8086 195.371 95.0086C195.271 95.2086 195.071 95.2086 194.971 95.2086C194.171 94.9086 193.271 94.9086 192.571 95.4086C192.371 95.3086 192.271 95.3086 192.171 95.2086Z" fill="#263238"/>
<path d="M200.568 96.8088L199.168 96.5088C199.168 96.5088 199.968 97.5088 200.568 96.8088Z" fill="#263238"/>
<path d="M197.168 105.009C197.168 105.009 198.968 104.309 204.268 103.809C203.868 105.609 202.868 107.209 200.168 107.509C197.468 107.809 197.168 105.009 197.168 105.009Z" fill="#263238"/>
<path d="M201.269 105.909C200.269 105.909 199.269 106.309 198.469 107.109C199.069 107.409 199.669 107.609 200.169 107.509C201.169 107.509 202.169 107.109 202.969 106.409C202.469 106.009 201.869 105.809 201.269 105.909Z" fill="#FF5652"/>
<path d="M197.469 104.909C197.669 105.409 197.969 105.709 198.369 105.709C199.969 105.509 201.469 105.209 202.969 104.809C203.469 104.709 203.869 104.309 204.069 103.809C201.769 104.009 199.569 104.409 197.469 104.909Z" fill="white"/>
<path d="M257.668 76.1086L254.668 67.4086L262.568 67.3086C262.568 67.3086 262.568 72.7086 261.968 75.4086L257.668 76.1086Z" fill="#DD8C6A"/>
<path d="M257.266 62.0084L259.166 62.2084C259.966 62.3084 260.566 62.8084 260.866 63.5084L262.466 67.4084L254.566 67.5084L254.866 64.0084C255.166 62.7084 256.166 61.9084 257.266 62.0084Z" fill="#DD8C6A"/>
<path d="M256.968 73.6091L259.868 73.3091C262.068 73.1091 263.668 75.2091 262.968 77.2091L261.568 81.1091L256.168 80.2091L256.968 73.6091Z" fill="#407BFF"/>
<path opacity="0.2" d="M256.966 73.6088L259.966 73.3088C262.066 73.1088 263.666 75.1088 262.966 77.1088L261.466 81.2088L256.066 80.3088L256.966 73.6088Z" fill="black"/>
<path d="M261.967 81.6085C261.967 81.6085 256.467 105.908 228.167 128.108C220.867 133.908 214.367 118.408 222.267 114.108C228.167 110.908 240.967 104.508 245.867 96.3085C250.867 88.1085 250.767 82.2085 256.067 80.1085C261.367 78.1085 261.967 81.6085 261.967 81.6085Z" fill="#407BFF"/>
<path opacity="0.2" d="M261.967 81.6085C261.967 81.6085 256.467 105.908 228.167 128.108C220.867 133.908 214.367 118.408 222.267 114.108C228.167 110.908 240.967 104.508 245.867 96.3085C250.867 88.1085 250.767 82.2085 256.067 80.1085C261.367 78.1085 261.967 81.6085 261.967 81.6085Z" fill="white"/>
</svg>
