<svg width="170" height="39" viewBox="0 0 170 39" fill="none" xmlns="http://www.w3.org/2000/svg">
<path d="M6.72727 13.5H10.0909V30.5H6.72727V13.5ZM0 18.6H3.36364V25.4H0V18.6ZM13.4545 5H16.8182V35.6H13.4545V5ZM20.1818 8.4H23.5455V39H20.1818V8.4ZM26.9091 13.5H30.2727V30.5H26.9091V13.5ZM33.6364 18.6H37V25.4H33.6364V18.6Z" fill="#1A0F91"/>
<path d="M58.875 26.1875V18.6562C58.875 18.1146 58.7865 17.651 58.6094 17.2656C58.4323 16.8698 58.1562 16.5625 57.7812 16.3438C57.4167 16.125 56.9427 16.0156 56.3594 16.0156C55.8594 16.0156 55.4271 16.1042 55.0625 16.2812C54.6979 16.4479 54.4167 16.6927 54.2188 17.0156C54.0208 17.3281 53.9219 17.6979 53.9219 18.125H49.4219C49.4219 17.4062 49.5885 16.724 49.9219 16.0781C50.2552 15.4323 50.7396 14.8646 51.375 14.375C52.0104 13.875 52.7656 13.4844 53.6406 13.2031C54.526 12.9219 55.5156 12.7812 56.6094 12.7812C57.9219 12.7812 59.0885 13 60.1094 13.4375C61.1302 13.875 61.9323 14.5312 62.5156 15.4062C63.1094 16.2812 63.4062 17.375 63.4062 18.6875V25.9219C63.4062 26.849 63.4635 27.6094 63.5781 28.2031C63.6927 28.7865 63.8594 29.2969 64.0781 29.7344V30H59.5312C59.3125 29.5417 59.1458 28.9688 59.0312 28.2812C58.9271 27.5833 58.875 26.8854 58.875 26.1875ZM59.4688 19.7031L59.5 22.25H56.9844C56.3906 22.25 55.875 22.3177 55.4375 22.4531C55 22.5885 54.6406 22.7812 54.3594 23.0312C54.0781 23.2708 53.8698 23.5521 53.7344 23.875C53.6094 24.1979 53.5469 24.5521 53.5469 24.9375C53.5469 25.3229 53.6354 25.6719 53.8125 25.9844C53.9896 26.2865 54.2448 26.526 54.5781 26.7031C54.9115 26.8698 55.3021 26.9531 55.75 26.9531C56.4271 26.9531 57.0156 26.8177 57.5156 26.5469C58.0156 26.276 58.401 25.9427 58.6719 25.5469C58.9531 25.151 59.099 24.776 59.1094 24.4219L60.2969 26.3281C60.1302 26.7552 59.901 27.1979 59.6094 27.6562C59.3281 28.1146 58.9688 28.5469 58.5312 28.9531C58.0938 29.349 57.5677 29.6771 56.9531 29.9375C56.3385 30.1875 55.6094 30.3125 54.7656 30.3125C53.6927 30.3125 52.7188 30.099 51.8438 29.6719C50.9792 29.2344 50.2917 28.6354 49.7812 27.875C49.2812 27.1042 49.0312 26.2292 49.0312 25.25C49.0312 24.3646 49.1979 23.5781 49.5312 22.8906C49.8646 22.2031 50.3542 21.625 51 21.1562C51.6562 20.6771 52.474 20.3177 53.4531 20.0781C54.4323 19.8281 55.5677 19.7031 56.8594 19.7031H59.4688ZM73.8594 26.7969C74.4115 26.7969 74.901 26.6927 75.3281 26.4844C75.7552 26.2656 76.0885 25.9635 76.3281 25.5781C76.5781 25.1823 76.7083 24.7188 76.7188 24.1875H80.9531C80.9427 25.375 80.625 26.4323 80 27.3594C79.375 28.276 78.5365 29 77.4844 29.5312C76.4323 30.0521 75.2552 30.3125 73.9531 30.3125C72.6406 30.3125 71.4948 30.0938 70.5156 29.6562C69.5469 29.2188 68.7396 28.6146 68.0938 27.8438C67.4479 27.0625 66.9635 26.1562 66.6406 25.125C66.3177 24.0833 66.1562 22.9688 66.1562 21.7812V21.3281C66.1562 20.1302 66.3177 19.0156 66.6406 17.9844C66.9635 16.9427 67.4479 16.0365 68.0938 15.2656C68.7396 14.4844 69.5469 13.875 70.5156 13.4375C71.4844 13 72.6198 12.7812 73.9219 12.7812C75.3073 12.7812 76.5208 13.0469 77.5625 13.5781C78.6146 14.1094 79.4375 14.8698 80.0312 15.8594C80.6354 16.8385 80.9427 18 80.9531 19.3438H76.7188C76.7083 18.7812 76.5885 18.2708 76.3594 17.8125C76.1406 17.3542 75.8177 16.9896 75.3906 16.7188C74.974 16.4375 74.4583 16.2969 73.8438 16.2969C73.1875 16.2969 72.651 16.4375 72.2344 16.7188C71.8177 16.9896 71.4948 17.3646 71.2656 17.8438C71.0365 18.3125 70.875 18.849 70.7812 19.4531C70.6979 20.0469 70.6562 20.6719 70.6562 21.3281V21.7812C70.6562 22.4375 70.6979 23.0677 70.7812 23.6719C70.8646 24.276 71.0208 24.8125 71.25 25.2812C71.4896 25.75 71.8177 26.1198 72.2344 26.3906C72.651 26.6615 73.1927 26.7969 73.8594 26.7969ZM90.5469 26.7969C91.099 26.7969 91.5885 26.6927 92.0156 26.4844C92.4427 26.2656 92.776 25.9635 93.0156 25.5781C93.2656 25.1823 93.3958 24.7188 93.4062 24.1875H97.6406C97.6302 25.375 97.3125 26.4323 96.6875 27.3594C96.0625 28.276 95.224 29 94.1719 29.5312C93.1198 30.0521 91.9427 30.3125 90.6406 30.3125C89.3281 30.3125 88.1823 30.0938 87.2031 29.6562C86.2344 29.2188 85.4271 28.6146 84.7812 27.8438C84.1354 27.0625 83.651 26.1562 83.3281 25.125C83.0052 24.0833 82.8438 22.9688 82.8438 21.7812V21.3281C82.8438 20.1302 83.0052 19.0156 83.3281 17.9844C83.651 16.9427 84.1354 16.0365 84.7812 15.2656C85.4271 14.4844 86.2344 13.875 87.2031 13.4375C88.1719 13 89.3073 12.7812 90.6094 12.7812C91.9948 12.7812 93.2083 13.0469 94.25 13.5781C95.3021 14.1094 96.125 14.8698 96.7188 15.8594C97.3229 16.8385 97.6302 18 97.6406 19.3438H93.4062C93.3958 18.7812 93.276 18.2708 93.0469 17.8125C92.8281 17.3542 92.5052 16.9896 92.0781 16.7188C91.6615 16.4375 91.1458 16.2969 90.5312 16.2969C89.875 16.2969 89.3385 16.4375 88.9219 16.7188C88.5052 16.9896 88.1823 17.3646 87.9531 17.8438C87.724 18.3125 87.5625 18.849 87.4688 19.4531C87.3854 20.0469 87.3438 20.6719 87.3438 21.3281V21.7812C87.3438 22.4375 87.3854 23.0677 87.4688 23.6719C87.5521 24.276 87.7083 24.8125 87.9375 25.2812C88.1771 25.75 88.5052 26.1198 88.9219 26.3906C89.3385 26.6615 89.8802 26.7969 90.5469 26.7969ZM108.031 30.3125C106.719 30.3125 105.542 30.1042 104.5 29.6875C103.458 29.2604 102.573 28.6719 101.844 27.9219C101.125 27.1719 100.573 26.3021 100.188 25.3125C99.8021 24.3125 99.6094 23.25 99.6094 22.125V21.5C99.6094 20.2188 99.7917 19.0469 100.156 17.9844C100.521 16.9219 101.042 16 101.719 15.2188C102.406 14.4375 103.24 13.8385 104.219 13.4219C105.198 12.9948 106.302 12.7812 107.531 12.7812C108.729 12.7812 109.792 12.9792 110.719 13.375C111.646 13.7708 112.422 14.3333 113.047 15.0625C113.682 15.7917 114.161 16.6667 114.484 17.6875C114.807 18.6979 114.969 19.8229 114.969 21.0625V22.9375H101.531V19.9375H110.547V19.5938C110.547 18.9688 110.432 18.4115 110.203 17.9219C109.984 17.4219 109.651 17.026 109.203 16.7344C108.755 16.4427 108.182 16.2969 107.484 16.2969C106.891 16.2969 106.38 16.4271 105.953 16.6875C105.526 16.9479 105.177 17.3125 104.906 17.7812C104.646 18.25 104.448 18.8021 104.312 19.4375C104.188 20.0625 104.125 20.75 104.125 21.5V22.125C104.125 22.8021 104.219 23.4271 104.406 24C104.604 24.5729 104.88 25.0677 105.234 25.4844C105.599 25.901 106.036 26.224 106.547 26.4531C107.068 26.6823 107.656 26.7969 108.312 26.7969C109.125 26.7969 109.88 26.6406 110.578 26.3281C111.286 26.0052 111.896 25.5208 112.406 24.875L114.594 27.25C114.24 27.7604 113.755 28.25 113.141 28.7188C112.536 29.1875 111.807 29.5729 110.953 29.875C110.099 30.1667 109.125 30.3125 108.031 30.3125ZM121.938 16.7031V30H117.438V13.0938H121.656L121.938 16.7031ZM121.281 20.9531H120.062C120.062 19.7031 120.224 18.5781 120.547 17.5781C120.87 16.5677 121.323 15.7083 121.906 15C122.49 14.2812 123.182 13.7344 123.984 13.3594C124.797 12.974 125.703 12.7812 126.703 12.7812C127.495 12.7812 128.219 12.8958 128.875 13.125C129.531 13.3542 130.094 13.7188 130.562 14.2188C131.042 14.7188 131.406 15.3802 131.656 16.2031C131.917 17.026 132.047 18.0312 132.047 19.2188V30H127.516V19.2031C127.516 18.4531 127.411 17.8698 127.203 17.4531C126.995 17.0365 126.688 16.7448 126.281 16.5781C125.885 16.401 125.396 16.3125 124.812 16.3125C124.208 16.3125 123.682 16.4323 123.234 16.6719C122.797 16.9115 122.432 17.2448 122.141 17.6719C121.859 18.0885 121.646 18.5781 121.5 19.1406C121.354 19.7031 121.281 20.3073 121.281 20.9531ZM143.75 13.0938V16.2812H133.906V13.0938H143.75ZM136.344 8.92188H140.844V24.9062C140.844 25.3958 140.906 25.7708 141.031 26.0312C141.167 26.2917 141.365 26.474 141.625 26.5781C141.885 26.6719 142.214 26.7188 142.609 26.7188C142.891 26.7188 143.141 26.7083 143.359 26.6875C143.589 26.6562 143.781 26.625 143.938 26.5938L143.953 29.9062C143.568 30.0312 143.151 30.1302 142.703 30.2031C142.255 30.276 141.76 30.3125 141.219 30.3125C140.229 30.3125 139.365 30.151 138.625 29.8281C137.896 29.4948 137.333 28.9635 136.938 28.2344C136.542 27.5052 136.344 26.5469 136.344 25.3594V8.92188ZM151.062 6V30H146.547V6H151.062ZM159.797 28.0938L164.281 13.0938H169.109L162.312 32.5469C162.167 32.974 161.969 33.4323 161.719 33.9219C161.479 34.4115 161.151 34.875 160.734 35.3125C160.328 35.7604 159.812 36.125 159.188 36.4062C158.573 36.6875 157.818 36.8281 156.922 36.8281C156.495 36.8281 156.146 36.8021 155.875 36.75C155.604 36.6979 155.281 36.625 154.906 36.5312V33.2344C155.021 33.2344 155.141 33.2344 155.266 33.2344C155.391 33.2448 155.51 33.25 155.625 33.25C156.219 33.25 156.703 33.1823 157.078 33.0469C157.453 32.9115 157.755 32.7031 157.984 32.4219C158.214 32.151 158.396 31.7969 158.531 31.3594L159.797 28.0938ZM157.922 13.0938L161.594 25.3438L162.234 30.1094L159.172 30.4375L153.094 13.0938H157.922Z" fill="black"/>
</svg>
