<svg width="181" height="23" viewBox="0 0 181 23" fill="none" xmlns="http://www.w3.org/2000/svg">
<path d="M8.25 8.33333H6V11.5H8.25V21H12V11.5H14.7L15 8.33333H12V6.9875C12 6.275 12.15 5.95833 12.825 5.95833H15V2H12.15C9.45 2 8.25 3.26667 8.25 5.64167V8.33333Z" fill="white"/>
<path d="M39.4819 14.2021C39.4819 13.7871 39.3354 13.4697 39.0425 13.25C38.7495 13.0254 38.2222 12.791 37.4604 12.5469C36.6987 12.2979 36.0957 12.0537 35.6514 11.8145C34.4404 11.1602 33.835 10.2788 33.835 9.17041C33.835 8.59424 33.9961 8.08154 34.3184 7.63232C34.6455 7.17822 35.1118 6.82422 35.7173 6.57031C36.3276 6.31641 37.0112 6.18945 37.7681 6.18945C38.5298 6.18945 39.2085 6.32861 39.8042 6.60693C40.3999 6.88037 40.8613 7.26855 41.1885 7.77148C41.5205 8.27441 41.6865 8.8457 41.6865 9.48535H39.4893C39.4893 8.99707 39.3354 8.61865 39.0278 8.3501C38.7202 8.07666 38.2881 7.93994 37.7314 7.93994C37.1943 7.93994 36.7769 8.05469 36.479 8.28418C36.1812 8.50879 36.0322 8.80664 36.0322 9.17773C36.0322 9.52441 36.2056 9.81494 36.5522 10.0493C36.9038 10.2837 37.4189 10.5034 38.0977 10.7085C39.3477 11.0845 40.2583 11.5508 40.8296 12.1074C41.4009 12.6641 41.6865 13.3574 41.6865 14.1875C41.6865 15.1104 41.3374 15.8354 40.6392 16.3628C39.9409 16.8853 39.001 17.1465 37.8193 17.1465C36.999 17.1465 36.252 16.9976 35.5781 16.6997C34.9043 16.397 34.3892 15.9844 34.0327 15.4619C33.6812 14.9395 33.5054 14.334 33.5054 13.6455H35.71C35.71 14.8223 36.4131 15.4106 37.8193 15.4106C38.3418 15.4106 38.7495 15.3057 39.0425 15.0957C39.3354 14.8809 39.4819 14.583 39.4819 14.2021ZM45.2754 17H43.1514V9.0752H45.2754V17ZM43.0269 7.02441C43.0269 6.70703 43.1318 6.4458 43.3418 6.24072C43.5566 6.03564 43.8472 5.93311 44.2134 5.93311C44.5747 5.93311 44.8628 6.03564 45.0776 6.24072C45.2925 6.4458 45.3999 6.70703 45.3999 7.02441C45.3999 7.34668 45.29 7.61035 45.0703 7.81543C44.8555 8.02051 44.5698 8.12305 44.2134 8.12305C43.8569 8.12305 43.5688 8.02051 43.3491 7.81543C43.1343 7.61035 43.0269 7.34668 43.0269 7.02441ZM46.7183 12.979C46.7183 11.7632 47.0063 10.7842 47.5825 10.042C48.1636 9.2998 48.9448 8.92871 49.9263 8.92871C50.7954 8.92871 51.4717 9.22656 51.9551 9.82227L52.043 9.0752H53.9619V16.7363C53.9619 17.4297 53.8032 18.0327 53.4858 18.5454C53.1733 19.0581 52.7314 19.4487 52.1602 19.7173C51.5889 19.9858 50.9199 20.1201 50.1533 20.1201C49.5723 20.1201 49.0059 20.0029 48.4541 19.7686C47.9023 19.5391 47.4849 19.2412 47.2017 18.875L48.1392 17.5859C48.6665 18.1768 49.3062 18.4722 50.0581 18.4722C50.6196 18.4722 51.0566 18.3208 51.3691 18.0181C51.6816 17.7202 51.8379 17.2954 51.8379 16.7437V16.3188C51.3496 16.8706 50.7075 17.1465 49.9116 17.1465C48.9595 17.1465 48.188 16.7754 47.5972 16.0332C47.0112 15.2861 46.7183 14.2974 46.7183 13.0669V12.979ZM48.835 13.1328C48.835 13.8506 48.979 14.4146 49.2671 14.8247C49.5552 15.23 49.9507 15.4326 50.4536 15.4326C51.0981 15.4326 51.5596 15.1909 51.8379 14.7075V11.375C51.5547 10.8916 51.0981 10.6499 50.4683 10.6499C49.9604 10.6499 49.5601 10.8574 49.2671 11.2725C48.979 11.6875 48.835 12.3076 48.835 13.1328ZM57.5435 9.0752L57.6094 9.99072C58.1758 9.28271 58.9351 8.92871 59.8872 8.92871C60.7271 8.92871 61.3521 9.17529 61.7622 9.66846C62.1724 10.1616 62.3823 10.8989 62.3921 11.8804V17H60.2754V11.9316C60.2754 11.4824 60.1777 11.1577 59.9824 10.9575C59.7871 10.7524 59.4624 10.6499 59.0083 10.6499C58.4126 10.6499 57.9658 10.9038 57.668 11.4116V17H55.5513V9.0752H57.5435ZM69.9727 17H67.8486V9.0752H69.9727V17ZM67.7241 7.02441C67.7241 6.70703 67.8291 6.4458 68.0391 6.24072C68.2539 6.03564 68.5444 5.93311 68.9106 5.93311C69.272 5.93311 69.5601 6.03564 69.7749 6.24072C69.9897 6.4458 70.0972 6.70703 70.0972 7.02441C70.0972 7.34668 69.9873 7.61035 69.7676 7.81543C69.5527 8.02051 69.2671 8.12305 68.9106 8.12305C68.5542 8.12305 68.2661 8.02051 68.0464 7.81543C67.8315 7.61035 67.7241 7.34668 67.7241 7.02441ZM73.6714 9.0752L73.7373 9.99072C74.3037 9.28271 75.063 8.92871 76.0151 8.92871C76.855 8.92871 77.48 9.17529 77.8901 9.66846C78.3003 10.1616 78.5103 10.8989 78.52 11.8804V17H76.4033V11.9316C76.4033 11.4824 76.3057 11.1577 76.1104 10.9575C75.915 10.7524 75.5903 10.6499 75.1362 10.6499C74.5405 10.6499 74.0938 10.9038 73.7959 11.4116V17H71.6792V9.0752H73.6714ZM90.7588 14.1216L91.7988 9.0752H93.8423L91.8208 17H90.0483L88.5469 12.0122L87.0454 17H85.2803L83.2588 9.0752H85.3022L86.335 14.1143L87.7852 9.0752H89.3159L90.7588 14.1216ZM97.1309 17H95.0068V9.0752H97.1309V17ZM94.8823 7.02441C94.8823 6.70703 94.9873 6.4458 95.1973 6.24072C95.4121 6.03564 95.7026 5.93311 96.0688 5.93311C96.4302 5.93311 96.7183 6.03564 96.9331 6.24072C97.1479 6.4458 97.2554 6.70703 97.2554 7.02441C97.2554 7.34668 97.1455 7.61035 96.9258 7.81543C96.7109 8.02051 96.4253 8.12305 96.0688 8.12305C95.7124 8.12305 95.4243 8.02051 95.2046 7.81543C94.9897 7.61035 94.8823 7.34668 94.8823 7.02441ZM101.416 7.12695V9.0752H102.771V10.6279H101.416V14.583C101.416 14.876 101.472 15.0859 101.584 15.2129C101.696 15.3398 101.911 15.4033 102.229 15.4033C102.463 15.4033 102.67 15.3862 102.851 15.3521V16.9561C102.436 17.083 102.009 17.1465 101.569 17.1465C100.085 17.1465 99.3281 16.397 99.2988 14.8979V10.6279H98.1416V9.0752H99.2988V7.12695H101.416ZM106.015 9.93945C106.577 9.26562 107.282 8.92871 108.132 8.92871C109.851 8.92871 110.722 9.92725 110.747 11.9243V17H108.63V11.9829C108.63 11.5288 108.532 11.1943 108.337 10.9795C108.142 10.7598 107.817 10.6499 107.363 10.6499C106.743 10.6499 106.293 10.8892 106.015 11.3677V17H103.898V5.75H106.015V9.93945ZM122.634 12.6421H118.415V17H116.218V6.33594H123.161V8.11572H118.415V10.8696H122.634V12.6421ZM128.64 17C128.542 16.8096 128.471 16.5728 128.427 16.2896C127.915 16.8608 127.248 17.1465 126.428 17.1465C125.651 17.1465 125.007 16.9219 124.494 16.4727C123.986 16.0234 123.732 15.457 123.732 14.7734C123.732 13.9336 124.042 13.2891 124.663 12.8398C125.288 12.3906 126.188 12.1636 127.365 12.1587H128.339V11.7046C128.339 11.3384 128.244 11.0454 128.054 10.8257C127.868 10.606 127.573 10.4961 127.167 10.4961C126.811 10.4961 126.53 10.5815 126.325 10.7524C126.125 10.9233 126.025 11.1577 126.025 11.4556H123.908C123.908 10.9966 124.05 10.5718 124.333 10.1812C124.616 9.79053 125.017 9.48535 125.534 9.26562C126.052 9.04102 126.633 8.92871 127.277 8.92871C128.254 8.92871 129.028 9.17529 129.599 9.66846C130.175 10.1567 130.463 10.8452 130.463 11.7339V15.1689C130.468 15.9209 130.573 16.4897 130.778 16.8755V17H128.64ZM126.889 15.5278C127.202 15.5278 127.49 15.4595 127.753 15.3228C128.017 15.1812 128.212 14.9932 128.339 14.7588V13.3965H127.548C126.489 13.3965 125.925 13.7627 125.856 14.4951L125.849 14.6196C125.849 14.8833 125.942 15.1006 126.127 15.2715C126.313 15.4424 126.567 15.5278 126.889 15.5278ZM135.385 15.4399C135.776 15.4399 136.093 15.3325 136.337 15.1177C136.582 14.9028 136.708 14.6172 136.718 14.2607H138.703C138.698 14.7979 138.552 15.291 138.264 15.7402C137.976 16.1846 137.58 16.5312 137.077 16.7803C136.579 17.0244 136.027 17.1465 135.422 17.1465C134.289 17.1465 133.396 16.7876 132.741 16.0698C132.087 15.3472 131.76 14.3511 131.76 13.0815V12.9424C131.76 11.7217 132.084 10.7476 132.734 10.02C133.383 9.29248 134.274 8.92871 135.407 8.92871C136.398 8.92871 137.192 9.21191 137.788 9.77832C138.388 10.3398 138.693 11.0894 138.703 12.0269H136.718C136.708 11.6167 136.582 11.2847 136.337 11.0308C136.093 10.772 135.771 10.6426 135.371 10.6426C134.877 10.6426 134.504 10.8232 134.25 11.1846C134.001 11.541 133.876 12.1221 133.876 12.9277V13.1475C133.876 13.9629 134.001 14.5488 134.25 14.9053C134.499 15.2617 134.877 15.4399 135.385 15.4399ZM143.559 17.1465C142.397 17.1465 141.45 16.79 140.717 16.0771C139.99 15.3643 139.626 14.4146 139.626 13.228V13.0229C139.626 12.2271 139.78 11.5166 140.087 10.8916C140.395 10.2617 140.83 9.77832 141.391 9.44141C141.958 9.09961 142.602 8.92871 143.325 8.92871C144.409 8.92871 145.261 9.27051 145.881 9.9541C146.506 10.6377 146.818 11.6069 146.818 12.8618V13.7261H141.772C141.84 14.2437 142.045 14.6587 142.387 14.9712C142.734 15.2837 143.171 15.4399 143.698 15.4399C144.514 15.4399 145.151 15.1445 145.61 14.5537L146.65 15.7183C146.333 16.1675 145.903 16.519 145.361 16.7729C144.819 17.022 144.218 17.1465 143.559 17.1465ZM143.317 10.6426C142.897 10.6426 142.556 10.7842 142.292 11.0674C142.033 11.3506 141.867 11.7559 141.794 12.2832H144.738V12.1147C144.729 11.646 144.602 11.2847 144.357 11.0308C144.113 10.772 143.767 10.6426 143.317 10.6426ZM155.168 13.1108C155.168 14.3804 154.897 15.3716 154.355 16.0845C153.813 16.7925 153.056 17.1465 152.084 17.1465C151.225 17.1465 150.539 16.8169 150.026 16.1577L149.931 17H148.027V5.75H150.144V9.78564C150.632 9.21436 151.274 8.92871 152.07 8.92871C153.037 8.92871 153.793 9.28516 154.34 9.99805C154.892 10.7061 155.168 11.7046 155.168 12.9937V13.1108ZM153.051 12.957C153.051 12.1562 152.924 11.5728 152.67 11.2065C152.417 10.8354 152.038 10.6499 151.535 10.6499C150.861 10.6499 150.397 10.9258 150.144 11.4775V14.605C150.402 15.1616 150.871 15.4399 151.55 15.4399C152.233 15.4399 152.683 15.103 152.897 14.4292C153 14.1069 153.051 13.6162 153.051 12.957ZM156.149 12.9644C156.149 12.1782 156.301 11.4775 156.604 10.8623C156.906 10.2471 157.341 9.771 157.907 9.43408C158.479 9.09717 159.14 8.92871 159.892 8.92871C160.961 8.92871 161.833 9.25586 162.507 9.91016C163.186 10.5645 163.564 11.4531 163.642 12.5762L163.657 13.1182C163.657 14.334 163.317 15.3105 162.639 16.0479C161.96 16.7803 161.049 17.1465 159.907 17.1465C158.764 17.1465 157.851 16.7803 157.167 16.0479C156.489 15.3154 156.149 14.3193 156.149 13.0596V12.9644ZM158.266 13.1182C158.266 13.8701 158.408 14.4463 158.691 14.8467C158.974 15.2422 159.379 15.4399 159.907 15.4399C160.419 15.4399 160.82 15.2446 161.108 14.854C161.396 14.4585 161.54 13.8286 161.54 12.9644C161.54 12.2271 161.396 11.6558 161.108 11.2505C160.82 10.8452 160.415 10.6426 159.892 10.6426C159.375 10.6426 158.974 10.8452 158.691 11.2505C158.408 11.6509 158.266 12.2734 158.266 13.1182ZM164.631 12.9644C164.631 12.1782 164.782 11.4775 165.085 10.8623C165.388 10.2471 165.822 9.771 166.389 9.43408C166.96 9.09717 167.622 8.92871 168.374 8.92871C169.443 8.92871 170.314 9.25586 170.988 9.91016C171.667 10.5645 172.045 11.4531 172.124 12.5762L172.138 13.1182C172.138 14.334 171.799 15.3105 171.12 16.0479C170.441 16.7803 169.531 17.1465 168.388 17.1465C167.246 17.1465 166.333 16.7803 165.649 16.0479C164.97 15.3154 164.631 14.3193 164.631 13.0596V12.9644ZM166.748 13.1182C166.748 13.8701 166.889 14.4463 167.172 14.8467C167.456 15.2422 167.861 15.4399 168.388 15.4399C168.901 15.4399 169.301 15.2446 169.589 14.854C169.877 14.4585 170.021 13.8286 170.021 12.9644C170.021 12.2271 169.877 11.6558 169.589 11.2505C169.301 10.8452 168.896 10.6426 168.374 10.6426C167.856 10.6426 167.456 10.8452 167.172 11.2505C166.889 11.6509 166.748 12.2734 166.748 13.1182ZM176.32 13.8213L175.559 14.583V17H173.442V5.75H175.559V11.9829L175.969 11.4556L177.998 9.0752H180.539L177.675 12.3784L180.788 17H178.356L176.32 13.8213Z" fill="white"/>
</svg>
