<svg width="54" height="23" viewBox="0 0 54 23" fill="none" xmlns="http://www.w3.org/2000/svg">
<path d="M9.86682 3.31584C9.23393 4.05894 8.22132 4.64505 7.2087 4.56132C7.08213 3.55656 7.57789 2.48901 8.15803 1.82963C8.79091 1.0656 9.89846 0.521357 10.7951 0.479492C10.9005 1.52611 10.4892 2.5518 9.86682 3.31584ZM10.7845 4.76018C9.31832 4.67645 8.0631 5.58701 7.36692 5.58701C6.6602 5.58701 5.59485 4.80204 4.43456 4.82297C2.92618 4.84391 1.52329 5.69167 0.753275 7.04181C-0.828937 9.7421 0.3419 13.7402 1.87137 15.9381C2.62029 17.0266 3.51687 18.2197 4.69826 18.1779C5.81636 18.136 6.25937 17.4557 7.60953 17.4557C8.97023 17.4557 9.36051 18.1779 10.5419 18.1569C11.7655 18.136 12.5355 17.0685 13.2844 15.98C14.1388 14.745 14.4869 13.5413 14.508 13.4785C14.4869 13.4576 12.1452 12.568 12.1241 9.88863C12.103 7.64885 13.97 6.5813 14.0544 6.5185C12.9996 4.9695 11.3541 4.80204 10.7845 4.76018ZM19.2546 1.72497V18.0418H21.8072V12.4633H25.3409C28.5686 12.4633 30.8364 10.2654 30.8364 7.08368C30.8364 3.90195 28.6108 1.72497 25.4252 1.72497H19.2546ZM21.8072 3.86008H24.7502C26.9653 3.86008 28.231 5.0323 28.231 7.09414C28.231 9.15599 26.9653 10.3387 24.7396 10.3387H21.8072V3.86008ZM35.4987 18.1674C37.102 18.1674 38.5892 17.3615 39.2643 16.0846H39.3171V18.0418H41.6798V9.92002C41.6798 7.56512 39.7812 6.04752 36.8594 6.04752C34.1485 6.04752 32.1444 7.58606 32.0705 9.70023H34.37C34.5599 8.69548 35.4987 8.0361 36.7855 8.0361C38.3466 8.0361 39.2221 8.75827 39.2221 10.0875V10.9876L36.0366 11.176C33.0726 11.3539 31.4693 12.5575 31.4693 14.6508C31.4693 16.7649 33.1253 18.1674 35.4987 18.1674ZM36.1843 16.2312C34.8236 16.2312 33.9586 15.5823 33.9586 14.588C33.9586 13.5623 34.7919 12.9657 36.3847 12.8715L39.2221 12.6936V13.6146C39.2221 15.1427 37.9142 16.2312 36.1843 16.2312ZM44.8337 22.4795C47.3231 22.4795 48.4939 21.5375 49.5171 18.6803L54 6.20452H51.4052L48.399 15.8439H48.3462L45.34 6.20452H42.6714L46.9961 18.0837L46.764 18.8058C46.3737 20.0304 45.7409 20.5014 44.6122 20.5014C44.4118 20.5014 44.0215 20.4804 43.8633 20.4595V22.4167C44.011 22.4586 44.6439 22.4795 44.8337 22.4795Z" fill="white"/>
</svg>
